Ezerovo-Italic.ufo
<glyph name="uni0000" format="2">
  <advance width="988"/>
  <unicode hex="0000"/>
  <outline>
    <contour>
      <point x="164" y="-75" type="line"/>
      <point x="966" y="-75" type="line"/>
      <point x="966" y="725" type="line"/>
      <point x="164" y="725" type="line"/>
    </contour>
    <contour>
      <point x="589" y="662" type="line"/>
      <point x="868" y="662" type="line"/>
      <point x="868" y="252" type="line"/>
      <point x="589" y="252" type="line"/>
    </contour>
    <contour>
      <point x="533" y="662" type="line"/>
      <point x="533" y="252" type="line"/>
      <point x="451" y="252" type="line"/>
      <point x="451" y="331" type="line"/>
      <point x="335" y="504" type="line"/>
      <point x="335" y="252" type="line"/>
      <point x="254" y="252" type="line"/>
      <point x="254" y="662" type="line"/>
      <point x="335" y="662" type="line"/>
      <point x="451" y="489" type="line"/>
      <point x="451" y="662" type="line"/>
    </contour>
    <contour>
      <point x="254" y="183" type="line"/>
      <point x="379" y="183" type="line"/>
      <point x="379" y="147" type="line"/>
      <point x="290" y="147" type="line"/>
      <point x="290" y="36" type="line"/>
      <point x="342" y="36" type="line"/>
      <point x="342" y="73" type="line"/>
      <point x="317" y="73" type="line"/>
      <point x="317" y="110" type="line"/>
      <point x="379" y="110" type="line"/>
      <point x="379" y="0" type="line"/>
      <point x="254" y="0" type="line"/>
    </contour>
    <contour>
      <point x="403" y="183" type="line"/>
      <point x="441" y="183" type="line"/>
      <point x="441" y="36" type="line"/>
      <point x="513" y="36" type="line"/>
      <point x="513" y="0" type="line"/>
      <point x="403" y="0" type="line"/>
    </contour>
    <contour>
      <point x="466" y="183" type="line"/>
      <point x="502" y="183" type="line"/>
      <point x="502" y="110" type="line"/>
      <point x="543" y="110" type="line"/>
      <point x="543" y="183" type="line"/>
      <point x="580" y="183" type="line"/>
      <point x="580" y="0" type="line"/>
      <point x="543" y="0" type="line"/>
      <point x="543" y="73" type="line"/>
      <point x="466" y="73" type="line"/>
    </contour>
    <contour>
      <point x="610" y="183" type="line"/>
      <point x="724" y="183" type="line"/>
      <point x="724" y="73" type="line"/>
      <point x="647" y="73" type="line"/>
      <point x="647" y="0" type="line"/>
      <point x="610" y="0" type="line"/>
    </contour>
    <contour>
      <point x="753" y="183" type="line"/>
      <point x="790" y="183" type="line"/>
      <point x="790" y="110" type="line"/>
      <point x="831" y="110" type="line"/>
      <point x="831" y="182" type="line"/>
      <point x="867" y="182" type="line"/>
      <point x="867" y="0" type="line"/>
      <point x="831" y="0" type="line"/>
      <point x="831" y="73" type="line"/>
      <point x="790" y="73" type="line"/>
      <point x="790" y="0" type="line"/>
      <point x="753" y="0" type="line"/>
    </contour>
    <contour>
      <point x="671" y="580" type="line"/>
      <point x="671" y="334" type="line"/>
      <point x="787" y="334" type="line"/>
      <point x="787" y="580" type="line"/>
    </contour>
    <contour>
      <point x="647" y="147" type="line"/>
      <point x="647" y="110" type="line"/>
      <point x="687" y="110" type="line"/>
      <point x="687" y="147" type="line"/>
    </contour>
  </outline>
</glyph>
<glyph name="exclam" format="2">
  <advance width="225"/>
  <unicode hex="0021"/>
  <outline>
    <contour>
      <point x="141" y="196" type="line"/>
      <point x="193" y="605" type="line" smooth="yes"/>
      <point x="198" y="639"/>
      <point x="209" y="665"/>
      <point x="259" y="665" type="curve" smooth="yes"/>
      <point x="295" y="665"/>
      <point x="306" y="653"/>
      <point x="306" y="634" type="curve" smooth="yes"/>
      <point x="306" y="625"/>
      <point x="303" y="614"/>
      <point x="299" y="601" type="curve" smooth="yes"/>
      <point x="167" y="196" type="line"/>
    </contour>
    <contour>
      <point x="65" y="42" type="curve" smooth="yes"/>
      <point x="65" y="81"/>
      <point x="90" y="106"/>
      <point x="126" y="106" type="curve" smooth="yes"/>
      <point x="160" y="106"/>
      <point x="180" y="82"/>
      <point x="180" y="54" type="curve" smooth="yes"/>
      <point x="180" y="15"/>
      <point x="155" y="-11"/>
      <point x="118" y="-11" type="curve" smooth="yes"/>
      <point x="84" y="-11"/>
      <point x="65" y="12"/>
    </contour>
  </outline>
</glyph>
<glyph name="quotedbl" format="2">
  <advance width="377"/>
  <unicode hex="0022"/>
  <outline>
    <contour>
      <point x="194" y="441" type="line"/>
      <point x="205" y="649" type="line" smooth="yes"/>
      <point x="207" y="682"/>
      <point x="221" y="697"/>
      <point x="257" y="697" type="curve" smooth="yes"/>
      <point x="286" y="697"/>
      <point x="300" y="689"/>
      <point x="300" y="671" type="curve" smooth="yes"/>
      <point x="300" y="665"/>
      <point x="298" y="658"/>
      <point x="295" y="649" type="curve" smooth="yes"/>
      <point x="220" y="441" type="line"/>
    </contour>
    <contour>
      <point x="353" y="441" type="line"/>
      <point x="365" y="649" type="line" smooth="yes"/>
      <point x="367" y="682"/>
      <point x="380" y="697"/>
      <point x="416" y="697" type="curve" smooth="yes"/>
      <point x="445" y="697"/>
      <point x="459" y="688"/>
      <point x="459" y="670" type="curve" smooth="yes"/>
      <point x="459" y="664"/>
      <point x="458" y="657"/>
      <point x="455" y="649" type="curve" smooth="yes"/>
      <point x="380" y="441" type="line"/>
    </contour>
  </outline>
</glyph>
<glyph name="numbersign" format="2">
  <advance width="498"/>
  <unicode hex="0023"/>
  <outline>
    <contour>
      <point x="84" y="217" type="line"/>
      <point x="100" y="262" type="line"/>
      <point x="197" y="262" type="line"/>
      <point x="241" y="385" type="line"/>
      <point x="142" y="385" type="line"/>
      <point x="158" y="431" type="line"/>
      <point x="257" y="431" type="line"/>
      <point x="326" y="628" type="line"/>
      <point x="379" y="628" type="line"/>
      <point x="310" y="431" type="line"/>
      <point x="434" y="431" type="line"/>
      <point x="504" y="628" type="line"/>
      <point x="556" y="628" type="line"/>
      <point x="487" y="431" type="line"/>
      <point x="583" y="431" type="line"/>
      <point x="569" y="385" type="line"/>
      <point x="471" y="385" type="line"/>
      <point x="428" y="262" type="line"/>
      <point x="525" y="262" type="line"/>
      <point x="510" y="217" type="line"/>
      <point x="412" y="217" type="line"/>
      <point x="336" y="0" type="line"/>
      <point x="283" y="0" type="line"/>
      <point x="359" y="217" type="line"/>
      <point x="235" y="217" type="line"/>
      <point x="159" y="0" type="line"/>
      <point x="105" y="0" type="line"/>
      <point x="181" y="217" type="line"/>
    </contour>
    <contour>
      <point x="251" y="262" type="line"/>
      <point x="375" y="262" type="line"/>
      <point x="418" y="385" type="line"/>
      <point x="294" y="385" type="line"/>
    </contour>
  </outline>
</glyph>
<glyph name="dollar" format="2">
  <advance width="498"/>
  <unicode hex="0024"/>
  <outline>
    <contour>
      <point x="62" y="113" type="curve" smooth="yes"/>
      <point x="62" y="141"/>
      <point x="84" y="160"/>
      <point x="106" y="160" type="curve" smooth="yes"/>
      <point x="121" y="160"/>
      <point x="128" y="151"/>
      <point x="133" y="137" type="curve" smooth="yes"/>
      <point x="158" y="61"/>
      <point x="199" y="40"/>
      <point x="235" y="35" type="curve"/>
      <point x="295" y="297" type="line"/>
      <point x="195" y="338"/>
      <point x="161" y="389"/>
      <point x="161" y="453" type="curve" smooth="yes"/>
      <point x="161" y="562"/>
      <point x="251" y="628"/>
      <point x="372" y="628" type="curve"/>
      <point x="389" y="698" type="line"/>
      <point x="427" y="698" type="line"/>
      <point x="411" y="626" type="line"/>
      <point x="485" y="619"/>
      <point x="551" y="581"/>
      <point x="551" y="526" type="curve" smooth="yes"/>
      <point x="551" y="500"/>
      <point x="526" y="484"/>
      <point x="506" y="484" type="curve" smooth="yes"/>
      <point x="490" y="484"/>
      <point x="483" y="494"/>
      <point x="479" y="509" type="curve" smooth="yes"/>
      <point x="466" y="561"/>
      <point x="439" y="587"/>
      <point x="403" y="593" type="curve"/>
      <point x="350" y="363" type="line"/>
      <point x="428" y="327"/>
      <point x="494" y="281"/>
      <point x="494" y="183" type="curve" smooth="yes"/>
      <point x="494" y="74"/>
      <point x="404" y="0"/>
      <point x="266" y="0" type="curve"/>
      <point x="244" y="-102" type="line"/>
      <point x="205" y="-102" type="line"/>
      <point x="228" y="2" type="line"/>
      <point x="127" y="9"/>
      <point x="62" y="60"/>
    </contour>
    <contour>
      <point x="236" y="481" type="curve" smooth="yes"/>
      <point x="236" y="426"/>
      <point x="267" y="403"/>
      <point x="314" y="379" type="curve"/>
      <point x="365" y="595" type="line"/>
      <point x="287" y="595"/>
      <point x="236" y="551"/>
    </contour>
    <contour>
      <point x="274" y="33" type="line"/>
      <point x="357" y="33"/>
      <point x="414" y="81"/>
      <point x="414" y="159" type="curve" smooth="yes"/>
      <point x="414" y="215"/>
      <point x="385" y="254"/>
      <point x="330" y="280" type="curve"/>
    </contour>
  </outline>
</glyph>
<glyph name="percent" format="2">
  <advance width="776"/>
  <unicode hex="0025"/>
  <outline>
    <contour>
      <point x="125" y="420" type="curve" smooth="yes"/>
      <point x="125" y="501"/>
      <point x="174" y="639"/>
      <point x="313" y="639" type="curve" smooth="yes"/>
      <point x="362" y="639"/>
      <point x="395" y="619"/>
      <point x="414" y="605" type="curve"/>
      <point x="424" y="597"/>
      <point x="433" y="593"/>
      <point x="457" y="593" type="curve" smooth="yes"/>
      <point x="625" y="593" type="line" smooth="yes"/>
      <point x="656" y="593"/>
      <point x="679" y="610"/>
      <point x="705" y="636" type="curve" smooth="yes"/>
      <point x="728" y="660" type="line"/>
      <point x="757" y="637" type="line"/>
      <point x="188" y="-24" type="line"/>
      <point x="159" y="3" type="line"/>
      <point x="638" y="561" type="line"/>
      <point x="435" y="561" type="line"/>
      <point x="439" y="547"/>
      <point x="440" y="526"/>
      <point x="440" y="510" type="curve" smooth="yes"/>
      <point x="440" y="433"/>
      <point x="397" y="295"/>
      <point x="256" y="295" type="curve" smooth="yes"/>
      <point x="159" y="295"/>
      <point x="125" y="359"/>
    </contour>
    <contour>
      <point x="197" y="399" type="curve" smooth="yes"/>
      <point x="197" y="370"/>
      <point x="204" y="323"/>
      <point x="257" y="323" type="curve" smooth="yes"/>
      <point x="345" y="323"/>
      <point x="368" y="493"/>
      <point x="368" y="536" type="curve" smooth="yes"/>
      <point x="368" y="565"/>
      <point x="363" y="611"/>
      <point x="312" y="611" type="curve" smooth="yes"/>
      <point x="228" y="611"/>
      <point x="197" y="445"/>
    </contour>
    <contour>
      <point x="465" y="114" type="curve" smooth="yes"/>
      <point x="465" y="195"/>
      <point x="514" y="333"/>
      <point x="653" y="333" type="curve" smooth="yes"/>
      <point x="740" y="333"/>
      <point x="780" y="275"/>
      <point x="780" y="204" type="curve" smooth="yes"/>
      <point x="780" y="127"/>
      <point x="737" y="-11"/>
      <point x="596" y="-11" type="curve" smooth="yes"/>
      <point x="499" y="-11"/>
      <point x="465" y="53"/>
    </contour>
    <contour>
      <point x="538" y="92" type="curve" smooth="yes"/>
      <point x="538" y="63"/>
      <point x="544" y="17"/>
      <point x="597" y="17" type="curve" smooth="yes"/>
      <point x="685" y="17"/>
      <point x="708" y="186"/>
      <point x="708" y="229" type="curve" smooth="yes"/>
      <point x="708" y="258"/>
      <point x="703" y="305"/>
      <point x="652" y="305" type="curve" smooth="yes"/>
      <point x="568" y="305"/>
      <point x="538" y="138"/>
    </contour>
  </outline>
</glyph>
<glyph name="ampersand" format="2">
  <advance width="681"/>
  <unicode hex="0026"/>
  <outline>
    <contour>
      <point x="89" y="152" type="curve" smooth="yes"/>
      <point x="89" y="268"/>
      <point x="191" y="315"/>
      <point x="260" y="347" type="curve"/>
      <point x="241" y="379"/>
      <point x="227" y="431"/>
      <point x="227" y="463" type="curve" smooth="yes"/>
      <point x="227" y="573"/>
      <point x="306" y="639"/>
      <point x="392" y="639" type="curve" smooth="yes"/>
      <point x="465" y="639"/>
      <point x="527" y="597"/>
      <point x="527" y="519" type="curve" smooth="yes"/>
      <point x="527" y="429"/>
      <point x="444" y="390"/>
      <point x="351" y="352" type="curve"/>
      <point x="384" y="293"/>
      <point x="440" y="217"/>
      <point x="503" y="149" type="curve"/>
      <point x="584" y="233"/>
      <point x="607" y="320"/>
      <point x="614" y="392" type="curve"/>
      <point x="635" y="402"/>
      <point x="655" y="408"/>
      <point x="674" y="408" type="curve" smooth="yes"/>
      <point x="686" y="408" type="line"/>
      <point x="692" y="392"/>
      <point x="694" y="377"/>
      <point x="694" y="364" type="curve" smooth="yes"/>
      <point x="694" y="284"/>
      <point x="577" y="173"/>
      <point x="524" y="125" type="curve"/>
      <point x="564" y="88"/>
      <point x="620" y="29"/>
      <point x="690" y="17" type="curve"/>
      <point x="686" y="-7" type="line"/>
      <point x="639" y="-5" type="line" smooth="yes"/>
      <point x="565" y="-2"/>
      <point x="513" y="27"/>
      <point x="468" y="70" type="curve"/>
      <point x="398" y="12"/>
      <point x="340" y="-11"/>
      <point x="269" y="-11" type="curve" smooth="yes"/>
      <point x="147" y="-11"/>
      <point x="89" y="71"/>
    </contour>
    <contour>
      <point x="179" y="162" type="curve" smooth="yes"/>
      <point x="179" y="99"/>
      <point x="227" y="35"/>
      <point x="307" y="35" type="curve" smooth="yes"/>
      <point x="362" y="35"/>
      <point x="410" y="60"/>
      <point x="446" y="93" type="curve"/>
      <point x="378" y="163"/>
      <point x="320" y="243"/>
      <point x="275" y="319" type="curve"/>
      <point x="249" y="308"/>
      <point x="179" y="260"/>
    </contour>
    <contour>
      <point x="303" y="493" type="curve" smooth="yes"/>
      <point x="303" y="457"/>
      <point x="316" y="409"/>
      <point x="337" y="377" type="curve"/>
      <point x="398" y="406"/>
      <point x="454" y="459"/>
      <point x="454" y="530" type="curve" smooth="yes"/>
      <point x="454" y="567"/>
      <point x="435" y="606"/>
      <point x="386" y="606" type="curve" smooth="yes"/>
      <point x="345" y="606"/>
      <point x="303" y="564"/>
    </contour>
  </outline>
</glyph>
<glyph name="quotesingle" format="2">
  <advance width="203"/>
  <unicode hex="0027"/>
  <outline>
    <contour>
      <point x="184" y="441" type="line"/>
      <point x="196" y="649" type="line" smooth="yes"/>
      <point x="198" y="682"/>
      <point x="211" y="697"/>
      <point x="247" y="697" type="curve" smooth="yes"/>
      <point x="276" y="697"/>
      <point x="290" y="688"/>
      <point x="290" y="670" type="curve" smooth="yes"/>
      <point x="290" y="664"/>
      <point x="289" y="657"/>
      <point x="286" y="649" type="curve" smooth="yes"/>
      <point x="211" y="441" type="line"/>
    </contour>
  </outline>
</glyph>
<glyph name="parenleft" format="2">
  <advance width="393"/>
  <unicode hex="0028"/>
  <outline>
    <contour>
      <point x="73" y="118" type="curve" smooth="yes"/>
      <point x="73" y="350"/>
      <point x="185" y="745"/>
      <point x="473" y="745" type="curve"/>
      <point x="469" y="717" type="line"/>
      <point x="249" y="682"/>
      <point x="149" y="299"/>
      <point x="149" y="100" type="curve" smooth="yes"/>
      <point x="149" y="-73"/>
      <point x="216" y="-153"/>
      <point x="263" y="-164" type="curve"/>
      <point x="257" y="-189" type="line"/>
      <point x="140" y="-181"/>
      <point x="73" y="-57"/>
    </contour>
  </outline>
</glyph>
<glyph name="parenright" format="2">
  <advance width="393"/>
  <unicode hex="0029"/>
  <outline>
    <contour>
      <point x="-33" y="-189" type="curve"/>
      <point x="-29" y="-164" type="line"/>
      <point x="189" y="-129"/>
      <point x="291" y="259"/>
      <point x="291" y="457" type="curve" smooth="yes"/>
      <point x="291" y="628"/>
      <point x="224" y="706"/>
      <point x="177" y="717" type="curve"/>
      <point x="183" y="745" type="line"/>
      <point x="300" y="737"/>
      <point x="367" y="613"/>
      <point x="367" y="438" type="curve" smooth="yes"/>
      <point x="367" y="211"/>
      <point x="240" y="-189"/>
    </contour>
  </outline>
</glyph>
<glyph name="asterisk" format="2">
  <advance width="387"/>
  <unicode hex="002A"/>
  <outline>
    <contour>
      <point x="132" y="434" type="curve" smooth="yes"/>
      <point x="132" y="445"/>
      <point x="139" y="453"/>
      <point x="153" y="458" type="curve" smooth="yes"/>
      <point x="266" y="496" type="line"/>
      <point x="271" y="498"/>
      <point x="274" y="501"/>
      <point x="274" y="504" type="curve" smooth="yes"/>
      <point x="274" y="507"/>
      <point x="271" y="510"/>
      <point x="265" y="513" type="curve"/>
      <point x="184" y="542" type="line"/>
      <point x="171" y="546"/>
      <point x="165" y="555"/>
      <point x="165" y="565" type="curve" smooth="yes"/>
      <point x="165" y="582"/>
      <point x="184" y="608"/>
      <point x="201" y="608" type="curve" smooth="yes"/>
      <point x="207" y="608"/>
      <point x="212" y="606"/>
      <point x="217" y="601" type="curve" smooth="yes"/>
      <point x="281" y="535" type="line" smooth="yes"/>
      <point x="284" y="532"/>
      <point x="287" y="531"/>
      <point x="289" y="531" type="curve" smooth="yes"/>
      <point x="293" y="531"/>
      <point x="294" y="535"/>
      <point x="294" y="543" type="curve" smooth="yes"/>
      <point x="294" y="635" type="line" smooth="yes"/>
      <point x="294" y="654"/>
      <point x="303" y="665"/>
      <point x="332" y="665" type="curve" smooth="yes"/>
      <point x="350" y="665"/>
      <point x="361" y="658"/>
      <point x="361" y="646" type="curve" smooth="yes"/>
      <point x="361" y="642"/>
      <point x="360" y="638"/>
      <point x="358" y="634" type="curve"/>
      <point x="317" y="543" type="line"/>
      <point x="316" y="540"/>
      <point x="315" y="537"/>
      <point x="315" y="535" type="curve" smooth="yes"/>
      <point x="315" y="532"/>
      <point x="316" y="531"/>
      <point x="319" y="531" type="curve" smooth="yes"/>
      <point x="322" y="531"/>
      <point x="325" y="532"/>
      <point x="329" y="535" type="curve" smooth="yes"/>
      <point x="415" y="602" type="line"/>
      <point x="421" y="607"/>
      <point x="428" y="609"/>
      <point x="434" y="609" type="curve" smooth="yes"/>
      <point x="450" y="609"/>
      <point x="464" y="584"/>
      <point x="464" y="569" type="curve" smooth="yes"/>
      <point x="464" y="559"/>
      <point x="457" y="552"/>
      <point x="446" y="548" type="curve"/>
      <point x="334" y="511" type="line"/>
      <point x="326" y="508"/>
      <point x="321" y="504"/>
      <point x="321" y="500" type="curve" smooth="yes"/>
      <point x="321" y="498"/>
      <point x="323" y="496"/>
      <point x="327" y="494" type="curve"/>
      <point x="417" y="458" type="line"/>
      <point x="426" y="454"/>
      <point x="430" y="448"/>
      <point x="430" y="439" type="curve" smooth="yes"/>
      <point x="430" y="424"/>
      <point x="410" y="396"/>
      <point x="394" y="396" type="curve" smooth="yes"/>
      <point x="388" y="396"/>
      <point x="382" y="399"/>
      <point x="376" y="406" type="curve" smooth="yes"/>
      <point x="317" y="473" type="line"/>
      <point x="314" y="476"/>
      <point x="311" y="477"/>
      <point x="309" y="477" type="curve" smooth="yes"/>
      <point x="304" y="477"/>
      <point x="302" y="471"/>
      <point x="302" y="464" type="curve" smooth="yes"/>
      <point x="302" y="366" type="line" smooth="yes"/>
      <point x="302" y="342"/>
      <point x="289" y="335"/>
      <point x="265" y="335" type="curve" smooth="yes"/>
      <point x="244" y="335"/>
      <point x="234" y="343"/>
      <point x="234" y="356" type="curve" smooth="yes"/>
      <point x="234" y="361"/>
      <point x="235" y="366"/>
      <point x="238" y="372" type="curve"/>
      <point x="279" y="464" type="line"/>
      <point x="280" y="467"/>
      <point x="281" y="470"/>
      <point x="281" y="472" type="curve" smooth="yes"/>
      <point x="281" y="475"/>
      <point x="279" y="478"/>
      <point x="276" y="478" type="curve" smooth="yes"/>
      <point x="273" y="478"/>
      <point x="270" y="476"/>
      <point x="266" y="473" type="curve"/>
      <point x="187" y="406" type="line"/>
      <point x="177" y="398"/>
      <point x="169" y="394"/>
      <point x="162" y="394" type="curve" smooth="yes"/>
      <point x="145" y="394"/>
      <point x="132" y="419"/>
    </contour>
  </outline>
</glyph>
<glyph name="plus" format="2">
  <advance width="535"/>
  <unicode hex="002B"/>
  <outline>
    <contour>
      <point x="87" y="208" type="line"/>
      <point x="87" y="262" type="line"/>
      <point x="283" y="262" type="line"/>
      <point x="283" y="461" type="line"/>
      <point x="347" y="461" type="line"/>
      <point x="347" y="262" type="line"/>
      <point x="542" y="262" type="line"/>
      <point x="542" y="208" type="line"/>
      <point x="347" y="208" type="line"/>
      <point x="347" y="0" type="line"/>
      <point x="283" y="0" type="line"/>
      <point x="283" y="208" type="line"/>
    </contour>
  </outline>
</glyph>
<glyph name="comma" format="2">
  <advance width="249"/>
  <unicode hex="002C"/>
  <outline>
    <contour>
      <point x="43" y="-109" type="line"/>
      <point x="74" y="-79"/>
      <point x="110" y="-38"/>
      <point x="110" y="8" type="curve" smooth="yes"/>
      <point x="110" y="23"/>
      <point x="105" y="35"/>
      <point x="100" y="46" type="curve" smooth="yes"/>
      <point x="95" y="57"/>
      <point x="88" y="70"/>
      <point x="88" y="84" type="curve" smooth="yes"/>
      <point x="88" y="110"/>
      <point x="111" y="133"/>
      <point x="141" y="133" type="curve" smooth="yes"/>
      <point x="176" y="133"/>
      <point x="196" y="100"/>
      <point x="196" y="70" type="curve" smooth="yes"/>
      <point x="196" y="-15"/>
      <point x="124" y="-76"/>
      <point x="59" y="-126" type="curve"/>
    </contour>
  </outline>
</glyph>
<glyph name="period" format="2">
  <advance width="249"/>
  <unicode hex="002E"/>
  <outline>
    <contour>
      <point x="77" y="42" type="curve" smooth="yes"/>
      <point x="77" y="81"/>
      <point x="102" y="106"/>
      <point x="138" y="106" type="curve" smooth="yes"/>
      <point x="172" y="106"/>
      <point x="192" y="82"/>
      <point x="192" y="54" type="curve" smooth="yes"/>
      <point x="192" y="15"/>
      <point x="168" y="-11"/>
      <point x="131" y="-11" type="curve" smooth="yes"/>
      <point x="97" y="-11"/>
      <point x="77" y="12"/>
    </contour>
  </outline>
</glyph>
<glyph name="slash" format="2">
  <advance width="253"/>
  <unicode hex="002F"/>
  <outline>
    <contour>
      <point x="33" y="-14" type="line"/>
      <point x="287" y="665" type="line"/>
      <point x="353" y="665" type="line"/>
      <point x="100" y="-14" type="line"/>
    </contour>
  </outline>
</glyph>
<glyph name="zero" format="2">
  <advance width="498"/>
  <unicode hex="0030"/>
  <outline>
    <contour>
      <point x="89" y="192" type="curve" smooth="yes"/>
      <point x="89" y="354"/>
      <point x="172" y="639"/>
      <point x="373" y="639" type="curve" smooth="yes"/>
      <point x="523" y="639"/>
      <point x="541" y="514"/>
      <point x="541" y="433" type="curve" smooth="yes"/>
      <point x="541" y="270"/>
      <point x="465" y="-11"/>
      <point x="262" y="-11" type="curve" smooth="yes"/>
      <point x="129" y="-11"/>
      <point x="89" y="90"/>
    </contour>
    <contour>
      <point x="174" y="152" type="curve" smooth="yes"/>
      <point x="174" y="57"/>
      <point x="210" y="22"/>
      <point x="262" y="22" type="curve" smooth="yes"/>
      <point x="400" y="22"/>
      <point x="457" y="370"/>
      <point x="457" y="476" type="curve" smooth="yes"/>
      <point x="457" y="551"/>
      <point x="440" y="606"/>
      <point x="374" y="606" type="curve" smooth="yes"/>
      <point x="236" y="606"/>
      <point x="174" y="258"/>
    </contour>
  </outline>
</glyph>
<glyph name="one" format="2">
  <advance width="498"/>
  <unicode hex="0031"/>
  <outline>
    <contour>
      <point x="102" y="0" type="line"/>
      <point x="108" y="27" type="line"/>
      <point x="194" y="34" type="line" smooth="yes"/>
      <point x="210" y="35"/>
      <point x="220" y="45"/>
      <point x="225" y="68" type="curve" smooth="yes"/>
      <point x="331" y="543" type="line" smooth="yes"/>
      <point x="332" y="548"/>
      <point x="333" y="553"/>
      <point x="333" y="557" type="curve" smooth="yes"/>
      <point x="333" y="567"/>
      <point x="329" y="573"/>
      <point x="320" y="574" type="curve" smooth="yes"/>
      <point x="228" y="584" type="line"/>
      <point x="236" y="606" type="line"/>
      <point x="429" y="639" type="line"/>
      <point x="436" y="634" type="line"/>
      <point x="308" y="68" type="line" smooth="yes"/>
      <point x="307" y="63"/>
      <point x="306" y="59"/>
      <point x="306" y="55" type="curve" smooth="yes"/>
      <point x="306" y="39"/>
      <point x="316" y="33"/>
      <point x="328" y="32" type="curve" smooth="yes"/>
      <point x="412" y="27" type="line"/>
      <point x="406" y="0" type="line"/>
    </contour>
  </outline>
</glyph>
<glyph name="two" format="2">
  <advance width="498"/>
  <unicode hex="0032"/>
  <outline>
    <contour>
      <point x="31" y="9" type="line"/>
      <point x="56" y="82"/>
      <point x="107" y="150"/>
      <point x="250" y="248" type="curve" smooth="yes"/>
      <point x="382" y="337"/>
      <point x="445" y="407"/>
      <point x="445" y="498" type="curve" smooth="yes"/>
      <point x="445" y="546"/>
      <point x="433" y="606"/>
      <point x="356" y="606" type="curve" smooth="yes"/>
      <point x="306" y="606"/>
      <point x="261" y="568"/>
      <point x="230" y="481" type="curve" smooth="yes"/>
      <point x="226" y="469"/>
      <point x="221" y="458"/>
      <point x="203" y="458" type="curve" smooth="yes"/>
      <point x="182" y="458"/>
      <point x="157" y="476"/>
      <point x="157" y="503" type="curve" smooth="yes"/>
      <point x="157" y="557"/>
      <point x="235" y="639"/>
      <point x="358" y="639" type="curve" smooth="yes"/>
      <point x="460" y="639"/>
      <point x="539" y="589"/>
      <point x="539" y="485" type="curve" smooth="yes"/>
      <point x="539" y="366"/>
      <point x="439" y="310"/>
      <point x="324" y="246" type="curve" smooth="yes"/>
      <point x="216" y="186"/>
      <point x="156" y="129"/>
      <point x="127" y="70" type="curve"/>
      <point x="362" y="70" type="line" smooth="yes"/>
      <point x="403" y="70"/>
      <point x="416" y="77"/>
      <point x="448" y="123" type="curve"/>
      <point x="477" y="118" type="line"/>
      <point x="426" y="0" type="line"/>
      <point x="41" y="0" type="line"/>
    </contour>
  </outline>
</glyph>
<glyph name="three" format="2">
  <advance width="498"/>
  <unicode hex="0033"/>
  <outline>
    <contour>
      <point x="51" y="104" type="curve" smooth="yes"/>
      <point x="51" y="135"/>
      <point x="77" y="156"/>
      <point x="99" y="156" type="curve" smooth="yes"/>
      <point x="114" y="156"/>
      <point x="122" y="146"/>
      <point x="127" y="127" type="curve" smooth="yes"/>
      <point x="148" y="52"/>
      <point x="191" y="22"/>
      <point x="249" y="22" type="curve" smooth="yes"/>
      <point x="309" y="22"/>
      <point x="392" y="67"/>
      <point x="392" y="210" type="curve" smooth="yes"/>
      <point x="392" y="253"/>
      <point x="374" y="329"/>
      <point x="292" y="329" type="curve" smooth="yes"/>
      <point x="253" y="329"/>
      <point x="219" y="320"/>
      <point x="207" y="320" type="curve" smooth="yes"/>
      <point x="192" y="320"/>
      <point x="189" y="329"/>
      <point x="189" y="340" type="curve" smooth="yes"/>
      <point x="189" y="356"/>
      <point x="198" y="375"/>
      <point x="210" y="375" type="curve" smooth="yes"/>
      <point x="227" y="375"/>
      <point x="258" y="365"/>
      <point x="301" y="365" type="curve" smooth="yes"/>
      <point x="376" y="365"/>
      <point x="433" y="429"/>
      <point x="433" y="509" type="curve" smooth="yes"/>
      <point x="433" y="546"/>
      <point x="421" y="606"/>
      <point x="346" y="606" type="curve" smooth="yes"/>
      <point x="295" y="606"/>
      <point x="260" y="568"/>
      <point x="235" y="508" type="curve" smooth="yes"/>
      <point x="228" y="490"/>
      <point x="219" y="482"/>
      <point x="206" y="482" type="curve" smooth="yes"/>
      <point x="190" y="482"/>
      <point x="164" y="496"/>
      <point x="164" y="525" type="curve" smooth="yes"/>
      <point x="164" y="578"/>
      <point x="246" y="639"/>
      <point x="351" y="639" type="curve" smooth="yes"/>
      <point x="426" y="639"/>
      <point x="525" y="609"/>
      <point x="525" y="499" type="curve" smooth="yes"/>
      <point x="525" y="397"/>
      <point x="430" y="358"/>
      <point x="359" y="352" type="curve"/>
      <point x="359" y="349" type="line"/>
      <point x="414" y="341"/>
      <point x="490" y="300"/>
      <point x="490" y="200" type="curve" smooth="yes"/>
      <point x="490" y="54"/>
      <point x="370" y="-11"/>
      <point x="246" y="-11" type="curve" smooth="yes"/>
      <point x="113" y="-11"/>
      <point x="51" y="59"/>
    </contour>
  </outline>
</glyph>
<glyph name="four" format="2">
  <advance width="498"/>
  <unicode hex="0034"/>
  <outline>
    <contour>
      <point x="63" y="194" type="line"/>
      <point x="184" y="345"/>
      <point x="309" y="495"/>
      <point x="441" y="628" type="curve"/>
      <point x="505" y="628" type="line"/>
      <point x="419" y="219" type="line"/>
      <point x="511" y="219" type="line"/>
      <point x="502" y="176" type="line"/>
      <point x="410" y="176" type="line"/>
      <point x="386" y="63" type="line" smooth="yes"/>
      <point x="385" y="58"/>
      <point x="384" y="53"/>
      <point x="384" y="49" type="curve" smooth="yes"/>
      <point x="384" y="36"/>
      <point x="390" y="31"/>
      <point x="405" y="30" type="curve" smooth="yes"/>
      <point x="452" y="27" type="line"/>
      <point x="446" y="0" type="line"/>
      <point x="197" y="0" type="line"/>
      <point x="205" y="27" type="line"/>
      <point x="274" y="32" type="line" smooth="yes"/>
      <point x="289" y="33"/>
      <point x="301" y="39"/>
      <point x="306" y="63" type="curve" smooth="yes"/>
      <point x="330" y="176" type="line"/>
      <point x="71" y="176" type="line"/>
    </contour>
    <contour>
      <point x="145" y="219" type="line"/>
      <point x="339" y="219" type="line"/>
      <point x="408" y="539" type="line"/>
      <point x="406" y="540" type="line"/>
      <point x="313" y="440"/>
      <point x="225" y="333"/>
      <point x="142" y="222" type="curve"/>
    </contour>
  </outline>
</glyph>
<glyph name="five" format="2">
  <advance width="498"/>
  <unicode hex="0035"/>
  <outline>
    <contour>
      <point x="55" y="102" type="curve" smooth="yes"/>
      <point x="55" y="132"/>
      <point x="81" y="154"/>
      <point x="105" y="154" type="curve" smooth="yes"/>
      <point x="118" y="154"/>
      <point x="127" y="144"/>
      <point x="132" y="127" type="curve" smooth="yes"/>
      <point x="153" y="49"/>
      <point x="197" y="22"/>
      <point x="255" y="22" type="curve" smooth="yes"/>
      <point x="332" y="22"/>
      <point x="405" y="99"/>
      <point x="405" y="216" type="curve" smooth="yes"/>
      <point x="405" y="303"/>
      <point x="363" y="358"/>
      <point x="293" y="358" type="curve" smooth="yes"/>
      <point x="243" y="358"/>
      <point x="202" y="335"/>
      <point x="169" y="296" type="curve"/>
      <point x="147" y="307" type="line"/>
      <point x="215" y="620" type="line"/>
      <point x="225" y="628" type="line"/>
      <point x="545" y="628" type="line"/>
      <point x="550" y="618" type="line"/>
      <point x="510" y="558" type="line"/>
      <point x="277" y="558" type="line" smooth="yes"/>
      <point x="261" y="558"/>
      <point x="253" y="557"/>
      <point x="247" y="536" type="curve" smooth="yes"/>
      <point x="196" y="360" type="line"/>
      <point x="198" y="358" type="line"/>
      <point x="231" y="384"/>
      <point x="282" y="401"/>
      <point x="324" y="401" type="curve" smooth="yes"/>
      <point x="434" y="401"/>
      <point x="503" y="336"/>
      <point x="503" y="227" type="curve" smooth="yes"/>
      <point x="503" y="92"/>
      <point x="392" y="-11"/>
      <point x="248" y="-11" type="curve" smooth="yes"/>
      <point x="118" y="-11"/>
      <point x="55" y="53"/>
    </contour>
  </outline>
</glyph>
<glyph name="six" format="2">
  <advance width="498"/>
  <unicode hex="0036"/>
  <outline>
    <contour>
      <point x="86" y="195" type="curve" smooth="yes"/>
      <point x="86" y="373"/>
      <point x="171" y="639"/>
      <point x="388" y="639" type="curve" smooth="yes"/>
      <point x="513" y="639"/>
      <point x="551" y="574"/>
      <point x="551" y="538" type="curve" smooth="yes"/>
      <point x="551" y="512"/>
      <point x="522" y="494"/>
      <point x="501" y="494" type="curve" smooth="yes"/>
      <point x="483" y="494"/>
      <point x="477" y="505"/>
      <point x="474" y="521" type="curve" smooth="yes"/>
      <point x="463" y="576"/>
      <point x="432" y="606"/>
      <point x="385" y="606" type="curve" smooth="yes"/>
      <point x="296" y="606"/>
      <point x="224" y="500"/>
      <point x="187" y="318" type="curve"/>
      <point x="190" y="318" type="line"/>
      <point x="224" y="355"/>
      <point x="279" y="395"/>
      <point x="346" y="395" type="curve" smooth="yes"/>
      <point x="459" y="395"/>
      <point x="512" y="323"/>
      <point x="512" y="225" type="curve" smooth="yes"/>
      <point x="512" y="116"/>
      <point x="436" y="-11"/>
      <point x="279" y="-11" type="curve" smooth="yes"/>
      <point x="132" y="-11"/>
      <point x="86" y="86"/>
    </contour>
    <contour>
      <point x="173" y="158" type="curve" smooth="yes"/>
      <point x="173" y="105"/>
      <point x="187" y="22"/>
      <point x="278" y="22" type="curve" smooth="yes"/>
      <point x="350" y="22"/>
      <point x="421" y="97"/>
      <point x="421" y="232" type="curve" smooth="yes"/>
      <point x="421" y="302"/>
      <point x="382" y="349"/>
      <point x="318" y="349" type="curve" smooth="yes"/>
      <point x="229" y="349"/>
      <point x="173" y="278"/>
    </contour>
  </outline>
</glyph>
<glyph name="seven" format="2">
  <advance width="498"/>
  <unicode hex="0037"/>
  <outline>
    <contour>
      <point x="155" y="498" type="line"/>
      <point x="195" y="628" type="line"/>
      <point x="589" y="628" type="line"/>
      <point x="597" y="618" type="line"/>
      <point x="547" y="500"/>
      <point x="484" y="440"/>
      <point x="398" y="334" type="curve" smooth="yes"/>
      <point x="329" y="251"/>
      <point x="287" y="168"/>
      <point x="263" y="27" type="curve" smooth="yes"/>
      <point x="258" y="-3"/>
      <point x="246" y="-11"/>
      <point x="212" y="-11" type="curve" smooth="yes"/>
      <point x="182" y="-11"/>
      <point x="167" y="2"/>
      <point x="167" y="24" type="curve" smooth="yes"/>
      <point x="167" y="93"/>
      <point x="210" y="180"/>
      <point x="368" y="360" type="curve" smooth="yes"/>
      <point x="448" y="450"/>
      <point x="490" y="514"/>
      <point x="506" y="558" type="curve"/>
      <point x="279" y="558" type="line" smooth="yes"/>
      <point x="230" y="558"/>
      <point x="212" y="546"/>
      <point x="198" y="523" type="curve" smooth="yes"/>
      <point x="183" y="498" type="line"/>
    </contour>
  </outline>
</glyph>
<glyph name="eight" format="2">
  <advance width="498"/>
  <unicode hex="0038"/>
  <outline>
    <contour>
      <point x="76" y="149" type="curve" smooth="yes"/>
      <point x="76" y="264"/>
      <point x="156" y="338"/>
      <point x="244" y="348" type="curve"/>
      <point x="244" y="352" type="line"/>
      <point x="202" y="370"/>
      <point x="167" y="408"/>
      <point x="167" y="470" type="curve" smooth="yes"/>
      <point x="167" y="584"/>
      <point x="264" y="639"/>
      <point x="364" y="639" type="curve" smooth="yes"/>
      <point x="495" y="639"/>
      <point x="536" y="562"/>
      <point x="536" y="498" type="curve" smooth="yes"/>
      <point x="536" y="406"/>
      <point x="471" y="359"/>
      <point x="405" y="346" type="curve"/>
      <point x="405" y="343" type="line"/>
      <point x="445" y="329"/>
      <point x="504" y="281"/>
      <point x="504" y="195" type="curve" smooth="yes"/>
      <point x="504" y="79"/>
      <point x="428" y="-11"/>
      <point x="274" y="-11" type="curve" smooth="yes"/>
      <point x="134" y="-11"/>
      <point x="76" y="67"/>
    </contour>
    <contour>
      <point x="166" y="142" type="curve" smooth="yes"/>
      <point x="166" y="67"/>
      <point x="208" y="22"/>
      <point x="278" y="22" type="curve" smooth="yes"/>
      <point x="365" y="22"/>
      <point x="414" y="108"/>
      <point x="414" y="208" type="curve" smooth="yes"/>
      <point x="414" y="279"/>
      <point x="373" y="322"/>
      <point x="308" y="322" type="curve" smooth="yes"/>
      <point x="223" y="322"/>
      <point x="166" y="239"/>
    </contour>
    <contour>
      <point x="251" y="448" type="curve" smooth="yes"/>
      <point x="251" y="401"/>
      <point x="273" y="358"/>
      <point x="337" y="358" type="curve" smooth="yes"/>
      <point x="400" y="358"/>
      <point x="452" y="428"/>
      <point x="452" y="521" type="curve" smooth="yes"/>
      <point x="452" y="566"/>
      <point x="426" y="606"/>
      <point x="368" y="606" type="curve" smooth="yes"/>
      <point x="285" y="606"/>
      <point x="251" y="512"/>
    </contour>
  </outline>
</glyph>
<glyph name="nine" format="2">
  <advance width="498"/>
  <unicode hex="0039"/>
  <outline>
    <contour>
      <point x="81" y="90" type="curve" smooth="yes"/>
      <point x="81" y="124"/>
      <point x="107" y="143"/>
      <point x="127" y="143" type="curve" smooth="yes"/>
      <point x="142" y="143"/>
      <point x="149" y="133"/>
      <point x="154" y="115" type="curve" smooth="yes"/>
      <point x="172" y="48"/>
      <point x="205" y="22"/>
      <point x="250" y="22" type="curve" smooth="yes"/>
      <point x="372" y="22"/>
      <point x="426" y="223"/>
      <point x="439" y="318" type="curve"/>
      <point x="436" y="318" type="line"/>
      <point x="394" y="276"/>
      <point x="348" y="250"/>
      <point x="291" y="250" type="curve" smooth="yes"/>
      <point x="197" y="250"/>
      <point x="125" y="314"/>
      <point x="125" y="413" type="curve" smooth="yes"/>
      <point x="125" y="554"/>
      <point x="227" y="639"/>
      <point x="341" y="639" type="curve" smooth="yes"/>
      <point x="478" y="639"/>
      <point x="537" y="547"/>
      <point x="537" y="400" type="curve" smooth="yes"/>
      <point x="537" y="227"/>
      <point x="453" y="-11"/>
      <point x="247" y="-11" type="curve" smooth="yes"/>
      <point x="141" y="-11"/>
      <point x="81" y="48"/>
    </contour>
    <contour>
      <point x="212" y="425" type="curve" smooth="yes"/>
      <point x="212" y="358"/>
      <point x="241" y="297"/>
      <point x="329" y="297" type="curve" smooth="yes"/>
      <point x="399" y="297"/>
      <point x="447" y="349"/>
      <point x="447" y="431" type="curve" smooth="yes"/>
      <point x="447" y="527"/>
      <point x="427" y="606"/>
      <point x="339" y="606" type="curve" smooth="yes"/>
      <point x="271" y="606"/>
      <point x="212" y="544"/>
    </contour>
  </outline>
</glyph>
<glyph name="colon" format="2">
  <advance width="249"/>
  <unicode hex="003A"/>
  <outline>
    <contour>
      <point x="151" y="397" type="curve" smooth="yes"/>
      <point x="151" y="436"/>
      <point x="176" y="461"/>
      <point x="212" y="461" type="curve" smooth="yes"/>
      <point x="246" y="461"/>
      <point x="266" y="436"/>
      <point x="266" y="408" type="curve" smooth="yes"/>
      <point x="266" y="369"/>
      <point x="242" y="343"/>
      <point x="205" y="343" type="curve" smooth="yes"/>
      <point x="171" y="343"/>
      <point x="151" y="367"/>
    </contour>
    <contour>
      <point x="77" y="42" type="curve" smooth="yes"/>
      <point x="77" y="81"/>
      <point x="102" y="106"/>
      <point x="138" y="106" type="curve" smooth="yes"/>
      <point x="172" y="106"/>
      <point x="192" y="82"/>
      <point x="192" y="54" type="curve" smooth="yes"/>
      <point x="192" y="15"/>
      <point x="168" y="-11"/>
      <point x="131" y="-11" type="curve" smooth="yes"/>
      <point x="97" y="-11"/>
      <point x="77" y="12"/>
    </contour>
  </outline>
</glyph>
<glyph name="semicolon" format="2">
  <advance width="249"/>
  <unicode hex="003B"/>
  <outline>
    <contour>
      <point x="151" y="397" type="curve" smooth="yes"/>
      <point x="151" y="436"/>
      <point x="176" y="461"/>
      <point x="212" y="461" type="curve" smooth="yes"/>
      <point x="246" y="461"/>
      <point x="266" y="436"/>
      <point x="266" y="408" type="curve" smooth="yes"/>
      <point x="266" y="369"/>
      <point x="242" y="343"/>
      <point x="205" y="343" type="curve" smooth="yes"/>
      <point x="171" y="343"/>
      <point x="151" y="367"/>
    </contour>
    <contour>
      <point x="43" y="-109" type="line"/>
      <point x="77" y="-76"/>
      <point x="110" y="-39"/>
      <point x="110" y="-1" type="curve" smooth="yes"/>
      <point x="110" y="19"/>
      <point x="107" y="32"/>
      <point x="100" y="46" type="curve"/>
      <point x="95" y="57"/>
      <point x="88" y="70"/>
      <point x="88" y="84" type="curve" smooth="yes"/>
      <point x="88" y="110"/>
      <point x="111" y="133"/>
      <point x="141" y="133" type="curve" smooth="yes"/>
      <point x="176" y="133"/>
      <point x="196" y="100"/>
      <point x="196" y="70" type="curve" smooth="yes"/>
      <point x="196" y="-15"/>
      <point x="124" y="-76"/>
      <point x="59" y="-126" type="curve"/>
    </contour>
  </outline>
</glyph>
<glyph name="less" format="2">
  <advance width="535"/>
  <unicode hex="003C"/>
  <outline>
    <contour>
      <point x="81" y="195" type="line"/>
      <point x="81" y="271" type="line"/>
      <point x="530" y="467" type="line"/>
      <point x="530" y="402" type="line"/>
      <point x="136" y="233" type="line"/>
      <point x="530" y="64" type="line"/>
      <point x="530" y="1" type="line"/>
    </contour>
  </outline>
</glyph>
<glyph name="equal" format="2">
  <advance width="535"/>
  <unicode hex="003D"/>
  <outline>
    <contour>
      <point x="87" y="104" type="line"/>
      <point x="87" y="159" type="line"/>
      <point x="542" y="159" type="line"/>
      <point x="542" y="104" type="line"/>
    </contour>
    <contour>
      <point x="87" y="311" type="line"/>
      <point x="87" y="366" type="line"/>
      <point x="542" y="366" type="line"/>
      <point x="542" y="311" type="line"/>
    </contour>
  </outline>
</glyph>
<glyph name="greater" format="2">
  <advance width="535"/>
  <unicode hex="003E"/>
  <outline>
    <contour>
      <point x="81" y="1" type="line"/>
      <point x="81" y="64" type="line"/>
      <point x="475" y="233" type="line"/>
      <point x="81" y="402" type="line"/>
      <point x="81" y="467" type="line"/>
      <point x="530" y="271" type="line"/>
      <point x="530" y="195" type="line"/>
    </contour>
  </outline>
</glyph>
<glyph name="question" format="2">
  <advance width="399"/>
  <unicode hex="003F"/>
  <outline>
    <contour>
      <point x="150" y="268" type="curve" smooth="yes"/>
      <point x="150" y="312"/>
      <point x="183" y="346"/>
      <point x="248" y="384" type="curve" smooth="yes"/>
      <point x="337" y="437"/>
      <point x="374" y="504"/>
      <point x="374" y="563" type="curve" smooth="yes"/>
      <point x="374" y="602"/>
      <point x="358" y="632"/>
      <point x="319" y="632" type="curve" smooth="yes"/>
      <point x="273" y="632"/>
      <point x="246" y="587"/>
      <point x="225" y="534" type="curve" smooth="yes"/>
      <point x="221" y="524"/>
      <point x="212" y="516"/>
      <point x="196" y="516" type="curve" smooth="yes"/>
      <point x="181" y="516"/>
      <point x="154" y="530"/>
      <point x="154" y="557" type="curve" smooth="yes"/>
      <point x="154" y="596"/>
      <point x="209" y="665"/>
      <point x="314" y="665" type="curve" smooth="yes"/>
      <point x="405" y="665"/>
      <point x="462" y="615"/>
      <point x="462" y="545" type="curve" smooth="yes"/>
      <point x="462" y="465"/>
      <point x="413" y="433"/>
      <point x="341" y="396" type="curve" smooth="yes"/>
      <point x="280" y="365"/>
      <point x="234" y="333"/>
      <point x="234" y="284" type="curve" smooth="yes"/>
      <point x="234" y="244"/>
      <point x="263" y="229"/>
      <point x="294" y="229" type="curve" smooth="yes"/>
      <point x="311" y="229"/>
      <point x="324" y="231"/>
      <point x="335" y="232" type="curve"/>
      <point x="340" y="216" type="line"/>
      <point x="319" y="201"/>
      <point x="280" y="187"/>
      <point x="248" y="187" type="curve" smooth="yes"/>
      <point x="201" y="187"/>
      <point x="150" y="210"/>
    </contour>
    <contour>
      <point x="141" y="42" type="curve" smooth="yes"/>
      <point x="141" y="81"/>
      <point x="166" y="106"/>
      <point x="202" y="106" type="curve" smooth="yes"/>
      <point x="236" y="106"/>
      <point x="256" y="82"/>
      <point x="256" y="54" type="curve" smooth="yes"/>
      <point x="256" y="15"/>
      <point x="232" y="-11"/>
      <point x="195" y="-11" type="curve" smooth="yes"/>
      <point x="161" y="-11"/>
      <point x="141" y="12"/>
    </contour>
  </outline>
</glyph>
<glyph name="at" format="2">
  <advance width="746"/>
  <unicode hex="0040"/>
  <outline>
    <contour>
      <point x="116" y="285" type="curve" smooth="yes"/>
      <point x="116" y="524"/>
      <point x="300" y="665"/>
      <point x="494" y="665" type="curve" smooth="yes"/>
      <point x="673" y="665"/>
      <point x="782" y="541"/>
      <point x="782" y="389" type="curve" smooth="yes"/>
      <point x="782" y="260"/>
      <point x="681" y="162"/>
      <point x="571" y="162" type="curve" smooth="yes"/>
      <point x="531" y="162"/>
      <point x="505" y="176"/>
      <point x="505" y="221" type="curve" smooth="yes"/>
      <point x="505" y="237"/>
      <point x="507" y="257"/>
      <point x="515" y="281" type="curve" smooth="yes"/>
      <point x="518" y="290" type="line"/>
      <point x="516" y="291" type="line"/>
      <point x="490" y="244"/>
      <point x="415" y="162"/>
      <point x="344" y="162" type="curve" smooth="yes"/>
      <point x="316" y="162"/>
      <point x="282" y="179"/>
      <point x="282" y="240" type="curve" smooth="yes"/>
      <point x="282" y="310"/>
      <point x="352" y="501"/>
      <point x="519" y="501" type="curve" smooth="yes"/>
      <point x="541" y="501"/>
      <point x="553" y="498"/>
      <point x="571" y="489" type="curve"/>
      <point x="574" y="496" type="line"/>
      <point x="635" y="496" type="line"/>
      <point x="573" y="254" type="line"/>
      <point x="571" y="245"/>
      <point x="570" y="237"/>
      <point x="570" y="230" type="curve" smooth="yes"/>
      <point x="570" y="205"/>
      <point x="585" y="197"/>
      <point x="605" y="197" type="curve" smooth="yes"/>
      <point x="668" y="197"/>
      <point x="735" y="287"/>
      <point x="735" y="384" type="curve" smooth="yes"/>
      <point x="735" y="538"/>
      <point x="629" y="626"/>
      <point x="496" y="626" type="curve" smooth="yes"/>
      <point x="307" y="626"/>
      <point x="189" y="461"/>
      <point x="189" y="289" type="curve" smooth="yes"/>
      <point x="189" y="173"/>
      <point x="250" y="23"/>
      <point x="462" y="23" type="curve" smooth="yes"/>
      <point x="517" y="23"/>
      <point x="579" y="34"/>
      <point x="621" y="52" type="curve"/>
      <point x="629" y="28" type="line"/>
      <point x="571" y="-4"/>
      <point x="494" y="-14"/>
      <point x="436" y="-14" type="curve" smooth="yes"/>
      <point x="279" y="-14"/>
      <point x="116" y="82"/>
    </contour>
    <contour>
      <point x="359" y="254" type="curve" smooth="yes"/>
      <point x="359" y="223"/>
      <point x="370" y="206"/>
      <point x="391" y="206" type="curve" smooth="yes"/>
      <point x="458" y="206"/>
      <point x="546" y="374"/>
      <point x="564" y="461" type="curve"/>
      <point x="550" y="470"/>
      <point x="539" y="474"/>
      <point x="520" y="474" type="curve" smooth="yes"/>
      <point x="421" y="474"/>
      <point x="359" y="311"/>
    </contour>
  </outline>
</glyph>
<glyph name="A" format="2">
  <advance width="586"/>
  <unicode hex="0041"/>
  <anchor x="459" y="697" name="top"/>
  <anchor x="439" y="620" name="t.ring"/>
  <anchor x="525" y="0" name="b.ogonek"/>
  <anchor x="281" y="-40" name="bottom"/>
  <outline>
    <contour>
      <point x="-22" y="0" type="line"/>
      <point x="-16" y="27" type="line"/>
      <point x="15" y="31" type="line" smooth="yes"/>
      <point x="44" y="34"/>
      <point x="61" y="43"/>
      <point x="90" y="93" type="curve" smooth="yes"/>
      <point x="409" y="650" type="line"/>
      <point x="476" y="650" type="line"/>
      <point x="545" y="85" type="line" smooth="yes"/>
      <point x="550" y="46"/>
      <point x="554" y="33"/>
      <point x="583" y="30" type="curve" smooth="yes"/>
      <point x="619" y="27" type="line"/>
      <point x="613" y="0" type="line"/>
      <point x="382" y="0" type="line"/>
      <point x="387" y="27" type="line"/>
      <point x="437" y="32" type="line" smooth="yes"/>
      <point x="454" y="34"/>
      <point x="462" y="40"/>
      <point x="462" y="59" type="curve" smooth="yes"/>
      <point x="462" y="62"/>
      <point x="462" y="65"/>
      <point x="461" y="69" type="curve"/>
      <point x="439" y="251" type="line"/>
      <point x="228" y="251" type="line"/>
      <point x="132" y="67" type="line"/>
      <point x="128" y="60"/>
      <point x="126" y="53"/>
      <point x="126" y="48" type="curve" smooth="yes"/>
      <point x="126" y="39"/>
      <point x="132" y="33"/>
      <point x="144" y="32" type="curve" smooth="yes"/>
      <point x="196" y="27" type="line"/>
      <point x="190" y="0" type="line"/>
    </contour>
    <contour>
      <point x="247" y="287" type="line"/>
      <point x="434" y="287" type="line"/>
      <point x="402" y="563" type="line"/>
      <point x="399" y="563" type="line"/>
    </contour>
  </outline>
</glyph>
<glyph name="B" format="2">
  <advance width="594"/>
  <unicode hex="0042"/>
  <anchor x="412" y="697" name="top"/>
  <anchor x="280" y="-40" name="bottom"/>
  <outline>
    <contour>
      <point x="36" y="0" type="line"/>
      <point x="41" y="27" type="line"/>
      <point x="94" y="33" type="line" smooth="yes"/>
      <point x="117" y="36"/>
      <point x="126" y="47"/>
      <point x="133" y="78" type="curve" smooth="yes"/>
      <point x="244" y="572" type="line"/>
      <point x="247" y="581"/>
      <point x="248" y="589"/>
      <point x="248" y="595" type="curve" smooth="yes"/>
      <point x="248" y="610"/>
      <point x="241" y="616"/>
      <point x="225" y="618" type="curve"/>
      <point x="169" y="623" type="line"/>
      <point x="175" y="650" type="line"/>
      <point x="401" y="650" type="line" smooth="yes"/>
      <point x="501" y="650"/>
      <point x="631" y="638"/>
      <point x="631" y="509" type="curve" smooth="yes"/>
      <point x="631" y="438"/>
      <point x="578" y="367"/>
      <point x="453" y="352" type="curve"/>
      <point x="452" y="350" type="line"/>
      <point x="521" y="337"/>
      <point x="594" y="294"/>
      <point x="594" y="195" type="curve" smooth="yes"/>
      <point x="594" y="117"/>
      <point x="548" y="0"/>
      <point x="321" y="0" type="curve" smooth="yes"/>
    </contour>
    <contour>
      <point x="227" y="93" type="line" smooth="yes"/>
      <point x="225" y="85"/>
      <point x="224" y="78"/>
      <point x="224" y="72" type="curve" smooth="yes"/>
      <point x="224" y="47"/>
      <point x="242" y="33"/>
      <point x="316" y="33" type="curve" smooth="yes"/>
      <point x="442" y="33"/>
      <point x="493" y="116"/>
      <point x="493" y="200" type="curve" smooth="yes"/>
      <point x="493" y="307"/>
      <point x="411" y="334"/>
      <point x="318" y="334" type="curve" smooth="yes"/>
      <point x="281" y="334" type="line"/>
    </contour>
    <contour>
      <point x="288" y="367" type="line"/>
      <point x="349" y="367" type="line" smooth="yes"/>
      <point x="440" y="367"/>
      <point x="535" y="406"/>
      <point x="535" y="512" type="curve" smooth="yes"/>
      <point x="535" y="578"/>
      <point x="491" y="618"/>
      <point x="412" y="618" type="curve" smooth="yes"/>
      <point x="349" y="618"/>
      <point x="344" y="613"/>
      <point x="337" y="585" type="curve" smooth="yes"/>
    </contour>
  </outline>
</glyph>
<glyph name="C" format="2">
  <advance width="621"/>
  <unicode hex="0043"/>
  <anchor x="396" y="10" name="b.cedilla"/>
  <anchor x="542" y="697" name="top"/>
  <outline>
    <contour>
      <point x="107" y="258" type="curve" smooth="yes"/>
      <point x="107" y="494"/>
      <point x="260" y="665"/>
      <point x="505" y="665" type="curve" smooth="yes"/>
      <point x="571" y="665"/>
      <point x="659" y="649"/>
      <point x="713" y="615" type="curve"/>
      <point x="679" y="474" type="line"/>
      <point x="650" y="474" type="line"/>
      <point x="655" y="576"/>
      <point x="615" y="632"/>
      <point x="497" y="632" type="curve" smooth="yes"/>
      <point x="291" y="632"/>
      <point x="208" y="407"/>
      <point x="208" y="234" type="curve" smooth="yes"/>
      <point x="208" y="89"/>
      <point x="286" y="19"/>
      <point x="395" y="19" type="curve" smooth="yes"/>
      <point x="511" y="19"/>
      <point x="558" y="81"/>
      <point x="610" y="175" type="curve"/>
      <point x="638" y="175" type="line"/>
      <point x="592" y="25" type="line"/>
      <point x="532" y="-5"/>
      <point x="468" y="-14"/>
      <point x="401" y="-14" type="curve" smooth="yes"/>
      <point x="168" y="-14"/>
      <point x="107" y="134"/>
    </contour>
  </outline>
</glyph>
<glyph name="D" format="2">
  <advance width="717"/>
  <unicode hex="0044"/>
  <anchor x="449" y="697" name="top"/>
  <anchor x="280" y="-40" name="bottom"/>
  <anchor x="376" y="10" name="b.cedilla"/>
  <outline>
    <contour>
      <point x="38" y="0" type="line"/>
      <point x="43" y="27" type="line"/>
      <point x="96" y="33" type="line" smooth="yes"/>
      <point x="119" y="35"/>
      <point x="127" y="47"/>
      <point x="134" y="78" type="curve" smooth="yes"/>
      <point x="246" y="572" type="line" smooth="yes"/>
      <point x="248" y="581"/>
      <point x="249" y="589"/>
      <point x="249" y="595" type="curve" smooth="yes"/>
      <point x="249" y="610"/>
      <point x="243" y="618"/>
      <point x="227" y="619" type="curve" smooth="yes"/>
      <point x="171" y="623" type="line"/>
      <point x="177" y="650" type="line"/>
      <point x="430" y="650" type="line" smooth="yes"/>
      <point x="608" y="650"/>
      <point x="754" y="586"/>
      <point x="754" y="386" type="curve" smooth="yes"/>
      <point x="754" y="136"/>
      <point x="566" y="0"/>
      <point x="326" y="0" type="curve" smooth="yes"/>
    </contour>
    <contour>
      <point x="225" y="81" type="line" smooth="yes"/>
      <point x="224" y="77"/>
      <point x="224" y="73"/>
      <point x="224" y="69" type="curve" smooth="yes"/>
      <point x="224" y="39"/>
      <point x="256" y="33"/>
      <point x="302" y="33" type="curve" smooth="yes"/>
      <point x="530" y="33"/>
      <point x="653" y="191"/>
      <point x="653" y="407" type="curve" smooth="yes"/>
      <point x="653" y="482"/>
      <point x="637" y="618"/>
      <point x="441" y="618" type="curve" smooth="yes"/>
      <point x="359" y="618"/>
      <point x="346" y="615"/>
      <point x="338" y="583" type="curve" smooth="yes"/>
    </contour>
  </outline>
</glyph>
<glyph name="E" format="2">
  <advance width="560"/>
  <unicode hex="0045"/>
  <anchor x="449" y="697" name="top"/>
  <anchor x="352" y="0" name="b.ogonek"/>
  <anchor x="310" y="-40" name="bottom"/>
  <outline>
    <contour>
      <point x="36" y="0" type="line"/>
      <point x="41" y="27" type="line"/>
      <point x="94" y="33" type="line" smooth="yes"/>
      <point x="117" y="35"/>
      <point x="125" y="46"/>
      <point x="133" y="78" type="curve" smooth="yes"/>
      <point x="245" y="574" type="line" smooth="yes"/>
      <point x="247" y="583"/>
      <point x="248" y="590"/>
      <point x="248" y="596" type="curve" smooth="yes"/>
      <point x="248" y="611"/>
      <point x="240" y="617"/>
      <point x="225" y="619" type="curve"/>
      <point x="168" y="623" type="line"/>
      <point x="175" y="650" type="line"/>
      <point x="650" y="650" type="line"/>
      <point x="615" y="494" type="line"/>
      <point x="587" y="494" type="line"/>
      <point x="595" y="579"/>
      <point x="597" y="618"/>
      <point x="479" y="618" type="curve" smooth="yes"/>
      <point x="366" y="618" type="line" smooth="yes"/>
      <point x="350" y="618"/>
      <point x="344" y="613"/>
      <point x="339" y="590" type="curve" smooth="yes"/>
      <point x="286" y="356" type="line"/>
      <point x="409" y="356" type="line" smooth="yes"/>
      <point x="492" y="356"/>
      <point x="502" y="371"/>
      <point x="526" y="436" type="curve"/>
      <point x="555" y="436" type="line"/>
      <point x="511" y="240" type="line"/>
      <point x="483" y="240" type="line"/>
      <point x="487" y="301"/>
      <point x="484" y="321"/>
      <point x="401" y="321" type="curve" smooth="yes"/>
      <point x="278" y="321" type="line"/>
      <point x="230" y="115" type="line"/>
      <point x="225" y="96"/>
      <point x="223" y="82"/>
      <point x="223" y="72" type="curve" smooth="yes"/>
      <point x="223" y="43.2647"/>
      <point x="242.207" y="33"/>
      <point x="340" y="33" type="curve" smooth="yes"/>
      <point x="456" y="33"/>
      <point x="498" y="49"/>
      <point x="546" y="165" type="curve"/>
      <point x="574" y="165" type="line"/>
      <point x="526" y="0" type="line"/>
    </contour>
  </outline>
</glyph>
<glyph name="F" format="2">
  <advance width="536"/>
  <unicode hex="0046"/>
  <anchor x="445" y="697" name="top"/>
  <outline>
    <contour>
      <point x="36" y="0" type="line"/>
      <point x="41" y="27" type="line"/>
      <point x="94" y="32" type="line" smooth="yes"/>
      <point x="117" y="34"/>
      <point x="127" y="47"/>
      <point x="133" y="75" type="curve" smooth="yes"/>
      <point x="245" y="575" type="line"/>
      <point x="247" y="582"/>
      <point x="248" y="589"/>
      <point x="248" y="594" type="curve" smooth="yes"/>
      <point x="248" y="609"/>
      <point x="242" y="616"/>
      <point x="225" y="618" type="curve"/>
      <point x="169" y="623" type="line"/>
      <point x="175" y="650" type="line"/>
      <point x="653" y="650" type="line"/>
      <point x="618" y="495" type="line"/>
      <point x="589" y="495" type="line"/>
      <point x="597" y="578"/>
      <point x="600" y="618"/>
      <point x="482" y="618" type="curve" smooth="yes"/>
      <point x="367" y="618" type="line" smooth="yes"/>
      <point x="350" y="618"/>
      <point x="345" y="613"/>
      <point x="339" y="589" type="curve" smooth="yes"/>
      <point x="283" y="343" type="line"/>
      <point x="407" y="343" type="line" smooth="yes"/>
      <point x="490" y="343"/>
      <point x="501" y="358"/>
      <point x="525" y="424" type="curve"/>
      <point x="553" y="424" type="line"/>
      <point x="509" y="227" type="line"/>
      <point x="481" y="227" type="line"/>
      <point x="485" y="288"/>
      <point x="483" y="307"/>
      <point x="400" y="307" type="curve" smooth="yes"/>
      <point x="275" y="307" type="line"/>
      <point x="223" y="75" type="line" smooth="yes"/>
      <point x="221" y="67"/>
      <point x="220" y="60"/>
      <point x="220" y="55" type="curve" smooth="yes"/>
      <point x="220" y="40"/>
      <point x="227" y="33"/>
      <point x="244" y="32" type="curve" smooth="yes"/>
      <point x="315" y="27" type="line"/>
      <point x="309" y="0" type="line"/>
    </contour>
  </outline>
</glyph>
<glyph name="G" format="2">
  <advance width="666"/>
  <unicode hex="0047"/>
  <anchor x="510" y="697" name="top"/>
  <outline>
    <contour>
      <point x="107" y="268" type="curve" smooth="yes"/>
      <point x="107" y="505"/>
      <point x="274" y="665"/>
      <point x="510" y="665" type="curve" smooth="yes"/>
      <point x="589" y="665"/>
      <point x="664" y="649"/>
      <point x="721" y="618" type="curve"/>
      <point x="687" y="471" type="line"/>
      <point x="659" y="471" type="line"/>
      <point x="666" y="552"/>
      <point x="647" y="632"/>
      <point x="509" y="632" type="curve" smooth="yes"/>
      <point x="284" y="632"/>
      <point x="211" y="411"/>
      <point x="211" y="261" type="curve" smooth="yes"/>
      <point x="211" y="95"/>
      <point x="294" y="19"/>
      <point x="408" y="19" type="curve" smooth="yes"/>
      <point x="506" y="19"/>
      <point x="518" y="43"/>
      <point x="525" y="70" type="curve" smooth="yes"/>
      <point x="559" y="212" type="line" smooth="yes"/>
      <point x="561" y="221"/>
      <point x="562" y="229"/>
      <point x="562" y="235" type="curve" smooth="yes"/>
      <point x="562" y="250"/>
      <point x="555" y="255"/>
      <point x="543" y="257" type="curve"/>
      <point x="473" y="263" type="line"/>
      <point x="478" y="290" type="line"/>
      <point x="726" y="290" type="line"/>
      <point x="720" y="263" type="line"/>
      <point x="679" y="259" type="line"/>
      <point x="663" y="257"/>
      <point x="658" y="244"/>
      <point x="650" y="212" type="curve" smooth="yes"/>
      <point x="605" y="22" type="line"/>
      <point x="551" y="2"/>
      <point x="475" y="-14"/>
      <point x="406" y="-14" type="curve" smooth="yes"/>
      <point x="221" y="-14"/>
      <point x="107" y="77"/>
    </contour>
  </outline>
</glyph>
<glyph name="H" format="2">
  <advance width="728"/>
  <unicode hex="0048"/>
  <anchor x="526" y="697" name="top"/>
  <anchor x="374" y="-40" name="bottom"/>
  <outline>
    <contour>
      <point x="38" y="0" type="line"/>
      <point x="43" y="27" type="line"/>
      <point x="95" y="33" type="line" smooth="yes"/>
      <point x="118" y="36"/>
      <point x="126" y="46"/>
      <point x="134" y="78" type="curve" smooth="yes"/>
      <point x="247" y="572" type="line" smooth="yes"/>
      <point x="249" y="580"/>
      <point x="250" y="587"/>
      <point x="250" y="593" type="curve" smooth="yes"/>
      <point x="250" y="609"/>
      <point x="243" y="618"/>
      <point x="227" y="619" type="curve" smooth="yes"/>
      <point x="171" y="623" type="line"/>
      <point x="178" y="650" type="line"/>
      <point x="435" y="650" type="line"/>
      <point x="429" y="623" type="line"/>
      <point x="377" y="619" type="line" smooth="yes"/>
      <point x="353" y="617"/>
      <point x="344" y="603"/>
      <point x="337" y="572" type="curve" smooth="yes"/>
      <point x="288" y="356" type="line"/>
      <point x="602" y="356" type="line"/>
      <point x="650" y="572" type="line"/>
      <point x="652" y="580"/>
      <point x="653" y="587"/>
      <point x="653" y="593" type="curve" smooth="yes"/>
      <point x="653" y="609"/>
      <point x="646" y="618"/>
      <point x="630" y="619" type="curve" smooth="yes"/>
      <point x="574" y="623" type="line"/>
      <point x="581" y="650" type="line"/>
      <point x="838" y="650" type="line"/>
      <point x="832" y="623" type="line"/>
      <point x="780" y="619" type="line" smooth="yes"/>
      <point x="756" y="617"/>
      <point x="748" y="603"/>
      <point x="741" y="572" type="curve" smooth="yes"/>
      <point x="628" y="78" type="line" smooth="yes"/>
      <point x="626" y="70"/>
      <point x="625" y="62"/>
      <point x="625" y="56" type="curve" smooth="yes"/>
      <point x="625" y="40"/>
      <point x="632" y="32"/>
      <point x="649" y="31" type="curve" smooth="yes"/>
      <point x="704" y="27" type="line"/>
      <point x="698" y="0" type="line"/>
      <point x="441" y="0" type="line"/>
      <point x="446" y="27" type="line"/>
      <point x="498" y="33" type="line" smooth="yes"/>
      <point x="521" y="36"/>
      <point x="530" y="46"/>
      <point x="538" y="78" type="curve" smooth="yes"/>
      <point x="593" y="321" type="line"/>
      <point x="279" y="321" type="line"/>
      <point x="225" y="78" type="line" smooth="yes"/>
      <point x="223" y="69"/>
      <point x="222" y="61"/>
      <point x="222" y="55" type="curve" smooth="yes"/>
      <point x="222" y="40"/>
      <point x="229" y="32"/>
      <point x="245" y="31" type="curve" smooth="yes"/>
      <point x="301" y="27" type="line"/>
      <point x="295" y="0" type="line"/>
    </contour>
  </outline>
</glyph>
<glyph name="I" format="2">
  <advance width="324"/>
  <unicode hex="0049"/>
  <anchor x="331" y="697" name="top"/>
  <anchor x="164" y="-40" name="bottom"/>
  <outline>
    <contour>
      <point x="38" y="0" type="line"/>
      <point x="43" y="27" type="line"/>
      <point x="95" y="33" type="line" smooth="yes"/>
      <point x="118" y="36"/>
      <point x="127" y="48"/>
      <point x="134" y="78" type="curve" smooth="yes"/>
      <point x="247" y="572" type="line" smooth="yes"/>
      <point x="249" y="580"/>
      <point x="250" y="587"/>
      <point x="250" y="593" type="curve" smooth="yes"/>
      <point x="250" y="609"/>
      <point x="243" y="618"/>
      <point x="227" y="619" type="curve" smooth="yes"/>
      <point x="171" y="623" type="line"/>
      <point x="178" y="650" type="line"/>
      <point x="435" y="650" type="line"/>
      <point x="429" y="623" type="line"/>
      <point x="377" y="619" type="line" smooth="yes"/>
      <point x="353" y="617"/>
      <point x="344" y="601"/>
      <point x="337" y="572" type="curve" smooth="yes"/>
      <point x="225" y="78" type="line" smooth="yes"/>
      <point x="223" y="69"/>
      <point x="222" y="62"/>
      <point x="222" y="56" type="curve" smooth="yes"/>
      <point x="222" y="41"/>
      <point x="229" y="32"/>
      <point x="245" y="31" type="curve" smooth="yes"/>
      <point x="301" y="27" type="line"/>
      <point x="295" y="0" type="line"/>
    </contour>
  </outline>
</glyph>
<glyph name="J" format="2">
  <advance width="330"/>
  <unicode hex="004A"/>
  <anchor x="313" y="697" name="top"/>
  <outline>
    <contour>
      <point x="-40" y="-86" type="line"/>
      <point x="96" y="-72"/>
      <point x="123" y="14"/>
      <point x="152" y="135" type="curve" smooth="yes"/>
      <point x="255" y="575" type="line"/>
      <point x="257" y="582"/>
      <point x="258" y="589"/>
      <point x="258" y="594" type="curve" smooth="yes"/>
      <point x="258" y="610"/>
      <point x="250" y="617"/>
      <point x="233" y="619" type="curve"/>
      <point x="178" y="623" type="line"/>
      <point x="184" y="650" type="line"/>
      <point x="443" y="650" type="line"/>
      <point x="436" y="623" type="line"/>
      <point x="384" y="619" type="line" smooth="yes"/>
      <point x="360" y="617"/>
      <point x="352" y="604"/>
      <point x="345" y="575" type="curve" smooth="yes"/>
      <point x="235" y="102" type="line" smooth="yes"/>
      <point x="202" y="-38"/>
      <point x="140" y="-112"/>
      <point x="-9" y="-112" type="curve" smooth="yes"/>
      <point x="-19" y="-112"/>
      <point x="-30" y="-111"/>
      <point x="-40" y="-110" type="curve"/>
    </contour>
  </outline>
</glyph>
<glyph name="K" format="2">
  <advance width="611"/>
  <unicode hex="004B"/>
  <anchor x="485" y="697" name="top"/>
  <anchor x="346" y="-40" name="bottom"/>
  <outline>
    <contour>
      <point x="38" y="0" type="line"/>
      <point x="43" y="27" type="line"/>
      <point x="95" y="33" type="line" smooth="yes"/>
      <point x="118" y="36"/>
      <point x="127" y="48"/>
      <point x="134" y="78" type="curve" smooth="yes"/>
      <point x="247" y="572" type="line" smooth="yes"/>
      <point x="249" y="580"/>
      <point x="250" y="587"/>
      <point x="250" y="593" type="curve" smooth="yes"/>
      <point x="250" y="609"/>
      <point x="243" y="618"/>
      <point x="227" y="619" type="curve" smooth="yes"/>
      <point x="171" y="623" type="line"/>
      <point x="178" y="650" type="line"/>
      <point x="435" y="650" type="line"/>
      <point x="429" y="623" type="line"/>
      <point x="377" y="619" type="line" smooth="yes"/>
      <point x="353" y="617"/>
      <point x="343" y="601"/>
      <point x="337" y="572" type="curve" smooth="yes"/>
      <point x="287" y="348" type="line"/>
      <point x="290" y="348" type="line"/>
      <point x="569" y="589" type="line"/>
      <point x="579" y="597"/>
      <point x="584" y="605"/>
      <point x="584" y="610" type="curve" smooth="yes"/>
      <point x="584" y="615"/>
      <point x="579" y="619"/>
      <point x="570" y="620" type="curve"/>
      <point x="534" y="623" type="line"/>
      <point x="538" y="650" type="line"/>
      <point x="772" y="650" type="line"/>
      <point x="768" y="623" type="line"/>
      <point x="683" y="617"/>
      <point x="642" y="596"/>
      <point x="520" y="496" type="curve" smooth="yes"/>
      <point x="367" y="371" type="line"/>
      <point x="382" y="339" type="line" smooth="yes"/>
      <point x="474" y="143"/>
      <point x="559" y="38"/>
      <point x="632" y="25" type="curve" smooth="yes"/>
      <point x="643" y="23" type="line"/>
      <point x="636" y="-5" type="line"/>
      <point x="590" y="-3" type="line" smooth="yes"/>
      <point x="470" y="2"/>
      <point x="415" y="71"/>
      <point x="297" y="318" type="curve" smooth="yes"/>
      <point x="287" y="339" type="line"/>
      <point x="284" y="339" type="line"/>
      <point x="225" y="78" type="line" smooth="yes"/>
      <point x="223" y="69"/>
      <point x="222" y="62"/>
      <point x="222" y="56" type="curve" smooth="yes"/>
      <point x="222" y="41"/>
      <point x="229" y="32"/>
      <point x="245" y="31" type="curve" smooth="yes"/>
      <point x="301" y="27" type="line"/>
      <point x="295" y="0" type="line"/>
    </contour>
  </outline>
  <guideline angle="257.307" x="337" y="572"/>
  <guideline angle="0" x="0" y="348"/>
</glyph>
<glyph name="L" format="2">
  <advance width="531"/>
  <unicode hex="004C"/>
  <anchor x="359" y="697" name="top"/>
  <anchor x="530" y="743" name="t.r.caron"/>
  <anchor x="310" y="-40" name="bottom"/>
  <outline>
    <contour>
      <point x="38" y="0" type="line"/>
      <point x="43" y="27" type="line"/>
      <point x="95" y="33" type="line" smooth="yes"/>
      <point x="118" y="36"/>
      <point x="126" y="45"/>
      <point x="134" y="78" type="curve" smooth="yes"/>
      <point x="247" y="572" type="line" smooth="yes"/>
      <point x="249" y="581"/>
      <point x="250" y="588"/>
      <point x="250" y="594" type="curve" smooth="yes"/>
      <point x="250" y="610"/>
      <point x="243" y="618"/>
      <point x="227" y="619" type="curve" smooth="yes"/>
      <point x="171" y="623" type="line"/>
      <point x="178" y="650" type="line"/>
      <point x="440" y="650" type="line"/>
      <point x="433" y="623" type="line"/>
      <point x="377" y="619" type="line" smooth="yes"/>
      <point x="353" y="617"/>
      <point x="344" y="603"/>
      <point x="337" y="572" type="curve" smooth="yes"/>
      <point x="232" y="115" type="line"/>
      <point x="227" y="96"/>
      <point x="225" y="82"/>
      <point x="225" y="72" type="curve" smooth="yes"/>
      <point x="225" y="40"/>
      <point x="252" y="33"/>
      <point x="342" y="33" type="curve" smooth="yes"/>
      <point x="448" y="33"/>
      <point x="491" y="49"/>
      <point x="539" y="165" type="curve"/>
      <point x="567" y="165" type="line"/>
      <point x="519" y="0" type="line"/>
    </contour>
  </outline>
</glyph>
<glyph name="M" format="2">
  <advance width="864"/>
  <unicode hex="004D"/>
  <anchor x="543" y="697" name="top"/>
  <anchor x="421" y="-40" name="bottom"/>
  <outline>
    <contour>
      <point x="29" y="0" type="line"/>
      <point x="34" y="27" type="line"/>
      <point x="63" y="30" type="line" smooth="yes"/>
      <point x="110" y="35"/>
      <point x="123" y="67"/>
      <point x="151" y="187" type="curve" smooth="yes"/>
      <point x="240" y="572" type="line" smooth="yes"/>
      <point x="242" y="580"/>
      <point x="243" y="587"/>
      <point x="243" y="593" type="curve" smooth="yes"/>
      <point x="243" y="609"/>
      <point x="235" y="616"/>
      <point x="219" y="618" type="curve"/>
      <point x="164" y="623" type="line"/>
      <point x="170" y="650" type="line"/>
      <point x="352" y="650" type="line"/>
      <point x="459" y="139" type="line"/>
      <point x="462" y="139" type="line"/>
      <point x="791" y="650" type="line"/>
      <point x="975" y="650" type="line"/>
      <point x="968" y="623" type="line"/>
      <point x="916" y="619" type="line" smooth="yes"/>
      <point x="892" y="617"/>
      <point x="885" y="604"/>
      <point x="877" y="572" type="curve" smooth="yes"/>
      <point x="764" y="78" type="line" smooth="yes"/>
      <point x="762" y="70"/>
      <point x="761" y="63"/>
      <point x="761" y="57" type="curve" smooth="yes"/>
      <point x="761" y="42"/>
      <point x="768" y="34"/>
      <point x="785" y="33" type="curve"/>
      <point x="840" y="27" type="line"/>
      <point x="835" y="0" type="line"/>
      <point x="579" y="0" type="line"/>
      <point x="585" y="27" type="line"/>
      <point x="636" y="33" type="line" smooth="yes"/>
      <point x="659" y="36"/>
      <point x="668" y="46"/>
      <point x="676" y="78" type="curve" smooth="yes"/>
      <point x="792" y="570" type="line"/>
      <point x="789" y="570" type="line"/>
      <point x="423" y="11" type="line"/>
      <point x="397" y="11" type="line"/>
      <point x="285" y="570" type="line"/>
      <point x="282" y="570" type="line"/>
      <point x="196" y="187" type="line" smooth="yes"/>
      <point x="178" y="107"/>
      <point x="176" y="90"/>
      <point x="176" y="71" type="curve" smooth="yes"/>
      <point x="176" y="47"/>
      <point x="192" y="32"/>
      <point x="219" y="30" type="curve" smooth="yes"/>
      <point x="256" y="27" type="line"/>
      <point x="251" y="0" type="line"/>
    </contour>
  </outline>
</glyph>
<glyph name="N" format="2">
  <advance width="717"/>
  <unicode hex="004E"/>
  <anchor x="513" y="697" name="top"/>
  <anchor x="370" y="-40" name="bottom"/>
  <outline>
    <contour>
      <point x="29" y="0" type="line"/>
      <point x="34" y="27" type="line"/>
      <point x="63" y="30" type="line" smooth="yes"/>
      <point x="104" y="34"/>
      <point x="124" y="71"/>
      <point x="151" y="187" type="curve" smooth="yes"/>
      <point x="240" y="572" type="line" smooth="yes"/>
      <point x="242" y="580"/>
      <point x="243" y="587"/>
      <point x="243" y="593" type="curve" smooth="yes"/>
      <point x="243" y="609"/>
      <point x="235" y="616"/>
      <point x="219" y="618" type="curve"/>
      <point x="164" y="623" type="line"/>
      <point x="170" y="650" type="line"/>
      <point x="349" y="650" type="line"/>
      <point x="428" y="474"/>
      <point x="508" y="299"/>
      <point x="589" y="123" type="curve"/>
      <point x="593" y="123" type="line"/>
      <point x="670" y="463" type="line" smooth="yes"/>
      <point x="677" y="496"/>
      <point x="690" y="567"/>
      <point x="690" y="587" type="curve" smooth="yes"/>
      <point x="690" y="612"/>
      <point x="674" y="615"/>
      <point x="647" y="619" type="curve"/>
      <point x="610" y="623" type="line"/>
      <point x="615" y="650" type="line"/>
      <point x="837" y="650" type="line"/>
      <point x="832" y="623" type="line"/>
      <point x="803" y="620" type="line" smooth="yes"/>
      <point x="775" y="617"/>
      <point x="758" y="610"/>
      <point x="747" y="580" type="curve" smooth="yes"/>
      <point x="736" y="549"/>
      <point x="725" y="513"/>
      <point x="714" y="463" type="curve" smooth="yes"/>
      <point x="609" y="0" type="line"/>
      <point x="548" y="0" type="line"/>
      <point x="462" y="191"/>
      <point x="375" y="381"/>
      <point x="287" y="572" type="curve"/>
      <point x="284" y="572" type="line"/>
      <point x="196" y="187" type="line" smooth="yes"/>
      <point x="179" y="114"/>
      <point x="176" y="86"/>
      <point x="176" y="63" type="curve" smooth="yes"/>
      <point x="176" y="39"/>
      <point x="192" y="32"/>
      <point x="219" y="30" type="curve" smooth="yes"/>
      <point x="256" y="27" type="line"/>
      <point x="251" y="0" type="line"/>
    </contour>
  </outline>
</glyph>
<glyph name="O" format="2">
  <advance width="707"/>
  <unicode hex="004F"/>
  <anchor x="491" y="697" name="top"/>
  <anchor x="358" y="-40" name="bottom"/>
  <outline>
    <contour>
      <point x="107" y="254" type="curve" smooth="yes"/>
      <point x="107" y="463"/>
      <point x="245" y="665"/>
      <point x="470" y="665" type="curve" smooth="yes"/>
      <point x="625" y="665"/>
      <point x="742" y="582"/>
      <point x="742" y="389" type="curve" smooth="yes"/>
      <point x="742" y="180"/>
      <point x="607" y="-14"/>
      <point x="383" y="-14" type="curve" smooth="yes"/>
      <point x="196" y="-14"/>
      <point x="107" y="99"/>
    </contour>
    <contour>
      <point x="206" y="216" type="curve" smooth="yes"/>
      <point x="206" y="85"/>
      <point x="272" y="19"/>
      <point x="374" y="19" type="curve" smooth="yes"/>
      <point x="573" y="19"/>
      <point x="643" y="276"/>
      <point x="643" y="438" type="curve" smooth="yes"/>
      <point x="643" y="571"/>
      <point x="577" y="632"/>
      <point x="474" y="632" type="curve" smooth="yes"/>
      <point x="282" y="632"/>
      <point x="206" y="372"/>
    </contour>
  </outline>
</glyph>
<glyph name="P" format="2">
  <advance width="577"/>
  <unicode hex="0050"/>
  <anchor x="414" y="697" name="top"/>
  <outline>
    <contour>
      <point x="38" y="0" type="line"/>
      <point x="43" y="27" type="line"/>
      <point x="95" y="33" type="line" smooth="yes"/>
      <point x="118" y="36"/>
      <point x="127" y="46"/>
      <point x="134" y="78" type="curve" smooth="yes"/>
      <point x="247" y="572" type="line" smooth="yes"/>
      <point x="249" y="581"/>
      <point x="250" y="588"/>
      <point x="250" y="594" type="curve" smooth="yes"/>
      <point x="250" y="610"/>
      <point x="243" y="618"/>
      <point x="227" y="619" type="curve" smooth="yes"/>
      <point x="171" y="623" type="line"/>
      <point x="178" y="650" type="line"/>
      <point x="398" y="650" type="line" smooth="yes"/>
      <point x="514" y="650"/>
      <point x="640" y="620"/>
      <point x="640" y="478" type="curve" smooth="yes"/>
      <point x="640" y="306"/>
      <point x="478" y="263"/>
      <point x="337" y="263" type="curve" smooth="yes"/>
      <point x="267" y="263" type="line"/>
      <point x="225" y="78" type="line" smooth="yes"/>
      <point x="223" y="69"/>
      <point x="222" y="62"/>
      <point x="222" y="56" type="curve" smooth="yes"/>
      <point x="222" y="41"/>
      <point x="229" y="34"/>
      <point x="245" y="33" type="curve"/>
      <point x="310" y="27" type="line"/>
      <point x="305" y="0" type="line"/>
    </contour>
    <contour>
      <point x="283" y="336" type="line" smooth="yes"/>
      <point x="281" y="328"/>
      <point x="280" y="321"/>
      <point x="280" y="316" type="curve" smooth="yes"/>
      <point x="280" y="301"/>
      <point x="291" y="296"/>
      <point x="339" y="296" type="curve" smooth="yes"/>
      <point x="466" y="296"/>
      <point x="541" y="360"/>
      <point x="541" y="494" type="curve" smooth="yes"/>
      <point x="541" y="574"/>
      <point x="493" y="618"/>
      <point x="400" y="618" type="curve" smooth="yes"/>
      <point x="352" y="618"/>
      <point x="346" y="609"/>
      <point x="340" y="585" type="curve" smooth="yes"/>
    </contour>
  </outline>
</glyph>
<glyph name="Q" format="2">
  <advance width="707"/>
  <unicode hex="0051"/>
  <outline>
    <contour>
      <point x="107" y="254" type="curve" smooth="yes"/>
      <point x="107" y="463"/>
      <point x="245" y="665"/>
      <point x="470" y="665" type="curve" smooth="yes"/>
      <point x="625" y="665"/>
      <point x="742" y="582"/>
      <point x="742" y="389" type="curve" smooth="yes"/>
      <point x="742" y="207"/>
      <point x="631" y="17"/>
      <point x="440" y="-10" type="curve"/>
      <point x="484" y="-82"/>
      <point x="566" y="-160"/>
      <point x="654" y="-160" type="curve"/>
      <point x="657" y="-176" type="line"/>
      <point x="641" y="-185"/>
      <point x="611" y="-191"/>
      <point x="587" y="-191" type="curve" smooth="yes"/>
      <point x="476" y="-191"/>
      <point x="380" y="-103"/>
      <point x="330" y="-10" type="curve"/>
      <point x="180" y="9"/>
      <point x="107" y="114"/>
    </contour>
    <contour>
      <point x="206" y="216" type="curve" smooth="yes"/>
      <point x="206" y="85"/>
      <point x="272" y="19"/>
      <point x="374" y="19" type="curve" smooth="yes"/>
      <point x="573" y="19"/>
      <point x="643" y="276"/>
      <point x="643" y="438" type="curve" smooth="yes"/>
      <point x="643" y="571"/>
      <point x="577" y="632"/>
      <point x="474" y="632" type="curve" smooth="yes"/>
      <point x="282" y="632"/>
      <point x="206" y="372"/>
    </contour>
  </outline>
</glyph>
<glyph name="R" format="2">
  <advance width="601"/>
  <unicode hex="0052"/>
  <anchor x="430" y="697" name="top"/>
  <anchor x="338" y="-40" name="bottom"/>
  <outline>
    <contour>
      <point x="38" y="0" type="line"/>
      <point x="43" y="27" type="line"/>
      <point x="95" y="33" type="line" smooth="yes"/>
      <point x="118" y="36"/>
      <point x="126" y="45"/>
      <point x="134" y="78" type="curve" smooth="yes"/>
      <point x="247" y="572" type="line" smooth="yes"/>
      <point x="249" y="581"/>
      <point x="250" y="588"/>
      <point x="250" y="594" type="curve" smooth="yes"/>
      <point x="250" y="610"/>
      <point x="243" y="618"/>
      <point x="227" y="619" type="curve" smooth="yes"/>
      <point x="171" y="623" type="line"/>
      <point x="178" y="650" type="line"/>
      <point x="431" y="650" type="line" smooth="yes"/>
      <point x="607" y="650"/>
      <point x="636" y="566"/>
      <point x="636" y="499" type="curve" smooth="yes"/>
      <point x="636" y="406"/>
      <point x="558" y="341"/>
      <point x="443" y="325" type="curve"/>
      <point x="443" y="322" type="line"/>
      <point x="521" y="300"/>
      <point x="529" y="246"/>
      <point x="529" y="180" type="curve" smooth="yes"/>
      <point x="529" y="93"/>
      <point x="534" y="39"/>
      <point x="618" y="27" type="curve"/>
      <point x="609" y="0" type="line"/>
      <point x="536" y="0" type="line" smooth="yes"/>
      <point x="443" y="0"/>
      <point x="437" y="103"/>
      <point x="437" y="186" type="curve" smooth="yes"/>
      <point x="437" y="282"/>
      <point x="417" y="306"/>
      <point x="333" y="306" type="curve" smooth="yes"/>
      <point x="276" y="306" type="line"/>
      <point x="225" y="78" type="line"/>
      <point x="222" y="69"/>
      <point x="221" y="61"/>
      <point x="221" y="55" type="curve" smooth="yes"/>
      <point x="221" y="40"/>
      <point x="228" y="34"/>
      <point x="245" y="32" type="curve"/>
      <point x="301" y="27" type="line"/>
      <point x="295" y="0" type="line"/>
    </contour>
    <contour>
      <point x="284" y="339" type="line"/>
      <point x="344" y="339" type="line" smooth="yes"/>
      <point x="465" y="339"/>
      <point x="538" y="397"/>
      <point x="538" y="509" type="curve" smooth="yes"/>
      <point x="538" y="591"/>
      <point x="481" y="618"/>
      <point x="420" y="618" type="curve" smooth="yes"/>
      <point x="349" y="618"/>
      <point x="345" y="609"/>
      <point x="339" y="582" type="curve" smooth="yes"/>
    </contour>
  </outline>
</glyph>
<glyph name="S" format="2">
  <advance width="501"/>
  <unicode hex="0053"/>
  <anchor x="388" y="697" name="top"/>
  <anchor x="257" y="-40" name="bottom"/>
  <anchor x="305" y="10" name="b.cedilla"/>
  <outline>
    <contour>
      <point x="65" y="63" type="curve"/>
      <point x="89" y="207" type="line"/>
      <point x="117" y="207" type="line"/>
      <point x="117" y="81"/>
      <point x="187" y="19"/>
      <point x="273" y="19" type="curve" smooth="yes"/>
      <point x="367" y="19"/>
      <point x="415" y="88"/>
      <point x="415" y="155" type="curve" smooth="yes"/>
      <point x="415" y="230"/>
      <point x="369" y="269"/>
      <point x="294" y="307" type="curve" smooth="yes"/>
      <point x="218" y="344"/>
      <point x="158" y="390"/>
      <point x="158" y="478" type="curve" smooth="yes"/>
      <point x="158" y="557"/>
      <point x="210" y="665"/>
      <point x="374" y="665" type="curve" smooth="yes"/>
      <point x="432" y="665"/>
      <point x="502" y="649"/>
      <point x="542" y="617" type="curve"/>
      <point x="509" y="485" type="line"/>
      <point x="481" y="485" type="line"/>
      <point x="492" y="582"/>
      <point x="458" y="632"/>
      <point x="368" y="632" type="curve" smooth="yes"/>
      <point x="286" y="632"/>
      <point x="237" y="579"/>
      <point x="237" y="512" type="curve" smooth="yes"/>
      <point x="237" y="441"/>
      <point x="303" y="408"/>
      <point x="358" y="381" type="curve" smooth="yes"/>
      <point x="454" y="334"/>
      <point x="499" y="279"/>
      <point x="499" y="194" type="curve" smooth="yes"/>
      <point x="499" y="93"/>
      <point x="443" y="-14"/>
      <point x="261" y="-14" type="curve" smooth="yes"/>
      <point x="192" y="-14"/>
      <point x="102" y="14"/>
    </contour>
  </outline>
</glyph>
<glyph name="T" format="2">
  <advance width="569"/>
  <unicode hex="0054"/>
  <anchor x="432" y="697" name="top"/>
  <anchor x="282" y="-40" name="bottom"/>
  <anchor x="317" y="10" name="b.cedilla"/>
  <outline>
    <contour>
      <point x="129" y="494" type="line"/>
      <point x="164" y="650" type="line"/>
      <point x="698" y="650" type="line"/>
      <point x="663" y="494" type="line"/>
      <point x="634" y="494" type="line"/>
      <point x="642" y="579"/>
      <point x="644" y="618"/>
      <point x="527" y="618" type="curve" smooth="yes"/>
      <point x="468" y="618" type="line"/>
      <point x="346" y="76" type="line" smooth="yes"/>
      <point x="344" y="68"/>
      <point x="343" y="62"/>
      <point x="343" y="56" type="curve" smooth="yes"/>
      <point x="343" y="40"/>
      <point x="351" y="32"/>
      <point x="370" y="31" type="curve" smooth="yes"/>
      <point x="439" y="27" type="line"/>
      <point x="432" y="0" type="line"/>
      <point x="143" y="0" type="line"/>
      <point x="149" y="27" type="line"/>
      <point x="211" y="31" type="line" smooth="yes"/>
      <point x="239" y="33"/>
      <point x="249" y="47"/>
      <point x="256" y="76" type="curve" smooth="yes"/>
      <point x="378" y="618" type="line"/>
      <point x="313" y="618" type="line" smooth="yes"/>
      <point x="221" y="618"/>
      <point x="187" y="590"/>
      <point x="157" y="494" type="curve"/>
    </contour>
  </outline>
</glyph>
<glyph name="U" format="2">
  <advance width="746"/>
  <unicode hex="0055"/>
  <anchor x="509" y="697" name="top"/>
  <anchor x="509" y="697" name="t.ring"/>
  <anchor x="371" y="-40" name="bottom"/>
  <outline>
    <contour>
      <point x="166" y="241" type="curve" smooth="yes"/>
      <point x="245" y="572" type="line" smooth="yes"/>
      <point x="247" y="581"/>
      <point x="248" y="588"/>
      <point x="248" y="594" type="curve" smooth="yes"/>
      <point x="248" y="610"/>
      <point x="241" y="618"/>
      <point x="225" y="619" type="curve" smooth="yes"/>
      <point x="169" y="623" type="line"/>
      <point x="176" y="650" type="line"/>
      <point x="433" y="650" type="line"/>
      <point x="427" y="623" type="line"/>
      <point x="375" y="619" type="line" smooth="yes"/>
      <point x="351" y="617"/>
      <point x="344" y="604"/>
      <point x="336" y="572" type="curve" smooth="yes"/>
      <point x="261" y="253" type="line" smooth="yes"/>
      <point x="253" y="217"/>
      <point x="249" y="186"/>
      <point x="249" y="159" type="curve" smooth="yes"/>
      <point x="249" y="55"/>
      <point x="307" y="19"/>
      <point x="390" y="19" type="curve" smooth="yes"/>
      <point x="521" y="19"/>
      <point x="567" y="119"/>
      <point x="596" y="244" type="curve" smooth="yes"/>
      <point x="672" y="572" type="line" smooth="yes"/>
      <point x="674" y="580"/>
      <point x="675" y="587"/>
      <point x="675" y="593" type="curve" smooth="yes"/>
      <point x="675" y="609"/>
      <point x="667" y="618"/>
      <point x="651" y="619" type="curve" smooth="yes"/>
      <point x="596" y="623" type="line"/>
      <point x="603" y="650" type="line"/>
      <point x="860" y="650" type="line"/>
      <point x="854" y="623" type="line"/>
      <point x="802" y="619" type="line" smooth="yes"/>
      <point x="778" y="617"/>
      <point x="770" y="604"/>
      <point x="762" y="572" type="curve" smooth="yes"/>
      <point x="682" y="232" type="line" smooth="yes"/>
      <point x="630" y="13"/>
      <point x="513" y="-14"/>
      <point x="385" y="-14" type="curve" smooth="yes"/>
      <point x="249" y="-14"/>
      <point x="156" y="34"/>
      <point x="156" y="161" type="curve" smooth="yes"/>
      <point x="156" y="185"/>
      <point x="159" y="211"/>
    </contour>
  </outline>
</glyph>
<glyph name="V" format="2">
  <advance width="598"/>
  <unicode hex="0056"/>
  <anchor x="448" y="697" name="top"/>
  <anchor x="310" y="-40" name="bottom"/>
  <outline>
    <contour>
      <point x="270" y="0" type="line"/>
      <point x="196" y="574" type="line" smooth="yes"/>
      <point x="192" y="608"/>
      <point x="183" y="617"/>
      <point x="161" y="619" type="curve" smooth="yes"/>
      <point x="123" y="623" type="line"/>
      <point x="128" y="650" type="line"/>
      <point x="363" y="650" type="line"/>
      <point x="358" y="623" type="line"/>
      <point x="298" y="618" type="line" smooth="yes"/>
      <point x="285" y="617"/>
      <point x="281" y="609"/>
      <point x="281" y="598" type="curve" smooth="yes"/>
      <point x="281" y="595"/>
      <point x="282" y="591"/>
      <point x="282" y="587" type="curve"/>
      <point x="343" y="94" type="line"/>
      <point x="346" y="94" type="line"/>
      <point x="623" y="589" type="line"/>
      <point x="627" y="597"/>
      <point x="628" y="603"/>
      <point x="628" y="607" type="curve" smooth="yes"/>
      <point x="628" y="615"/>
      <point x="623" y="618"/>
      <point x="612" y="619" type="curve" smooth="yes"/>
      <point x="560" y="623" type="line"/>
      <point x="565" y="650" type="line"/>
      <point x="772" y="650" type="line"/>
      <point x="767" y="623" type="line"/>
      <point x="717" y="619"/>
      <point x="702" y="615"/>
      <point x="682" y="582" type="curve" smooth="yes"/>
      <point x="335" y="0" type="line"/>
    </contour>
  </outline>
</glyph>
<glyph name="W" format="2">
  <advance width="889"/>
  <unicode hex="0057"/>
  <anchor x="607" y="697" name="top"/>
  <anchor x="445" y="-40" name="bottom"/>
  <outline>
    <contour>
      <point x="224" y="0" type="line"/>
      <point x="182" y="579" type="line" smooth="yes"/>
      <point x="180" y="607"/>
      <point x="176" y="617"/>
      <point x="155" y="619" type="curve" smooth="yes"/>
      <point x="114" y="623" type="line"/>
      <point x="119" y="650" type="line"/>
      <point x="357" y="650" type="line"/>
      <point x="351" y="623" type="line"/>
      <point x="290" y="618" type="line" smooth="yes"/>
      <point x="277" y="617"/>
      <point x="270" y="612"/>
      <point x="270" y="602" type="curve" smooth="yes"/>
      <point x="270" y="597"/>
      <point x="270" y="591"/>
      <point x="271" y="572" type="curve" smooth="yes"/>
      <point x="301" y="115" type="line"/>
      <point x="306" y="115" type="line"/>
      <point x="560" y="634" type="line"/>
      <point x="626" y="634" type="line"/>
      <point x="674" y="115" type="line"/>
      <point x="678" y="115" type="line"/>
      <point x="898" y="585" type="line" smooth="yes"/>
      <point x="902" y="593"/>
      <point x="903" y="599"/>
      <point x="903" y="604" type="curve" smooth="yes"/>
      <point x="903" y="612"/>
      <point x="898" y="616"/>
      <point x="889" y="617" type="curve" smooth="yes"/>
      <point x="828" y="623" type="line"/>
      <point x="833" y="650" type="line"/>
      <point x="1043" y="650" type="line"/>
      <point x="1039" y="623" type="line"/>
      <point x="981" y="617"/>
      <point x="971" y="614"/>
      <point x="948" y="567" type="curve" smooth="yes"/>
      <point x="666" y="0" type="line"/>
      <point x="601" y="0" type="line"/>
      <point x="552" y="518" type="line"/>
      <point x="547" y="518" type="line"/>
      <point x="290" y="0" type="line"/>
    </contour>
  </outline>
  <guideline angle="273.75" x="270" y="588"/>
</glyph>
<glyph name="X" format="2">
  <advance width="594"/>
  <unicode hex="0058"/>
  <anchor x="459" y="697" name="top"/>
  <outline>
    <contour>
      <point x="-1" y="0" type="line"/>
      <point x="5" y="27" type="line"/>
      <point x="63" y="33"/>
      <point x="80" y="36"/>
      <point x="109" y="69" type="curve" smooth="yes"/>
      <point x="331" y="328" type="line"/>
      <point x="224" y="583" type="line" smooth="yes"/>
      <point x="210" y="616"/>
      <point x="192" y="618"/>
      <point x="136" y="623" type="curve"/>
      <point x="142" y="650" type="line"/>
      <point x="386" y="650" type="line"/>
      <point x="381" y="623" type="line"/>
      <point x="332" y="619" type="line" smooth="yes"/>
      <point x="318" y="618"/>
      <point x="312" y="613"/>
      <point x="312" y="603" type="curve" smooth="yes"/>
      <point x="312" y="598"/>
      <point x="313" y="593"/>
      <point x="316" y="586" type="curve" smooth="yes"/>
      <point x="393" y="399" type="line"/>
      <point x="396" y="399" type="line"/>
      <point x="551" y="590" type="line"/>
      <point x="556" y="597"/>
      <point x="558" y="602"/>
      <point x="558" y="607" type="curve" smooth="yes"/>
      <point x="558" y="614"/>
      <point x="553" y="618"/>
      <point x="542" y="619" type="curve" smooth="yes"/>
      <point x="502" y="623" type="line"/>
      <point x="508" y="650" type="line"/>
      <point x="724" y="650" type="line"/>
      <point x="718" y="623" type="line"/>
      <point x="668" y="619"/>
      <point x="647" y="616"/>
      <point x="628" y="596" type="curve" smooth="yes"/>
      <point x="410" y="360" type="line"/>
      <point x="537" y="75" type="line" smooth="yes"/>
      <point x="555" y="35"/>
      <point x="572" y="32"/>
      <point x="634" y="27" type="curve"/>
      <point x="628" y="0" type="line"/>
      <point x="374" y="0" type="line"/>
      <point x="379" y="27" type="line"/>
      <point x="428" y="32" type="line"/>
      <point x="442" y="33"/>
      <point x="448" y="38"/>
      <point x="448" y="48" type="curve" smooth="yes"/>
      <point x="448" y="53"/>
      <point x="447" y="59"/>
      <point x="444" y="66" type="curve" smooth="yes"/>
      <point x="350" y="287" type="line"/>
      <point x="346" y="287" type="line"/>
      <point x="167" y="46" type="line"/>
      <point x="166" y="45"/>
      <point x="166" y="44"/>
      <point x="166" y="43" type="curve" smooth="yes"/>
      <point x="166" y="38"/>
      <point x="175" y="34"/>
      <point x="185" y="33" type="curve" smooth="yes"/>
      <point x="239" y="27" type="line"/>
      <point x="233" y="0" type="line"/>
    </contour>
  </outline>
</glyph>
<glyph name="Y" format="2">
  <advance width="555"/>
  <unicode hex="0059"/>
  <anchor x="449" y="697" name="top"/>
  <anchor x="284" y="-40" name="bottom"/>
  <outline>
    <contour>
      <point x="146" y="0" type="line"/>
      <point x="151" y="27" type="line"/>
      <point x="219" y="34" type="line" smooth="yes"/>
      <point x="243" y="37"/>
      <point x="252" y="47"/>
      <point x="258" y="73" type="curve" smooth="yes"/>
      <point x="293" y="231" type="line" smooth="yes"/>
      <point x="295" y="241"/>
      <point x="297" y="250"/>
      <point x="297" y="258" type="curve" smooth="yes"/>
      <point x="297" y="266"/>
      <point x="296" y="273"/>
      <point x="293" y="281" type="curve"/>
      <point x="201" y="580" type="line" smooth="yes"/>
      <point x="190" y="617"/>
      <point x="182" y="618"/>
      <point x="123" y="623" type="curve"/>
      <point x="129" y="650" type="line"/>
      <point x="363" y="650" type="line"/>
      <point x="357" y="623" type="line"/>
      <point x="306" y="619" type="line" smooth="yes"/>
      <point x="292" y="618"/>
      <point x="287" y="611"/>
      <point x="287" y="601" type="curve" smooth="yes"/>
      <point x="287" y="598"/>
      <point x="287" y="595"/>
      <point x="288" y="591" type="curve"/>
      <point x="373" y="303" type="line"/>
      <point x="376" y="303" type="line"/>
      <point x="574" y="592" type="line" smooth="yes"/>
      <point x="578" y="598"/>
      <point x="578" y="602"/>
      <point x="578" y="606" type="curve" smooth="yes"/>
      <point x="578" y="613"/>
      <point x="573" y="618"/>
      <point x="560" y="619" type="curve" smooth="yes"/>
      <point x="511" y="623" type="line"/>
      <point x="517" y="650" type="line"/>
      <point x="732" y="650" type="line"/>
      <point x="727" y="623" type="line"/>
      <point x="673" y="619"/>
      <point x="658" y="617"/>
      <point x="628" y="575" type="curve" smooth="yes"/>
      <point x="385" y="232" type="line"/>
      <point x="350" y="73" type="line"/>
      <point x="348" y="66"/>
      <point x="348" y="60"/>
      <point x="348" y="55" type="curve" smooth="yes"/>
      <point x="348" y="41"/>
      <point x="354" y="34"/>
      <point x="371" y="33" type="curve" smooth="yes"/>
      <point x="443" y="27" type="line"/>
      <point x="437" y="0" type="line"/>
    </contour>
  </outline>
</glyph>
<glyph name="Z" format="2">
  <advance width="584"/>
  <unicode hex="005A"/>
  <anchor x="471" y="697" name="top"/>
  <anchor x="290" y="-40" name="bottom"/>
  <outline>
    <contour>
      <point x="14" y="12" type="line"/>
      <point x="562" y="618" type="line"/>
      <point x="379" y="618" type="line" smooth="yes"/>
      <point x="275" y="618"/>
      <point x="244" y="601"/>
      <point x="205" y="492" type="curve"/>
      <point x="177" y="492" type="line"/>
      <point x="212" y="650" type="line"/>
      <point x="689" y="650" type="line"/>
      <point x="694" y="638" type="line"/>
      <point x="145" y="33" type="line"/>
      <point x="336" y="33" type="line" smooth="yes"/>
      <point x="485" y="33"/>
      <point x="524" y="49"/>
      <point x="574" y="165" type="curve"/>
      <point x="603" y="165" type="line"/>
      <point x="555" y="0" type="line"/>
      <point x="18" y="0" type="line"/>
    </contour>
  </outline>
</glyph>
<glyph name="bracketleft" format="2">
  <advance width="330"/>
  <unicode hex="005B"/>
  <outline>
    <contour>
      <point x="44" y="-189" type="line"/>
      <point x="257" y="745" type="line"/>
      <point x="438" y="745" type="line"/>
      <point x="432" y="715" type="line"/>
      <point x="373" y="710" type="line" smooth="yes"/>
      <point x="324" y="706"/>
      <point x="317" y="690"/>
      <point x="308" y="652" type="curve" smooth="yes"/>
      <point x="137" y="-96" type="line"/>
      <point x="135" y="-107"/>
      <point x="133" y="-116"/>
      <point x="133" y="-123" type="curve" smooth="yes"/>
      <point x="133" y="-141"/>
      <point x="143" y="-151"/>
      <point x="179" y="-154" type="curve" smooth="yes"/>
      <point x="231" y="-159" type="line"/>
      <point x="225" y="-189" type="line"/>
    </contour>
  </outline>
</glyph>
<glyph name="backslash" format="2">
  <advance width="366"/>
  <unicode hex="005C"/>
  <outline>
    <contour>
      <point x="315" y="-14" type="line"/>
      <point x="117" y="665" type="line"/>
      <point x="183" y="665" type="line"/>
      <point x="382" y="-14" type="line"/>
    </contour>
  </outline>
</glyph>
<glyph name="bracketright" format="2">
  <advance width="330"/>
  <unicode hex="005D"/>
  <outline>
    <contour>
      <point x="19" y="-189" type="line"/>
      <point x="25" y="-159" type="line"/>
      <point x="68" y="-156" type="line" smooth="yes"/>
      <point x="132" y="-152"/>
      <point x="140" y="-138"/>
      <point x="149" y="-96" type="curve" smooth="yes"/>
      <point x="320" y="652" type="line" smooth="yes"/>
      <point x="323" y="664"/>
      <point x="324" y="673"/>
      <point x="324" y="680" type="curve" smooth="yes"/>
      <point x="324" y="699"/>
      <point x="312" y="707"/>
      <point x="270" y="711" type="curve" smooth="yes"/>
      <point x="226" y="715" type="line"/>
      <point x="232" y="745" type="line"/>
      <point x="413" y="745" type="line"/>
      <point x="201" y="-189" type="line"/>
    </contour>
  </outline>
</glyph>
<glyph name="asciicircum" format="2">
  <advance width="535"/>
  <unicode hex="005E"/>
  <outline>
    <contour>
      <point x="111" y="214" type="line"/>
      <point x="295" y="628" type="line"/>
      <point x="368" y="628" type="line"/>
      <point x="547" y="214" type="line"/>
      <point x="476" y="214" type="line"/>
      <point x="331" y="559" type="line"/>
      <point x="182" y="214" type="line"/>
    </contour>
  </outline>
</glyph>
<glyph name="grave" format="2">
  <advance width="376"/>
  <unicode hex="0060"/>
  <outline>
    <contour>
      <point x="200" y="639" type="curve" smooth="yes"/>
      <point x="200" y="658"/>
      <point x="223" y="680"/>
      <point x="237" y="680" type="curve" smooth="yes"/>
      <point x="253" y="680"/>
      <point x="269" y="670"/>
      <point x="297" y="641" type="curve" smooth="yes"/>
      <point x="409" y="528" type="line"/>
      <point x="395" y="509" type="line"/>
      <point x="253" y="588" type="line" smooth="yes"/>
      <point x="225" y="603"/>
      <point x="200" y="619"/>
    </contour>
  </outline>
</glyph>
<glyph name="a" format="2">
  <advance width="527"/>
  <unicode hex="0061"/>
  <anchor x="398" y="509" name="top"/>
  <anchor x="398" y="509" name="t.ring"/>
  <anchor x="447" y="0" name="b.ogonek"/>
  <anchor x="257" y="-40" name="bottom"/>
  <outline>
    <contour>
      <point x="62" y="101" type="curve" smooth="yes"/>
      <point x="62" y="225"/>
      <point x="169" y="472"/>
      <point x="393" y="472" type="curve" smooth="yes"/>
      <point x="418" y="472"/>
      <point x="446" y="463"/>
      <point x="462" y="452" type="curve"/>
      <point x="466" y="464" type="line"/>
      <point x="545" y="464" type="line"/>
      <point x="446" y="89" type="line"/>
      <point x="443" y="76"/>
      <point x="440" y="65"/>
      <point x="440" y="56" type="curve" smooth="yes"/>
      <point x="440" y="45"/>
      <point x="444" y="38"/>
      <point x="455" y="38" type="curve" smooth="yes"/>
      <point x="481" y="38"/>
      <point x="523" y="104"/>
      <point x="540" y="137" type="curve"/>
      <point x="562" y="124" type="line"/>
      <point x="530" y="53"/>
      <point x="477" y="-11"/>
      <point x="406" y="-11" type="curve" smooth="yes"/>
      <point x="371" y="-11"/>
      <point x="355" y="7"/>
      <point x="355" y="40" type="curve" smooth="yes"/>
      <point x="355" y="55"/>
      <point x="359" y="73"/>
      <point x="365" y="94" type="curve" smooth="yes"/>
      <point x="397" y="201" type="line"/>
      <point x="394" y="201" type="line"/>
      <point x="338" y="105"/>
      <point x="253" y="-11"/>
      <point x="152" y="-11" type="curve" smooth="yes"/>
      <point x="88" y="-11"/>
      <point x="62" y="45"/>
    </contour>
    <contour>
      <point x="155" y="103" type="curve" smooth="yes"/>
      <point x="155" y="66"/>
      <point x="165" y="38"/>
      <point x="196" y="38" type="curve" smooth="yes"/>
      <point x="311" y="38"/>
      <point x="429" y="325"/>
      <point x="452" y="418" type="curve"/>
      <point x="438" y="431"/>
      <point x="418" y="439"/>
      <point x="395" y="439" type="curve" smooth="yes"/>
      <point x="247" y="439"/>
      <point x="155" y="206"/>
    </contour>
  </outline>
</glyph>
<glyph name="b" format="2">
  <advance width="525"/>
  <unicode hex="0062"/>
  <anchor x="432" y="697" name="top"/>
  <anchor x="277" y="-40" name="bottom"/>
  <outline>
    <contour>
      <point x="77" y="0" type="line"/>
      <point x="215" y="601" type="line" smooth="yes"/>
      <point x="218" y="613"/>
      <point x="219" y="622"/>
      <point x="219" y="628" type="curve" smooth="yes"/>
      <point x="219" y="642"/>
      <point x="212" y="645"/>
      <point x="196" y="647" type="curve" smooth="yes"/>
      <point x="143" y="653" type="line"/>
      <point x="149" y="675" type="line"/>
      <point x="317" y="697" type="line"/>
      <point x="321" y="693" type="line"/>
      <point x="217" y="278" type="line"/>
      <point x="220" y="278" type="line"/>
      <point x="293" y="407"/>
      <point x="385" y="472"/>
      <point x="456" y="472" type="curve" smooth="yes"/>
      <point x="526" y="472"/>
      <point x="556" y="423"/>
      <point x="556" y="353" type="curve" smooth="yes"/>
      <point x="556" y="193"/>
      <point x="433" y="-11"/>
      <point x="258" y="-11" type="curve" smooth="yes"/>
      <point x="204" y="-11"/>
      <point x="157" y="16"/>
      <point x="140" y="55" type="curve"/>
      <point x="111" y="0" type="line"/>
    </contour>
    <contour>
      <point x="193" y="102" type="curve" smooth="yes"/>
      <point x="193" y="55"/>
      <point x="222" y="22"/>
      <point x="270" y="22" type="curve" smooth="yes"/>
      <point x="408" y="22"/>
      <point x="464" y="277"/>
      <point x="464" y="345" type="curve" smooth="yes"/>
      <point x="464" y="399"/>
      <point x="449" y="423"/>
      <point x="414" y="423" type="curve" smooth="yes"/>
      <point x="307" y="423"/>
      <point x="193" y="201"/>
    </contour>
  </outline>
</glyph>
<glyph name="c" format="2">
  <advance width="414"/>
  <unicode hex="0063"/>
  <anchor x="259" y="10" name="b.cedilla"/>
  <anchor x="349" y="509" name="top"/>
  <outline>
    <contour>
      <point x="76" y="139" type="curve" smooth="yes"/>
      <point x="76" y="293"/>
      <point x="182" y="472"/>
      <point x="349" y="472" type="curve" smooth="yes"/>
      <point x="419" y="472"/>
      <point x="470" y="436"/>
      <point x="470" y="388" type="curve" smooth="yes"/>
      <point x="470" y="357"/>
      <point x="433" y="336"/>
      <point x="410" y="336" type="curve" smooth="yes"/>
      <point x="393" y="336"/>
      <point x="385" y="347"/>
      <point x="383" y="364" type="curve" smooth="yes"/>
      <point x="377" y="420"/>
      <point x="356" y="439"/>
      <point x="326" y="439" type="curve" smooth="yes"/>
      <point x="240" y="439"/>
      <point x="169" y="280"/>
      <point x="169" y="158" type="curve" smooth="yes"/>
      <point x="169" y="91"/>
      <point x="183" y="35"/>
      <point x="252" y="35" type="curve" smooth="yes"/>
      <point x="315" y="35"/>
      <point x="370" y="102"/>
      <point x="402" y="145" type="curve"/>
      <point x="425" y="127" type="line"/>
      <point x="360" y="19"/>
      <point x="281" y="-11"/>
      <point x="211" y="-11" type="curve" smooth="yes"/>
      <point x="145" y="-11"/>
      <point x="76" y="24"/>
    </contour>
  </outline>
</glyph>
<glyph name="d" format="2">
  <advance width="551"/>
  <unicode hex="0064"/>
  <anchor x="641" y="743" name="t.r.caron"/>
  <anchor x="277" y="-40" name="bottom"/>
  <anchor x="395" y="697" name="top"/>
  <anchor x="299" y="10" name="b.cedilla"/>
  <outline>
    <contour>
      <point x="68" y="113" type="curve" smooth="yes"/>
      <point x="68" y="227"/>
      <point x="168" y="472"/>
      <point x="387" y="472" type="curve" smooth="yes"/>
      <point x="419" y="472"/>
      <point x="448" y="465"/>
      <point x="466" y="456" type="curve"/>
      <point x="468" y="458" type="line"/>
      <point x="504" y="609" type="line"/>
      <point x="506" y="619"/>
      <point x="508" y="626"/>
      <point x="508" y="632" type="curve" smooth="yes"/>
      <point x="508" y="643"/>
      <point x="502" y="647"/>
      <point x="487" y="648" type="curve" smooth="yes"/>
      <point x="431" y="653" type="line"/>
      <point x="436" y="675" type="line"/>
      <point x="603" y="697" type="line"/>
      <point x="608" y="693" type="line"/>
      <point x="460" y="89" type="line" smooth="yes"/>
      <point x="457" y="76"/>
      <point x="454" y="65"/>
      <point x="454" y="56" type="curve" smooth="yes"/>
      <point x="454" y="45"/>
      <point x="458" y="38"/>
      <point x="469" y="38" type="curve" smooth="yes"/>
      <point x="495" y="38"/>
      <point x="537" y="104"/>
      <point x="554" y="137" type="curve"/>
      <point x="576" y="124" type="line"/>
      <point x="544" y="53"/>
      <point x="492" y="-11"/>
      <point x="423" y="-11" type="curve" smooth="yes"/>
      <point x="389" y="-11"/>
      <point x="372" y="8"/>
      <point x="372" y="43" type="curve" smooth="yes"/>
      <point x="372" y="57"/>
      <point x="375" y="74"/>
      <point x="380" y="93" type="curve" smooth="yes"/>
      <point x="411" y="205" type="line"/>
      <point x="408" y="205" type="line"/>
      <point x="352" y="104"/>
      <point x="270" y="-11"/>
      <point x="162" y="-11" type="curve" smooth="yes"/>
      <point x="86" y="-11"/>
      <point x="68" y="52"/>
    </contour>
    <contour>
      <point x="161" y="105" type="curve" smooth="yes"/>
      <point x="161" y="63"/>
      <point x="178" y="38"/>
      <point x="208" y="38" type="curve" smooth="yes"/>
      <point x="327" y="38"/>
      <point x="439" y="324"/>
      <point x="458" y="420" type="curve"/>
      <point x="447" y="430"/>
      <point x="422" y="439"/>
      <point x="393" y="439" type="curve" smooth="yes"/>
      <point x="243" y="439"/>
      <point x="161" y="207"/>
    </contour>
  </outline>
</glyph>
<glyph name="e" format="2">
  <advance width="425"/>
  <unicode hex="0065"/>
  <anchor x="354" y="509" name="top"/>
  <anchor x="268" y="0" name="b.ogonek"/>
  <anchor x="277" y="-40" name="bottom"/>
  <outline>
    <contour>
      <point x="75" y="143" type="curve" smooth="yes"/>
      <point x="75" y="299"/>
      <point x="190" y="472"/>
      <point x="359" y="472" type="curve" smooth="yes"/>
      <point x="436" y="472"/>
      <point x="476" y="428"/>
      <point x="476" y="378" type="curve" smooth="yes"/>
      <point x="476" y="246"/>
      <point x="265" y="199"/>
      <point x="169" y="180" type="curve"/>
      <point x="169" y="165" type="line" smooth="yes"/>
      <point x="169" y="91"/>
      <point x="188" y="35"/>
      <point x="254" y="35" type="curve" smooth="yes"/>
      <point x="324" y="35"/>
      <point x="375" y="98"/>
      <point x="409" y="142" type="curve"/>
      <point x="431" y="123" type="line"/>
      <point x="367" y="19"/>
      <point x="284" y="-11"/>
      <point x="215" y="-11" type="curve" smooth="yes"/>
      <point x="160" y="-11"/>
      <point x="75" y="11"/>
    </contour>
    <contour>
      <point x="171" y="212" type="curve"/>
      <point x="330" y="246"/>
      <point x="387" y="318"/>
      <point x="387" y="384" type="curve" smooth="yes"/>
      <point x="387" y="417"/>
      <point x="366" y="439"/>
      <point x="333" y="439" type="curve" smooth="yes"/>
      <point x="258" y="439"/>
      <point x="187" y="326"/>
    </contour>
  </outline>
</glyph>
<glyph name="f" format="2">
  <advance width="296"/>
  <unicode hex="0066"/>
  <anchor x="392" y="717" name="top"/>
  <outline>
    <contour>
      <point x="-68" y="-173" type="curve" smooth="yes"/>
      <point x="-68" y="-149"/>
      <point x="-48" y="-126"/>
      <point x="-27" y="-126" type="curve" smooth="yes"/>
      <point x="-15" y="-126"/>
      <point x="-6" y="-138"/>
      <point x="0" y="-147" type="curve" smooth="yes"/>
      <point x="26" y="-186"/>
      <point x="40" y="-193"/>
      <point x="50" y="-193" type="curve" smooth="yes"/>
      <point x="59" y="-193"/>
      <point x="69" y="-187"/>
      <point x="80" y="-129" type="curve" smooth="yes"/>
      <point x="189" y="425" type="line"/>
      <point x="105" y="425" type="line"/>
      <point x="116" y="461" type="line"/>
      <point x="197" y="461" type="line"/>
      <point x="207" y="495" type="line" smooth="yes"/>
      <point x="236" y="594"/>
      <point x="281" y="697"/>
      <point x="400" y="697" type="curve" smooth="yes"/>
      <point x="456" y="697"/>
      <point x="507" y="664"/>
      <point x="507" y="624" type="curve" smooth="yes"/>
      <point x="507" y="600"/>
      <point x="480" y="583"/>
      <point x="461" y="583" type="curve" smooth="yes"/>
      <point x="447" y="583"/>
      <point x="439" y="590"/>
      <point x="435" y="599" type="curve"/>
      <point x="413" y="644"/>
      <point x="397" y="665"/>
      <point x="372" y="665" type="curve" smooth="yes"/>
      <point x="346" y="665"/>
      <point x="328" y="638"/>
      <point x="310" y="567" type="curve" smooth="yes"/>
      <point x="284" y="461" type="line"/>
      <point x="406" y="461" type="line"/>
      <point x="397" y="425" type="line"/>
      <point x="278" y="425" type="line"/>
      <point x="191" y="29" type="line" smooth="yes"/>
      <point x="152" y="-151"/>
      <point x="112" y="-227"/>
      <point x="18" y="-227" type="curve" smooth="yes"/>
      <point x="-26" y="-227"/>
      <point x="-68" y="-204"/>
    </contour>
  </outline>
</glyph>
<glyph name="g" format="2">
  <advance width="469"/>
  <unicode hex="0067"/>
  <anchor x="328" y="509" name="top"/>
  <outline>
    <contour>
      <point x="28" y="-90" type="curve" smooth="yes"/>
      <point x="28" y="-12"/>
      <point x="109" y="27"/>
      <point x="173" y="38" type="curve"/>
      <point x="173" y="41" type="line"/>
      <point x="134" y="59"/>
      <point x="106" y="80"/>
      <point x="106" y="111" type="curve" smooth="yes"/>
      <point x="106" y="149"/>
      <point x="162" y="171"/>
      <point x="192" y="181" type="curve"/>
      <point x="192" y="184" type="line"/>
      <point x="164" y="194"/>
      <point x="113" y="229"/>
      <point x="113" y="299" type="curve" smooth="yes"/>
      <point x="113" y="366"/>
      <point x="159" y="472"/>
      <point x="313" y="472" type="curve" smooth="yes"/>
      <point x="359" y="472"/>
      <point x="406" y="460"/>
      <point x="430" y="444" type="curve"/>
      <point x="566" y="481" type="line"/>
      <point x="572" y="473" type="line"/>
      <point x="540" y="414" type="line"/>
      <point x="462" y="402" type="line"/>
      <point x="474" y="386"/>
      <point x="481" y="362"/>
      <point x="481" y="337" type="curve" smooth="yes"/>
      <point x="481" y="240"/>
      <point x="409" y="169"/>
      <point x="278" y="169" type="curve" smooth="yes"/>
      <point x="264" y="169"/>
      <point x="246" y="169"/>
      <point x="227" y="172" type="curve"/>
      <point x="204" y="166"/>
      <point x="186" y="153"/>
      <point x="186" y="135" type="curve" smooth="yes"/>
      <point x="186" y="109"/>
      <point x="221" y="96"/>
      <point x="300" y="77" type="curve" smooth="yes"/>
      <point x="411" y="51"/>
      <point x="464" y="0"/>
      <point x="464" y="-70" type="curve" smooth="yes"/>
      <point x="464" y="-173"/>
      <point x="362" y="-227"/>
      <point x="235" y="-227" type="curve" smooth="yes"/>
      <point x="116" y="-227"/>
      <point x="28" y="-174"/>
    </contour>
    <contour>
      <point x="115" y="-82" type="curve" smooth="yes"/>
      <point x="115" y="-150"/>
      <point x="174" y="-195"/>
      <point x="256" y="-195" type="curve" smooth="yes"/>
      <point x="326" y="-195"/>
      <point x="384" y="-159"/>
      <point x="384" y="-88" type="curve" smooth="yes"/>
      <point x="384" y="-9"/>
      <point x="273" y="16"/>
      <point x="214" y="24" type="curve"/>
      <point x="175" y="18"/>
      <point x="115" y="-14"/>
    </contour>
    <contour>
      <point x="201" y="283" type="curve" smooth="yes"/>
      <point x="201" y="236"/>
      <point x="229" y="202"/>
      <point x="279" y="202" type="curve" smooth="yes"/>
      <point x="349" y="202"/>
      <point x="395" y="273"/>
      <point x="395" y="360" type="curve" smooth="yes"/>
      <point x="395" y="425"/>
      <point x="348" y="439"/>
      <point x="320" y="439" type="curve" smooth="yes"/>
      <point x="231" y="439"/>
      <point x="201" y="342"/>
    </contour>
  </outline>
</glyph>
<glyph name="h" format="2">
  <advance width="570"/>
  <unicode hex="0068"/>
  <anchor x="451" y="697" name="top"/>
  <anchor x="289" y="-40" name="bottom"/>
  <outline>
    <contour>
      <point x="86" y="-11" type="line"/>
      <point x="224" y="601" type="line" smooth="yes"/>
      <point x="227" y="613"/>
      <point x="228" y="622"/>
      <point x="228" y="628" type="curve" smooth="yes"/>
      <point x="228" y="642"/>
      <point x="221" y="645"/>
      <point x="205" y="647" type="curve" smooth="yes"/>
      <point x="151" y="653" type="line"/>
      <point x="157" y="675" type="line"/>
      <point x="326" y="697" type="line"/>
      <point x="331" y="693" type="line"/>
      <point x="226" y="262" type="line"/>
      <point x="229" y="262" type="line"/>
      <point x="289" y="375"/>
      <point x="389" y="472"/>
      <point x="478" y="472" type="curve" smooth="yes"/>
      <point x="532" y="472"/>
      <point x="553" y="441"/>
      <point x="553" y="397" type="curve" smooth="yes"/>
      <point x="553" y="379"/>
      <point x="550" y="358"/>
      <point x="543" y="336" type="curve" smooth="yes"/>
      <point x="469" y="89" type="line" smooth="yes"/>
      <point x="465" y="76"/>
      <point x="463" y="65"/>
      <point x="463" y="56" type="curve" smooth="yes"/>
      <point x="463" y="44"/>
      <point x="467" y="38"/>
      <point x="478" y="38" type="curve" smooth="yes"/>
      <point x="504" y="38"/>
      <point x="546" y="104"/>
      <point x="563" y="137" type="curve"/>
      <point x="586" y="124" type="line"/>
      <point x="554" y="53"/>
      <point x="501" y="-11"/>
      <point x="436" y="-11" type="curve" smooth="yes"/>
      <point x="397" y="-11"/>
      <point x="379" y="9"/>
      <point x="379" y="44" type="curve" smooth="yes"/>
      <point x="379" y="57"/>
      <point x="382" y="73"/>
      <point x="387" y="90" type="curve" smooth="yes"/>
      <point x="464" y="357" type="line" smooth="yes"/>
      <point x="467" y="367"/>
      <point x="468" y="376"/>
      <point x="468" y="384" type="curve" smooth="yes"/>
      <point x="468" y="408"/>
      <point x="456" y="423"/>
      <point x="434" y="423" type="curve" smooth="yes"/>
      <point x="352" y="423"/>
      <point x="259" y="280"/>
      <point x="231" y="207" type="curve" smooth="yes"/>
      <point x="207" y="148"/>
      <point x="193" y="96"/>
      <point x="168" y="0" type="curve"/>
    </contour>
  </outline>
</glyph>
<glyph name="i" format="2">
  <advance width="297"/>
  <unicode hex="0069"/>
  <anchor x="147" y="-40" name="bottom"/>
  <outline>
    <contour>
      <point x="229" y="610" type="curve" smooth="yes"/>
      <point x="229" y="640"/>
      <point x="250" y="672"/>
      <point x="290" y="672" type="curve" smooth="yes"/>
      <point x="316" y="672"/>
      <point x="341" y="657"/>
      <point x="341" y="620" type="curve" smooth="yes"/>
      <point x="341" y="582"/>
      <point x="318" y="557"/>
      <point x="281" y="557" type="curve" smooth="yes"/>
      <point x="253" y="557"/>
      <point x="229" y="575"/>
    </contour>
    <contour>
      <point x="108" y="43" type="curve" smooth="yes"/>
      <point x="108" y="54"/>
      <point x="109" y="67"/>
      <point x="113" y="81" type="curve" smooth="yes"/>
      <point x="192" y="375" type="line"/>
      <point x="195" y="385"/>
      <point x="196" y="393"/>
      <point x="196" y="399" type="curve" smooth="yes"/>
      <point x="196" y="412"/>
      <point x="189" y="416"/>
      <point x="172" y="418" type="curve" smooth="yes"/>
      <point x="118" y="423" type="line"/>
      <point x="124" y="446" type="line"/>
      <point x="295" y="472" type="line"/>
      <point x="300" y="467" type="line"/>
      <point x="197" y="89" type="line" smooth="yes"/>
      <point x="194" y="77"/>
      <point x="192" y="65"/>
      <point x="192" y="57" type="curve" smooth="yes"/>
      <point x="192" y="45"/>
      <point x="196" y="38"/>
      <point x="207" y="38" type="curve" smooth="yes"/>
      <point x="233" y="38"/>
      <point x="274" y="104"/>
      <point x="291" y="137" type="curve"/>
      <point x="314" y="124" type="line"/>
      <point x="282" y="53"/>
      <point x="230" y="-11"/>
      <point x="162" y="-11" type="curve" smooth="yes"/>
      <point x="124" y="-11"/>
      <point x="108" y="10"/>
    </contour>
  </outline>
</glyph>
<glyph name="j" format="2">
  <advance width="290"/>
  <unicode hex="006A"/>
  <outline>
    <contour>
      <point x="231" y="610" type="curve" smooth="yes"/>
      <point x="231" y="640"/>
      <point x="252" y="672"/>
      <point x="292" y="672" type="curve" smooth="yes"/>
      <point x="318" y="672"/>
      <point x="343" y="657"/>
      <point x="343" y="620" type="curve" smooth="yes"/>
      <point x="343" y="582"/>
      <point x="320" y="557"/>
      <point x="283" y="557" type="curve" smooth="yes"/>
      <point x="255" y="557"/>
      <point x="231" y="575"/>
    </contour>
    <contour>
      <point x="-56" y="-173" type="curve" smooth="yes"/>
      <point x="-56" y="-149"/>
      <point x="-39" y="-126"/>
      <point x="-18" y="-126" type="curve" smooth="yes"/>
      <point x="-6" y="-126"/>
      <point x="4" y="-137"/>
      <point x="10" y="-145" type="curve"/>
      <point x="35" y="-183"/>
      <point x="53" y="-195"/>
      <point x="64" y="-195" type="curve" smooth="yes"/>
      <point x="75" y="-195"/>
      <point x="82" y="-183"/>
      <point x="86" y="-165" type="curve" smooth="yes"/>
      <point x="200" y="371" type="line" smooth="yes"/>
      <point x="203" y="384"/>
      <point x="205" y="394"/>
      <point x="205" y="401" type="curve" smooth="yes"/>
      <point x="205" y="412"/>
      <point x="200" y="417"/>
      <point x="186" y="418" type="curve" smooth="yes"/>
      <point x="128" y="423" type="line"/>
      <point x="133" y="446" type="line"/>
      <point x="302" y="472" type="line"/>
      <point x="306" y="467" type="line"/>
      <point x="200" y="-3" type="line" smooth="yes"/>
      <point x="179" y="-95"/>
      <point x="150" y="-227"/>
      <point x="33" y="-227" type="curve" smooth="yes"/>
      <point x="-16" y="-227"/>
      <point x="-56" y="-204"/>
    </contour>
  </outline>
</glyph>
<glyph name="k" format="2">
  <advance width="512"/>
  <unicode hex="006B"/>
  <anchor x="459" y="697" name="top"/>
  <anchor x="276" y="-40" name="bottom"/>
  <outline>
    <contour>
      <point x="86" y="-11" type="line"/>
      <point x="232" y="601" type="line" smooth="yes"/>
      <point x="235" y="613"/>
      <point x="236" y="622"/>
      <point x="236" y="628" type="curve" smooth="yes"/>
      <point x="236" y="642"/>
      <point x="229" y="645"/>
      <point x="213" y="647" type="curve" smooth="yes"/>
      <point x="160" y="653" type="line"/>
      <point x="165" y="675" type="line"/>
      <point x="334" y="697" type="line"/>
      <point x="338" y="693" type="line"/>
      <point x="173" y="0" type="line"/>
    </contour>
    <contour>
      <point x="517" y="472" type="curve" smooth="yes"/>
      <point x="554" y="472"/>
      <point x="566" y="451"/>
      <point x="566" y="426" type="curve" smooth="yes"/>
      <point x="566" y="402"/>
      <point x="546" y="375"/>
      <point x="520" y="375" type="curve" smooth="yes"/>
      <point x="510" y="375"/>
      <point x="501" y="379"/>
      <point x="494" y="383" type="curve" smooth="yes"/>
      <point x="472" y="396"/>
      <point x="461" y="400"/>
      <point x="447" y="400" type="curve" smooth="yes"/>
      <point x="413" y="400"/>
      <point x="340" y="320"/>
      <point x="314" y="290" type="curve"/>
      <point x="325" y="253"/>
      <point x="394" y="40"/>
      <point x="437" y="40" type="curve" smooth="yes"/>
      <point x="462" y="40"/>
      <point x="486" y="77"/>
      <point x="512" y="133" type="curve"/>
      <point x="536" y="121" type="line"/>
      <point x="508" y="42"/>
      <point x="466" y="-11"/>
      <point x="406" y="-11" type="curve" smooth="yes"/>
      <point x="361" y="-11"/>
      <point x="333" y="18"/>
      <point x="306" y="78" type="curve" smooth="yes"/>
      <point x="280" y="135"/>
      <point x="258" y="191"/>
      <point x="240" y="251" type="curve"/>
      <point x="291" y="313"/>
      <point x="432" y="472"/>
    </contour>
  </outline>
</glyph>
<glyph name="l" format="2">
  <advance width="287"/>
  <unicode hex="006C"/>
  <anchor x="296" y="717" name="top"/>
  <anchor x="356" y="743" name="t.r.caron"/>
  <anchor x="164" y="-40" name="bottom"/>
  <outline>
    <contour>
      <point x="104" y="44" type="curve" smooth="yes"/>
      <point x="104" y="55"/>
      <point x="106" y="68"/>
      <point x="109" y="81" type="curve" smooth="yes"/>
      <point x="238" y="601" type="line" smooth="yes"/>
      <point x="241" y="613"/>
      <point x="242" y="622"/>
      <point x="242" y="628" type="curve" smooth="yes"/>
      <point x="242" y="642"/>
      <point x="235" y="645"/>
      <point x="219" y="647" type="curve" smooth="yes"/>
      <point x="165" y="653" type="line"/>
      <point x="171" y="675" type="line"/>
      <point x="339" y="697" type="line"/>
      <point x="344" y="693" type="line"/>
      <point x="193" y="88" type="line" smooth="yes"/>
      <point x="190" y="75"/>
      <point x="188" y="65"/>
      <point x="188" y="57" type="curve" smooth="yes"/>
      <point x="188" y="45"/>
      <point x="192" y="38"/>
      <point x="202" y="38" type="curve" smooth="yes"/>
      <point x="225" y="38"/>
      <point x="267" y="95"/>
      <point x="289" y="137" type="curve"/>
      <point x="311" y="124" type="line"/>
      <point x="281" y="54"/>
      <point x="224" y="-11"/>
      <point x="158" y="-11" type="curve" smooth="yes"/>
      <point x="120" y="-11"/>
      <point x="104" y="11"/>
    </contour>
  </outline>
</glyph>
<glyph name="m" format="2">
  <advance width="857"/>
  <unicode hex="006D"/>
  <anchor x="532" y="509" name="top"/>
  <anchor x="418" y="-40" name="bottom"/>
  <outline>
    <contour>
      <point x="92" y="-11" type="line"/>
      <point x="189" y="373" type="line" smooth="yes"/>
      <point x="192" y="385"/>
      <point x="195" y="395"/>
      <point x="195" y="402" type="curve" smooth="yes"/>
      <point x="195" y="412"/>
      <point x="190" y="417"/>
      <point x="176" y="418" type="curve" smooth="yes"/>
      <point x="118" y="423" type="line"/>
      <point x="124" y="446" type="line"/>
      <point x="294" y="472" type="line"/>
      <point x="299" y="467" type="line"/>
      <point x="240" y="273" type="line"/>
      <point x="243" y="273" type="line"/>
      <point x="308" y="391"/>
      <point x="395" y="472"/>
      <point x="481" y="472" type="curve" smooth="yes"/>
      <point x="527" y="472"/>
      <point x="551" y="448"/>
      <point x="551" y="402" type="curve" smooth="yes"/>
      <point x="551" y="383"/>
      <point x="546" y="359"/>
      <point x="538" y="332" type="curve" smooth="yes"/>
      <point x="519" y="273" type="line"/>
      <point x="523" y="273" type="line"/>
      <point x="591" y="394"/>
      <point x="675" y="472"/>
      <point x="760" y="472" type="curve" smooth="yes"/>
      <point x="816" y="472"/>
      <point x="839" y="440"/>
      <point x="839" y="394" type="curve" smooth="yes"/>
      <point x="839" y="376"/>
      <point x="835" y="357"/>
      <point x="829" y="336" type="curve" smooth="yes"/>
      <point x="757" y="89" type="line" smooth="yes"/>
      <point x="753" y="76"/>
      <point x="751" y="65"/>
      <point x="751" y="56" type="curve" smooth="yes"/>
      <point x="751" y="45"/>
      <point x="755" y="38"/>
      <point x="766" y="38" type="curve" smooth="yes"/>
      <point x="792" y="38"/>
      <point x="834" y="104"/>
      <point x="851" y="137" type="curve"/>
      <point x="873" y="124" type="line"/>
      <point x="841" y="53"/>
      <point x="789" y="-11"/>
      <point x="720" y="-11" type="curve" smooth="yes"/>
      <point x="684" y="-11"/>
      <point x="665" y="8"/>
      <point x="665" y="43" type="curve" smooth="yes"/>
      <point x="665" y="54"/>
      <point x="667" y="67"/>
      <point x="671" y="81" type="curve" smooth="yes"/>
      <point x="752" y="357" type="line" smooth="yes"/>
      <point x="755" y="367"/>
      <point x="756" y="376"/>
      <point x="756" y="384" type="curve" smooth="yes"/>
      <point x="756" y="408"/>
      <point x="743" y="423"/>
      <point x="720" y="423" type="curve" smooth="yes"/>
      <point x="641" y="423"/>
      <point x="556" y="288"/>
      <point x="521" y="208" type="curve" smooth="yes"/>
      <point x="497" y="151"/>
      <point x="481" y="96"/>
      <point x="454" y="0" type="curve"/>
      <point x="372" y="-11" type="line"/>
      <point x="466" y="344" type="line" smooth="yes"/>
      <point x="470" y="360"/>
      <point x="472" y="372"/>
      <point x="472" y="383" type="curve" smooth="yes"/>
      <point x="472" y="412"/>
      <point x="458" y="423"/>
      <point x="438" y="423" type="curve" smooth="yes"/>
      <point x="360" y="423"/>
      <point x="268" y="282"/>
      <point x="236" y="200" type="curve" smooth="yes"/>
      <point x="216" y="150"/>
      <point x="200" y="96"/>
      <point x="174" y="0" type="curve"/>
    </contour>
  </outline>
</glyph>
<glyph name="n" format="2">
  <advance width="580"/>
  <unicode hex="006E"/>
  <anchor x="388" y="509" name="top"/>
  <anchor x="299" y="-40" name="bottom"/>
  <outline>
    <contour>
      <point x="92" y="-11" type="line"/>
      <point x="191" y="373" type="line" smooth="yes"/>
      <point x="194" y="385"/>
      <point x="196" y="394"/>
      <point x="196" y="401" type="curve" smooth="yes"/>
      <point x="196" y="412"/>
      <point x="191" y="417"/>
      <point x="177" y="418" type="curve" smooth="yes"/>
      <point x="118" y="423" type="line"/>
      <point x="124" y="446" type="line"/>
      <point x="296" y="472" type="line"/>
      <point x="301" y="467" type="line"/>
      <point x="240" y="262" type="line"/>
      <point x="243" y="262" type="line"/>
      <point x="299" y="372"/>
      <point x="397" y="472"/>
      <point x="487" y="472" type="curve" smooth="yes"/>
      <point x="542" y="472"/>
      <point x="564" y="440"/>
      <point x="564" y="395" type="curve" smooth="yes"/>
      <point x="564" y="377"/>
      <point x="560" y="357"/>
      <point x="554" y="336" type="curve" smooth="yes"/>
      <point x="480" y="89" type="line"/>
      <point x="476" y="77"/>
      <point x="475" y="65"/>
      <point x="475" y="57" type="curve" smooth="yes"/>
      <point x="475" y="45"/>
      <point x="479" y="38"/>
      <point x="490" y="38" type="curve" smooth="yes"/>
      <point x="516" y="38"/>
      <point x="557" y="104"/>
      <point x="574" y="137" type="curve"/>
      <point x="597" y="124" type="line"/>
      <point x="565" y="53"/>
      <point x="512" y="-11"/>
      <point x="442" y="-11" type="curve" smooth="yes"/>
      <point x="404" y="-11"/>
      <point x="388" y="11"/>
      <point x="388" y="43" type="curve" smooth="yes"/>
      <point x="388" y="55"/>
      <point x="390" y="67"/>
      <point x="394" y="81" type="curve" smooth="yes"/>
      <point x="475" y="356" type="line" smooth="yes"/>
      <point x="478" y="366"/>
      <point x="479" y="375"/>
      <point x="479" y="383" type="curve" smooth="yes"/>
      <point x="479" y="406"/>
      <point x="468" y="423"/>
      <point x="444" y="423" type="curve" smooth="yes"/>
      <point x="368" y="423"/>
      <point x="278" y="286"/>
      <point x="243" y="205" type="curve" smooth="yes"/>
      <point x="219" y="147"/>
      <point x="202" y="96"/>
      <point x="175" y="0" type="curve"/>
    </contour>
  </outline>
</glyph>
<glyph name="o" format="2">
  <advance width="504"/>
  <unicode hex="006F"/>
  <anchor x="382" y="509" name="top"/>
  <anchor x="258" y="-40" name="bottom"/>
  <outline>
    <contour>
      <point x="79" y="159" type="curve" smooth="yes"/>
      <point x="79" y="326"/>
      <point x="208" y="472"/>
      <point x="355" y="472" type="curve" smooth="yes"/>
      <point x="460" y="472"/>
      <point x="524" y="409"/>
      <point x="524" y="307" type="curve" smooth="yes"/>
      <point x="524" y="131"/>
      <point x="402" y="-11"/>
      <point x="252" y="-11" type="curve" smooth="yes"/>
      <point x="142" y="-11"/>
      <point x="79" y="51"/>
    </contour>
    <contour>
      <point x="170" y="121" type="curve" smooth="yes"/>
      <point x="170" y="55"/>
      <point x="199" y="22"/>
      <point x="255" y="22" type="curve" smooth="yes"/>
      <point x="338" y="22"/>
      <point x="432" y="191"/>
      <point x="432" y="340" type="curve" smooth="yes"/>
      <point x="432" y="405"/>
      <point x="405" y="439"/>
      <point x="354" y="439" type="curve" smooth="yes"/>
      <point x="262" y="439"/>
      <point x="170" y="280"/>
    </contour>
  </outline>
</glyph>
<glyph name="p" format="2">
  <advance width="554"/>
  <unicode hex="0070"/>
  <anchor x="392" y="509" name="top"/>
  <outline>
    <contour>
      <point x="54" y="-227" type="line"/>
      <point x="185" y="373" type="line"/>
      <point x="187" y="384"/>
      <point x="190" y="393"/>
      <point x="190" y="400" type="curve" smooth="yes"/>
      <point x="190" y="411"/>
      <point x="185" y="417"/>
      <point x="171" y="418" type="curve" smooth="yes"/>
      <point x="113" y="423" type="line"/>
      <point x="118" y="446" type="line"/>
      <point x="289" y="472" type="line"/>
      <point x="293" y="467" type="line"/>
      <point x="240" y="269" type="line"/>
      <point x="243" y="269" type="line"/>
      <point x="314" y="403"/>
      <point x="407" y="472"/>
      <point x="479" y="472" type="curve" smooth="yes"/>
      <point x="549" y="472"/>
      <point x="584" y="428"/>
      <point x="584" y="346" type="curve" smooth="yes"/>
      <point x="584" y="275"/>
      <point x="520" y="-11"/>
      <point x="290" y="-11" type="curve" smooth="yes"/>
      <point x="241" y="-11"/>
      <point x="209" y="-3"/>
      <point x="189" y="9" type="curve"/>
      <point x="137" y="-216" type="line"/>
    </contour>
    <contour>
      <point x="198" y="50" type="curve"/>
      <point x="219" y="32"/>
      <point x="244" y="22"/>
      <point x="281" y="22" type="curve" smooth="yes"/>
      <point x="435" y="22"/>
      <point x="491" y="271"/>
      <point x="491" y="345" type="curve" smooth="yes"/>
      <point x="491" y="395"/>
      <point x="474" y="423"/>
      <point x="440" y="423" type="curve" smooth="yes"/>
      <point x="333" y="423"/>
      <point x="218" y="151"/>
    </contour>
  </outline>
</glyph>
<glyph name="q" format="2">
  <advance width="525"/>
  <unicode hex="0071"/>
  <outline>
    <contour>
      <point x="69" y="101" type="curve" smooth="yes"/>
      <point x="69" y="230"/>
      <point x="164" y="472"/>
      <point x="398" y="472" type="curve" smooth="yes"/>
      <point x="442" y="472"/>
      <point x="475" y="459"/>
      <point x="490" y="451" type="curve"/>
      <point x="530" y="494" type="line"/>
      <point x="566" y="494" type="line"/>
      <point x="399" y="-209" type="line"/>
      <point x="311" y="-227" type="line"/>
      <point x="404" y="179" type="line"/>
      <point x="401" y="179" type="line"/>
      <point x="331" y="62"/>
      <point x="236" y="-11"/>
      <point x="158" y="-11" type="curve" smooth="yes"/>
      <point x="112" y="-11"/>
      <point x="69" y="19"/>
    </contour>
    <contour>
      <point x="162" y="116" type="curve" smooth="yes"/>
      <point x="162" y="72"/>
      <point x="173" y="38"/>
      <point x="207" y="38" type="curve" smooth="yes"/>
      <point x="246" y="38"/>
      <point x="298" y="79"/>
      <point x="350" y="147" type="curve" smooth="yes"/>
      <point x="401" y="215"/>
      <point x="441" y="311"/>
      <point x="464" y="419" type="curve"/>
      <point x="450" y="429"/>
      <point x="429" y="439"/>
      <point x="399" y="439" type="curve" smooth="yes"/>
      <point x="243" y="439"/>
      <point x="162" y="208"/>
    </contour>
  </outline>
</glyph>
<glyph name="r" format="2">
  <advance width="377"/>
  <unicode hex="0072"/>
  <anchor x="301" y="509" name="top"/>
  <anchor x="155" y="-40" name="bottom"/>
  <outline>
    <contour>
      <point x="98" y="-11" type="line"/>
      <point x="184" y="373" type="line" smooth="yes"/>
      <point x="187" y="385"/>
      <point x="189" y="394"/>
      <point x="189" y="401" type="curve" smooth="yes"/>
      <point x="189" y="412"/>
      <point x="184" y="417"/>
      <point x="170" y="418" type="curve" smooth="yes"/>
      <point x="112" y="423" type="line"/>
      <point x="118" y="446" type="line"/>
      <point x="279" y="472" type="line"/>
      <point x="284" y="467" type="line"/>
      <point x="242" y="311" type="line"/>
      <point x="245" y="311" type="line"/>
      <point x="296" y="413"/>
      <point x="359" y="472"/>
      <point x="412" y="472" type="curve" smooth="yes"/>
      <point x="442" y="472"/>
      <point x="454" y="456"/>
      <point x="454" y="431" type="curve" smooth="yes"/>
      <point x="454" y="404"/>
      <point x="434" y="372"/>
      <point x="410" y="372" type="curve" smooth="yes"/>
      <point x="394" y="372"/>
      <point x="385" y="379"/>
      <point x="375" y="385" type="curve"/>
      <point x="366" y="391"/>
      <point x="357" y="396"/>
      <point x="344" y="396" type="curve" smooth="yes"/>
      <point x="308" y="396"/>
      <point x="261" y="315"/>
      <point x="227" y="192" type="curve" smooth="yes"/>
      <point x="212" y="137"/>
      <point x="195" y="61"/>
      <point x="179" y="0" type="curve"/>
    </contour>
  </outline>
</glyph>
<glyph name="s" format="2">
  <advance width="365"/>
  <unicode hex="0073"/>
  <anchor x="295" y="509" name="top"/>
  <anchor x="198" y="-40" name="bottom"/>
  <anchor x="247" y="10" name="b.cedilla"/>
  <outline>
    <contour>
      <point x="51" y="78" type="curve" smooth="yes"/>
      <point x="51" y="103"/>
      <point x="72" y="129"/>
      <point x="100" y="129" type="curve" smooth="yes"/>
      <point x="116" y="129"/>
      <point x="124.4" y="119.318"/>
      <point x="130" y="101.523" type="curve" smooth="yes"/>
      <point x="145.402" y="52.5826"/>
      <point x="179" y="24"/>
      <point x="214" y="24" type="curve" smooth="yes"/>
      <point x="253" y="24"/>
      <point x="282" y="49.8844"/>
      <point x="282" y="93.6889" type="curve" smooth="yes"/>
      <point x="282" y="130.524"/>
      <point x="257.044" y="171.397"/>
      <point x="217" y="203.2" type="curve" smooth="yes"/>
      <point x="168.044" y="242.082"/>
      <point x="134" y="285.831"/>
      <point x="134" y="334.613" type="curve" smooth="yes"/>
      <point x="134" y="410.276"/>
      <point x="191" y="472"/>
      <point x="287" y="472" type="curve" smooth="yes"/>
      <point x="371" y="472"/>
      <point x="406" y="428"/>
      <point x="406" y="399" type="curve" smooth="yes"/>
      <point x="406" y="370"/>
      <point x="380" y="355"/>
      <point x="361" y="355" type="curve" smooth="yes"/>
      <point x="347" y="355"/>
      <point x="340" y="363"/>
      <point x="335" y="374" type="curve" smooth="yes"/>
      <point x="315" y="418"/>
      <point x="290" y="439"/>
      <point x="259" y="439" type="curve" smooth="yes"/>
      <point x="224" y="439"/>
      <point x="201" y="408"/>
      <point x="201" y="378" type="curve" smooth="yes"/>
      <point x="201" y="352"/>
      <point x="212" y="320"/>
      <point x="268" y="274" type="curve" smooth="yes"/>
      <point x="331" y="222"/>
      <point x="354" y="183"/>
      <point x="354" y="131" type="curve" smooth="yes"/>
      <point x="354" y="54"/>
      <point x="294" y="-11"/>
      <point x="192" y="-11" type="curve" smooth="yes"/>
      <point x="103" y="-11"/>
      <point x="51" y="38"/>
    </contour>
  </outline>
</glyph>
<glyph name="t" format="2">
  <advance width="320"/>
  <unicode hex="0074"/>
  <anchor x="161" y="-40" name="bottom"/>
  <anchor x="206" y="10" name="b.cedilla"/>
  <anchor x="372" y="743" name="t.r.caron"/>
  <anchor x="307" y="650" name="top"/>
  <outline>
    <contour>
      <point x="112" y="42" type="curve" smooth="yes"/>
      <point x="112" y="53"/>
      <point x="115" y="67"/>
      <point x="118" y="81" type="curve"/>
      <point x="202" y="425" type="line"/>
      <point x="124" y="425" type="line"/>
      <point x="134" y="461" type="line"/>
      <point x="211" y="461" type="line"/>
      <point x="223" y="507" type="line"/>
      <point x="314" y="579" type="line"/>
      <point x="325" y="572" type="line"/>
      <point x="293" y="461" type="line"/>
      <point x="413" y="461" type="line"/>
      <point x="402" y="425" type="line"/>
      <point x="285" y="425" type="line"/>
      <point x="201" y="83" type="line" smooth="yes"/>
      <point x="199" y="75"/>
      <point x="198" y="66"/>
      <point x="198" y="59" type="curve" smooth="yes"/>
      <point x="198" y="46"/>
      <point x="202" y="38"/>
      <point x="215" y="38" type="curve" smooth="yes"/>
      <point x="244" y="38"/>
      <point x="292" y="100"/>
      <point x="314" y="137" type="curve"/>
      <point x="335" y="121" type="line"/>
      <point x="297" y="51"/>
      <point x="237" y="-11"/>
      <point x="162" y="-11" type="curve" smooth="yes"/>
      <point x="127" y="-11"/>
      <point x="112" y="10"/>
    </contour>
  </outline>
</glyph>
<glyph name="u" format="2">
  <advance width="575"/>
  <unicode hex="0075"/>
  <anchor x="382" y="509" name="top"/>
  <anchor x="382" y="509" name="t.ring"/>
  <anchor x="285" y="-40" name="bottom"/>
  <outline>
    <contour>
      <point x="112" y="63" type="curve" smooth="yes"/>
      <point x="112" y="82"/>
      <point x="115" y="103"/>
      <point x="121" y="125" type="curve" smooth="yes"/>
      <point x="186" y="373" type="line" smooth="yes"/>
      <point x="189" y="384"/>
      <point x="191" y="393"/>
      <point x="191" y="400" type="curve" smooth="yes"/>
      <point x="191" y="411"/>
      <point x="186" y="417"/>
      <point x="172" y="418" type="curve" smooth="yes"/>
      <point x="113" y="423" type="line"/>
      <point x="119" y="446" type="line"/>
      <point x="290" y="472" type="line"/>
      <point x="295" y="467" type="line"/>
      <point x="205" y="120" type="line" smooth="yes"/>
      <point x="200" y="102"/>
      <point x="198" y="87"/>
      <point x="198" y="75" type="curve" smooth="yes"/>
      <point x="198" y="50"/>
      <point x="208" y="38"/>
      <point x="228" y="38" type="curve" smooth="yes"/>
      <point x="306" y="38"/>
      <point x="388" y="163"/>
      <point x="429" y="258" type="curve" smooth="yes"/>
      <point x="453" y="315"/>
      <point x="469" y="365"/>
      <point x="496" y="461" type="curve"/>
      <point x="580" y="472" type="line"/>
      <point x="479" y="88" type="line" smooth="yes"/>
      <point x="476" y="77"/>
      <point x="474" y="67"/>
      <point x="474" y="59" type="curve" smooth="yes"/>
      <point x="474" y="46"/>
      <point x="479" y="38"/>
      <point x="491" y="38" type="curve" smooth="yes"/>
      <point x="517" y="38"/>
      <point x="559" y="105"/>
      <point x="578" y="137" type="curve"/>
      <point x="600" y="123" type="line"/>
      <point x="567" y="53"/>
      <point x="511" y="-11"/>
      <point x="443" y="-11" type="curve" smooth="yes"/>
      <point x="408" y="-11"/>
      <point x="392" y="8"/>
      <point x="392" y="41" type="curve" smooth="yes"/>
      <point x="392" y="55"/>
      <point x="395" y="71"/>
      <point x="400" y="90" type="curve" smooth="yes"/>
      <point x="431" y="197" type="line"/>
      <point x="428" y="197" type="line"/>
      <point x="372" y="88"/>
      <point x="274" y="-11"/>
      <point x="184" y="-11" type="curve" smooth="yes"/>
      <point x="131" y="-11"/>
      <point x="112" y="19"/>
    </contour>
  </outline>
</glyph>
<glyph name="v" format="2">
  <advance width="479"/>
  <unicode hex="0076"/>
  <anchor x="364" y="509" name="top"/>
  <anchor x="249" y="-40" name="bottom"/>
  <outline>
    <contour>
      <point x="121" y="65" type="curve" smooth="yes"/>
      <point x="121" y="79"/>
      <point x="123" y="94"/>
      <point x="127" y="112" type="curve" smooth="yes"/>
      <point x="184" y="373" type="line"/>
      <point x="187" y="385"/>
      <point x="188" y="394"/>
      <point x="188" y="401" type="curve" smooth="yes"/>
      <point x="188" y="412"/>
      <point x="184" y="417"/>
      <point x="170" y="418" type="curve" smooth="yes"/>
      <point x="112" y="423" type="line"/>
      <point x="118" y="446" type="line"/>
      <point x="284" y="472" type="line"/>
      <point x="289" y="467" type="line"/>
      <point x="207" y="103" type="line" smooth="yes"/>
      <point x="205" y="94"/>
      <point x="204" y="85"/>
      <point x="204" y="78" type="curve" smooth="yes"/>
      <point x="204" y="50"/>
      <point x="218" y="38"/>
      <point x="237" y="38" type="curve" smooth="yes"/>
      <point x="314" y="38"/>
      <point x="443" y="206"/>
      <point x="443" y="335" type="curve" smooth="yes"/>
      <point x="443" y="384"/>
      <point x="440" y="419"/>
      <point x="431" y="452" type="curve"/>
      <point x="451" y="464"/>
      <point x="477" y="472"/>
      <point x="500" y="472" type="curve" smooth="yes"/>
      <point x="508" y="472"/>
      <point x="529" y="436"/>
      <point x="529" y="399" type="curve" smooth="yes"/>
      <point x="529" y="266"/>
      <point x="337" y="-11"/>
      <point x="192" y="-11" type="curve" smooth="yes"/>
      <point x="149" y="-11"/>
      <point x="121" y="12"/>
    </contour>
  </outline>
</glyph>
<glyph name="w" format="2">
  <advance width="737"/>
  <unicode hex="0077"/>
  <anchor x="510" y="509" name="top"/>
  <anchor x="372" y="-40" name="bottom"/>
  <anchor x="510" y="509" name="t.ring"/>
  <outline>
    <contour>
      <point x="121" y="69" type="curve" smooth="yes"/>
      <point x="121" y="83"/>
      <point x="123" y="99"/>
      <point x="127" y="117" type="curve" smooth="yes"/>
      <point x="186" y="373" type="line" smooth="yes"/>
      <point x="189" y="385"/>
      <point x="191" y="394"/>
      <point x="191" y="401" type="curve" smooth="yes"/>
      <point x="191" y="413"/>
      <point x="185" y="417"/>
      <point x="172" y="418" type="curve" smooth="yes"/>
      <point x="115" y="423" type="line"/>
      <point x="119" y="446" type="line"/>
      <point x="288" y="472" type="line"/>
      <point x="292" y="467" type="line"/>
      <point x="210" y="114" type="line" smooth="yes"/>
      <point x="207" y="101"/>
      <point x="206" y="90"/>
      <point x="206" y="81" type="curve" smooth="yes"/>
      <point x="206" y="50"/>
      <point x="221" y="38"/>
      <point x="239" y="38" type="curve" smooth="yes"/>
      <point x="277" y="38"/>
      <point x="320" y="85"/>
      <point x="359" y="143" type="curve" smooth="yes"/>
      <point x="414" y="226"/>
      <point x="443" y="340"/>
      <point x="472" y="458" type="curve"/>
      <point x="553" y="463" type="line"/>
      <point x="487" y="167" type="line" smooth="yes"/>
      <point x="481" y="138"/>
      <point x="477" y="114"/>
      <point x="477" y="95" type="curve" smooth="yes"/>
      <point x="477" y="57"/>
      <point x="490" y="38"/>
      <point x="518" y="38" type="curve" smooth="yes"/>
      <point x="593" y="38"/>
      <point x="707" y="214"/>
      <point x="707" y="344" type="curve" smooth="yes"/>
      <point x="707" y="383"/>
      <point x="705" y="419"/>
      <point x="696" y="452" type="curve"/>
      <point x="716" y="464"/>
      <point x="740" y="472"/>
      <point x="763" y="472" type="curve" smooth="yes"/>
      <point x="771" y="472"/>
      <point x="792" y="438"/>
      <point x="792" y="399" type="curve" smooth="yes"/>
      <point x="792" y="274"/>
      <point x="617" y="-11"/>
      <point x="478" y="-11" type="curve" smooth="yes"/>
      <point x="422" y="-11"/>
      <point x="399" y="28"/>
      <point x="399" y="80" type="curve" smooth="yes"/>
      <point x="399" y="106"/>
      <point x="407" y="146"/>
      <point x="414" y="180" type="curve"/>
      <point x="412" y="182" type="line"/>
      <point x="356" y="69"/>
      <point x="272" y="-11"/>
      <point x="194" y="-11" type="curve" smooth="yes"/>
      <point x="152" y="-11"/>
      <point x="121" y="14"/>
    </contour>
  </outline>
</glyph>
<glyph name="x" format="2">
  <advance width="485"/>
  <unicode hex="0078"/>
  <anchor x="352" y="509" name="top"/>
  <outline>
    <contour>
      <point x="29" y="37" type="curve" smooth="yes"/>
      <point x="29" y="60"/>
      <point x="46" y="84"/>
      <point x="70" y="84" type="curve" smooth="yes"/>
      <point x="86" y="84"/>
      <point x="98" y="75"/>
      <point x="107" y="70" type="curve"/>
      <point x="115" y="65"/>
      <point x="125" y="61"/>
      <point x="134" y="61" type="curve" smooth="yes"/>
      <point x="157" y="61"/>
      <point x="192" y="110"/>
      <point x="232" y="179" type="curve" smooth="yes"/>
      <point x="258" y="224" type="line"/>
      <point x="225" y="360" type="line" smooth="yes"/>
      <point x="220" y="381"/>
      <point x="212" y="407"/>
      <point x="191" y="407" type="curve"/>
      <point x="120" y="402" type="line"/>
      <point x="118" y="425" type="line"/>
      <point x="273" y="472" type="line"/>
      <point x="278" y="468" type="line"/>
      <point x="315" y="310" type="line"/>
      <point x="318" y="310" type="line"/>
      <point x="359" y="374" type="line" smooth="yes"/>
      <point x="392" y="427"/>
      <point x="434" y="472"/>
      <point x="484" y="472" type="curve" smooth="yes"/>
      <point x="510" y="472"/>
      <point x="532" y="460"/>
      <point x="532" y="431" type="curve" smooth="yes"/>
      <point x="532" y="406"/>
      <point x="513" y="386"/>
      <point x="492" y="386" type="curve" smooth="yes"/>
      <point x="481" y="386"/>
      <point x="471" y="389"/>
      <point x="462" y="394" type="curve"/>
      <point x="452" y="399"/>
      <point x="443" y="401"/>
      <point x="435" y="401" type="curve" smooth="yes"/>
      <point x="408" y="401"/>
      <point x="360" y="326"/>
      <point x="326" y="266" type="curve"/>
      <point x="356" y="143" type="line" smooth="yes"/>
      <point x="377" y="59"/>
      <point x="384" y="38"/>
      <point x="402" y="38" type="curve" smooth="yes"/>
      <point x="426" y="38"/>
      <point x="454" y="88"/>
      <point x="477" y="130" type="curve"/>
      <point x="501" y="117" type="line"/>
      <point x="473" y="60"/>
      <point x="437" y="-11"/>
      <point x="368" y="-11" type="curve" smooth="yes"/>
      <point x="320" y="-11"/>
      <point x="301" y="29"/>
      <point x="285" y="104" type="curve" smooth="yes"/>
      <point x="269" y="178" type="line"/>
      <point x="266" y="178" type="line"/>
      <point x="228" y="116" type="line" smooth="yes"/>
      <point x="189" y="53"/>
      <point x="150" y="-11"/>
      <point x="89" y="-11" type="curve" smooth="yes"/>
      <point x="51" y="-11"/>
      <point x="29" y="10"/>
    </contour>
  </outline>
</glyph>
<glyph name="y" format="2">
  <advance width="439"/>
  <unicode hex="0079"/>
  <anchor x="332" y="509" name="top"/>
  <anchor x="332" y="509" name="t.ring"/>
  <anchor x="372" y="-120" name="bottom"/>
  <outline>
    <contour>
      <point x="-5" y="-176" type="curve" smooth="yes"/>
      <point x="-5" y="-149"/>
      <point x="19" y="-119"/>
      <point x="43" y="-119" type="curve" smooth="yes"/>
      <point x="57" y="-119"/>
      <point x="65" y="-127"/>
      <point x="76" y="-142" type="curve" smooth="yes"/>
      <point x="90" y="-161"/>
      <point x="101" y="-171"/>
      <point x="115" y="-171" type="curve" smooth="yes"/>
      <point x="172" y="-171"/>
      <point x="197" y="-30"/>
      <point x="197" y="12" type="curve" smooth="yes"/>
      <point x="197" y="87"/>
      <point x="176" y="268"/>
      <point x="166" y="341" type="curve" smooth="yes"/>
      <point x="158" y="390"/>
      <point x="154" y="405"/>
      <point x="133" y="405" type="curve"/>
      <point x="70" y="403" type="line"/>
      <point x="67" y="427" type="line"/>
      <point x="225" y="472" type="line"/>
      <point x="232" y="468" type="line"/>
      <point x="245" y="399"/>
      <point x="263" y="201"/>
      <point x="270" y="57" type="curve"/>
      <point x="273" y="57" type="line"/>
      <point x="345" y="181"/>
      <point x="417" y="286"/>
      <point x="417" y="432" type="curve" smooth="yes"/>
      <point x="417" y="448" type="line"/>
      <point x="441" y="464"/>
      <point x="473" y="472"/>
      <point x="491" y="472" type="curve" smooth="yes"/>
      <point x="498" y="472"/>
      <point x="508" y="452"/>
      <point x="508" y="419" type="curve" smooth="yes"/>
      <point x="508" y="400"/>
      <point x="447" y="291"/>
      <point x="395" y="202" type="curve" smooth="yes"/>
      <point x="261" y="-25" type="line" smooth="yes"/>
      <point x="177" y="-167"/>
      <point x="142" y="-227"/>
      <point x="64" y="-227" type="curve" smooth="yes"/>
      <point x="23" y="-227"/>
      <point x="-5" y="-201"/>
    </contour>
  </outline>
</glyph>
<glyph name="z" format="2">
  <advance width="439"/>
  <unicode hex="007A"/>
  <anchor x="340" y="509" name="top"/>
  <anchor x="226" y="-40" name="bottom"/>
  <outline>
    <contour>
      <point x="37" y="17" type="curve" smooth="yes"/>
      <point x="37" y="32"/>
      <point x="44" y="53"/>
      <point x="59" y="68" type="curve" smooth="yes"/>
      <point x="161" y="171"/>
      <point x="270" y="278"/>
      <point x="389" y="397" type="curve"/>
      <point x="389" y="400" type="line"/>
      <point x="224" y="400" type="line" smooth="yes"/>
      <point x="180" y="400"/>
      <point x="164" y="372"/>
      <point x="134" y="317" type="curve"/>
      <point x="111" y="327" type="line"/>
      <point x="132" y="392"/>
      <point x="161" y="444"/>
      <point x="174" y="461" type="curve"/>
      <point x="479" y="461" type="line"/>
      <point x="487" y="447" type="line"/>
      <point x="373" y="336"/>
      <point x="266" y="226"/>
      <point x="162" y="118" type="curve"/>
      <point x="162.336" y="115.058" type="line"/>
      <point x="186" y="113"/>
      <point x="219" y="100"/>
      <point x="250" y="89" type="curve" smooth="yes"/>
      <point x="285" y="76"/>
      <point x="327" y="62"/>
      <point x="356" y="62" type="curve" smooth="yes"/>
      <point x="397" y="62"/>
      <point x="421" y="119"/>
      <point x="445" y="177" type="curve"/>
      <point x="471" y="170" type="line"/>
      <point x="446" y="71"/>
      <point x="417" y="-11"/>
      <point x="356" y="-11" type="curve" smooth="yes"/>
      <point x="312" y="-11"/>
      <point x="268" y="6"/>
      <point x="218" y="26" type="curve" smooth="yes"/>
      <point x="163" y="48"/>
      <point x="130" y="70"/>
      <point x="115" y="70" type="curve" smooth="yes"/>
      <point x="107" y="70"/>
      <point x="102" y="63"/>
      <point x="102" y="53" type="curve" smooth="yes"/>
      <point x="102" y="11" type="line" smooth="yes"/>
      <point x="102" y="-5"/>
      <point x="71" y="-11"/>
      <point x="58" y="-11" type="curve" smooth="yes"/>
      <point x="42" y="-11"/>
      <point x="37" y="5"/>
    </contour>
  </outline>
</glyph>
<glyph name="braceleft" format="2">
  <advance width="336"/>
  <unicode hex="007B"/>
  <outline>
    <contour>
      <point x="49" y="-89" type="curve" smooth="yes"/>
      <point x="49" y="-43"/>
      <point x="69" y="10"/>
      <point x="100" y="79" type="curve" smooth="yes"/>
      <point x="119" y="122"/>
      <point x="139" y="168"/>
      <point x="139" y="203" type="curve" smooth="yes"/>
      <point x="139" y="239"/>
      <point x="118" y="263"/>
      <point x="53" y="263" type="curve"/>
      <point x="62" y="293" type="line"/>
      <point x="192" y="293"/>
      <point x="192" y="395"/>
      <point x="192" y="487" type="curve" smooth="yes"/>
      <point x="192" y="628"/>
      <point x="229" y="745"/>
      <point x="399" y="745" type="curve" smooth="yes"/>
      <point x="419" y="745" type="line"/>
      <point x="410" y="717" type="line"/>
      <point x="284" y="708"/>
      <point x="273" y="627"/>
      <point x="273" y="521" type="curve" smooth="yes"/>
      <point x="273" y="392"/>
      <point x="272" y="312"/>
      <point x="137" y="282" type="curve"/>
      <point x="137" y="274" type="line"/>
      <point x="195" y="262"/>
      <point x="217" y="234"/>
      <point x="217" y="194" type="curve" smooth="yes"/>
      <point x="217" y="153"/>
      <point x="194" y="98"/>
      <point x="164" y="35" type="curve" smooth="yes"/>
      <point x="147" y="-1"/>
      <point x="121" y="-57"/>
      <point x="121" y="-97" type="curve" smooth="yes"/>
      <point x="121" y="-132"/>
      <point x="145" y="-156"/>
      <point x="211" y="-161" type="curve"/>
      <point x="202" y="-189" type="line"/>
      <point x="190" y="-189" type="line" smooth="yes"/>
      <point x="124" y="-189"/>
      <point x="49" y="-168"/>
    </contour>
  </outline>
</glyph>
<glyph name="bar" format="2">
  <advance width="253"/>
  <unicode hex="007C"/>
  <outline>
    <contour>
      <point x="155" y="-235" type="line"/>
      <point x="155" y="705" type="line"/>
      <point x="219" y="705" type="line"/>
      <point x="219" y="-235" type="line"/>
    </contour>
  </outline>
</glyph>
<glyph name="braceright" format="2">
  <advance width="336"/>
  <unicode hex="007D"/>
  <outline>
    <contour>
      <point x="-30" y="-189" type="line"/>
      <point x="-22" y="-161" type="line"/>
      <point x="107" y="-152"/>
      <point x="114" y="-71"/>
      <point x="114" y="35" type="curve" smooth="yes"/>
      <point x="114" y="164"/>
      <point x="115" y="244"/>
      <point x="250" y="274" type="curve"/>
      <point x="250" y="282" type="line"/>
      <point x="192" y="294"/>
      <point x="171" y="321"/>
      <point x="171" y="360" type="curve" smooth="yes"/>
      <point x="171" y="408"/>
      <point x="194" y="457"/>
      <point x="219" y="507" type="curve" smooth="yes"/>
      <point x="244" y="557"/>
      <point x="266" y="607"/>
      <point x="266" y="653" type="curve" smooth="yes"/>
      <point x="266" y="688"/>
      <point x="242" y="712"/>
      <point x="176" y="717" type="curve"/>
      <point x="186" y="745" type="line"/>
      <point x="197" y="745" type="line" smooth="yes"/>
      <point x="263" y="745"/>
      <point x="337" y="724"/>
      <point x="337" y="645" type="curve" smooth="yes"/>
      <point x="337" y="597"/>
      <point x="314" y="544"/>
      <point x="291" y="493" type="curve" smooth="yes"/>
      <point x="269" y="445"/>
      <point x="249" y="398"/>
      <point x="249" y="357" type="curve" smooth="yes"/>
      <point x="249" y="319"/>
      <point x="270" y="293"/>
      <point x="334" y="293" type="curve"/>
      <point x="324" y="263" type="line"/>
      <point x="194" y="263"/>
      <point x="194" y="161"/>
      <point x="194" y="69" type="curve" smooth="yes"/>
      <point x="194" y="-72"/>
      <point x="164" y="-189"/>
      <point x="-12" y="-189" type="curve" smooth="yes"/>
    </contour>
  </outline>
</glyph>
<glyph name="asciitilde" format="2">
  <advance width="535"/>
  <unicode hex="007E"/>
  <outline>
    <contour>
      <point x="125" y="189" type="line"/>
      <point x="148" y="236"/>
      <point x="178" y="289"/>
      <point x="247" y="289" type="curve" smooth="yes"/>
      <point x="275" y="289"/>
      <point x="306" y="279"/>
      <point x="335" y="267" type="curve" smooth="yes"/>
      <point x="364" y="255"/>
      <point x="391" y="245"/>
      <point x="414" y="245" type="curve" smooth="yes"/>
      <point x="446" y="245"/>
      <point x="459" y="259"/>
      <point x="486" y="299" type="curve"/>
      <point x="524" y="275" type="line"/>
      <point x="498" y="218"/>
      <point x="465" y="180"/>
      <point x="411" y="180" type="curve" smooth="yes"/>
      <point x="384" y="180"/>
      <point x="351" y="191"/>
      <point x="321" y="202" type="curve" smooth="yes"/>
      <point x="291" y="213"/>
      <point x="261" y="224"/>
      <point x="237" y="224" type="curve" smooth="yes"/>
      <point x="201" y="224"/>
      <point x="184" y="204"/>
      <point x="164" y="165" type="curve"/>
    </contour>
  </outline>
</glyph>
<glyph name="exclamdown" format="2">
  <advance width="225"/>
  <unicode hex="00A1"/>
  <outline>
    <contour>
      <point x="154" y="264" type="line"/>
      <point x="180" y="264" type="line"/>
      <point x="129" y="-145" type="line" smooth="yes"/>
      <point x="124" y="-179"/>
      <point x="112" y="-204"/>
      <point x="62" y="-204" type="curve" smooth="yes"/>
      <point x="27" y="-204"/>
      <point x="16" y="-192"/>
      <point x="16" y="-173" type="curve" smooth="yes"/>
      <point x="16" y="-164"/>
      <point x="19" y="-152"/>
      <point x="23" y="-140" type="curve" smooth="yes"/>
    </contour>
    <contour>
      <point x="142" y="407" type="curve" smooth="yes"/>
      <point x="142" y="446"/>
      <point x="166" y="472"/>
      <point x="203" y="472" type="curve" smooth="yes"/>
      <point x="237" y="472"/>
      <point x="257" y="448"/>
      <point x="257" y="418" type="curve" smooth="yes"/>
      <point x="257" y="379"/>
      <point x="232" y="354"/>
      <point x="196" y="354" type="curve" smooth="yes"/>
      <point x="162" y="354"/>
      <point x="142" y="379"/>
    </contour>
  </outline>
</glyph>
<glyph name="cent" format="2">
  <advance width="498"/>
  <unicode hex="00A2"/>
  <outline>
    <contour>
      <point x="121" y="258" type="curve" smooth="yes"/>
      <point x="121" y="400"/>
      <point x="220" y="563"/>
      <point x="384" y="563" type="curve"/>
      <point x="399" y="628.5" type="line"/>
      <point x="437" y="628.5" type="line"/>
      <point x="424" y="563" type="line"/>
      <point x="491" y="563"/>
      <point x="562" y="525"/>
      <point x="562" y="470" type="curve" smooth="yes"/>
      <point x="562" y="440"/>
      <point x="529" y="428"/>
      <point x="509" y="428" type="curve" smooth="yes"/>
      <point x="494" y="428"/>
      <point x="487" y="437"/>
      <point x="484" y="451" type="curve" smooth="yes"/>
      <point x="473" y="501"/>
      <point x="441" y="528"/>
      <point x="416" y="529" type="curve"/>
      <point x="323" y="121" type="line"/>
      <point x="381" y="121"/>
      <point x="431" y="142"/>
      <point x="483" y="207" type="curve"/>
      <point x="504" y="189" type="line"/>
      <point x="457" y="117"/>
      <point x="385" y="82"/>
      <point x="314" y="82" type="curve"/>
      <point x="291" y="-20" type="line"/>
      <point x="253" y="-20" type="line"/>
      <point x="275" y="82" type="line"/>
      <point x="215" y="84"/>
      <point x="121" y="123"/>
    </contour>
    <contour>
      <point x="211" y="260" type="curve" smooth="yes"/>
      <point x="211" y="197"/>
      <point x="224" y="146"/>
      <point x="287" y="130" type="curve"/>
      <point x="377" y="529" type="line"/>
      <point x="269" y="529"/>
      <point x="211" y="359"/>
    </contour>
  </outline>
</glyph>
<glyph name="sterling" format="2">
  <advance width="498"/>
  <unicode hex="00A3"/>
  <outline>
    <contour>
      <point x="41" y="5" type="line"/>
      <point x="63" y="42" type="line"/>
      <point x="148" y="72"/>
      <point x="237" y="111"/>
      <point x="237" y="213" type="curve" smooth="yes"/>
      <point x="237" y="230"/>
      <point x="235" y="250"/>
      <point x="229" y="274" type="curve"/>
      <point x="115" y="274" type="line"/>
      <point x="123" y="309" type="line"/>
      <point x="224" y="309" type="line"/>
      <point x="210" y="350"/>
      <point x="200" y="400"/>
      <point x="200" y="448" type="curve" smooth="yes"/>
      <point x="200" y="549"/>
      <point x="266" y="639"/>
      <point x="399" y="639" type="curve" smooth="yes"/>
      <point x="501" y="639"/>
      <point x="549" y="583"/>
      <point x="549" y="547" type="curve" smooth="yes"/>
      <point x="549" y="513"/>
      <point x="519" y="502"/>
      <point x="501" y="502" type="curve" smooth="yes"/>
      <point x="485" y="502"/>
      <point x="481" y="514"/>
      <point x="478" y="525" type="curve" smooth="yes"/>
      <point x="463" y="578"/>
      <point x="427" y="606"/>
      <point x="382" y="606" type="curve" smooth="yes"/>
      <point x="308" y="606"/>
      <point x="280" y="540"/>
      <point x="280" y="476" type="curve" smooth="yes"/>
      <point x="280" y="417"/>
      <point x="290" y="365"/>
      <point x="313" y="309" type="curve"/>
      <point x="452" y="309" type="line"/>
      <point x="444" y="274" type="line"/>
      <point x="317" y="274" type="line"/>
      <point x="317" y="175"/>
      <point x="279" y="121"/>
      <point x="190" y="71" type="curve"/>
      <point x="191" y="68" type="line"/>
      <point x="395" y="68" type="line" smooth="yes"/>
      <point x="438" y="68"/>
      <point x="459" y="95"/>
      <point x="475" y="118" type="curve"/>
      <point x="499" y="108" type="line"/>
      <point x="439" y="0" type="line"/>
      <point x="44" y="0" type="line"/>
    </contour>
  </outline>
</glyph>
<glyph name="currency" format="2">
  <advance width="498"/>
  <unicode hex="00A4"/>
  <outline>
    <contour>
      <point x="102" y="314" type="curve" smooth="yes"/>
      <point x="102" y="360"/>
      <point x="112" y="401"/>
      <point x="146" y="444" type="curve"/>
      <point x="109" y="472" type="line" smooth="yes"/>
      <point x="93" y="484"/>
      <point x="85" y="496"/>
      <point x="85" y="507" type="curve" smooth="yes"/>
      <point x="85" y="524"/>
      <point x="110" y="544"/>
      <point x="126" y="544" type="curve" smooth="yes"/>
      <point x="138" y="544"/>
      <point x="149" y="535"/>
      <point x="160" y="519" type="curve" smooth="yes"/>
      <point x="185" y="482" type="line"/>
      <point x="220" y="515"/>
      <point x="269" y="525"/>
      <point x="311" y="525" type="curve" smooth="yes"/>
      <point x="353" y="525"/>
      <point x="402" y="515"/>
      <point x="437" y="482" type="curve"/>
      <point x="462" y="519" type="line" smooth="yes"/>
      <point x="473" y="535"/>
      <point x="484" y="544"/>
      <point x="496" y="544" type="curve" smooth="yes"/>
      <point x="512" y="544"/>
      <point x="537" y="524"/>
      <point x="537" y="507" type="curve" smooth="yes"/>
      <point x="537" y="496"/>
      <point x="529" y="485"/>
      <point x="513" y="472" type="curve" smooth="yes"/>
      <point x="477" y="444" type="line"/>
      <point x="511" y="401"/>
      <point x="520" y="360"/>
      <point x="520" y="314" type="curve" smooth="yes"/>
      <point x="520" y="268"/>
      <point x="511" y="227"/>
      <point x="477" y="184" type="curve"/>
      <point x="513" y="156" type="line" smooth="yes"/>
      <point x="529" y="143"/>
      <point x="537" y="132"/>
      <point x="537" y="121" type="curve" smooth="yes"/>
      <point x="537" y="104"/>
      <point x="512" y="84"/>
      <point x="496" y="84" type="curve" smooth="yes"/>
      <point x="484" y="84"/>
      <point x="473" y="93"/>
      <point x="462" y="109" type="curve" smooth="yes"/>
      <point x="437" y="146" type="line"/>
      <point x="402" y="113"/>
      <point x="353" y="102"/>
      <point x="311" y="102" type="curve" smooth="yes"/>
      <point x="269" y="102"/>
      <point x="220" y="113"/>
      <point x="185" y="146" type="curve"/>
      <point x="160" y="109" type="line" smooth="yes"/>
      <point x="149" y="93"/>
      <point x="138" y="84"/>
      <point x="126" y="84" type="curve" smooth="yes"/>
      <point x="110" y="84"/>
      <point x="85" y="105"/>
      <point x="85" y="121" type="curve" smooth="yes"/>
      <point x="85" y="132"/>
      <point x="93" y="144"/>
      <point x="109" y="156" type="curve" smooth="yes"/>
      <point x="146" y="184" type="line"/>
      <point x="112" y="227"/>
      <point x="102" y="268"/>
    </contour>
    <contour>
      <point x="170" y="314" type="curve" smooth="yes"/>
      <point x="170" y="222"/>
      <point x="229" y="152"/>
      <point x="311" y="152" type="curve" smooth="yes"/>
      <point x="393" y="152"/>
      <point x="452" y="222"/>
      <point x="452" y="314" type="curve" smooth="yes"/>
      <point x="452" y="406"/>
      <point x="393" y="476"/>
      <point x="311" y="476" type="curve" smooth="yes"/>
      <point x="229" y="476"/>
      <point x="170" y="406"/>
    </contour>
  </outline>
</glyph>
<glyph name="yen" format="2">
  <advance width="498"/>
  <unicode hex="00A5"/>
  <outline>
    <contour>
      <point x="101" y="176" type="line"/>
      <point x="110" y="210" type="line"/>
      <point x="251" y="210" type="line"/>
      <point x="256" y="237"/>
      <point x="261" y="265"/>
      <point x="266" y="292" type="curve"/>
      <point x="126" y="292" type="line"/>
      <point x="135" y="326" type="line"/>
      <point x="258" y="326" type="line"/>
      <point x="195" y="562" type="line" smooth="yes"/>
      <point x="190" y="580"/>
      <point x="183" y="598"/>
      <point x="166" y="599" type="curve" smooth="yes"/>
      <point x="133" y="601" type="line"/>
      <point x="140" y="628" type="line"/>
      <point x="347" y="628" type="line"/>
      <point x="341" y="601" type="line"/>
      <point x="302" y="599" type="line" smooth="yes"/>
      <point x="285" y="598"/>
      <point x="278" y="592"/>
      <point x="278" y="581" type="curve" smooth="yes"/>
      <point x="278" y="578"/>
      <point x="278" y="575"/>
      <point x="279" y="572" type="curve"/>
      <point x="336" y="326" type="line"/>
      <point x="339" y="326" type="line"/>
      <point x="502" y="565" type="line" smooth="yes"/>
      <point x="509" y="575"/>
      <point x="513" y="583"/>
      <point x="513" y="588" type="curve" smooth="yes"/>
      <point x="513" y="594"/>
      <point x="509" y="597"/>
      <point x="500" y="597" type="curve"/>
      <point x="452" y="601" type="line"/>
      <point x="458" y="628" type="line"/>
      <point x="639" y="628" type="line"/>
      <point x="634" y="601" type="line"/>
      <point x="614" y="600" type="line" smooth="yes"/>
      <point x="589" y="599"/>
      <point x="569" y="585"/>
      <point x="545" y="553" type="curve" smooth="yes"/>
      <point x="375" y="326" type="line"/>
      <point x="506" y="326" type="line"/>
      <point x="497" y="292" type="line"/>
      <point x="351" y="292" type="line"/>
      <point x="344" y="265"/>
      <point x="338" y="237"/>
      <point x="331" y="210" type="curve"/>
      <point x="484" y="210" type="line"/>
      <point x="476" y="176" type="line"/>
      <point x="323" y="176" type="line"/>
      <point x="298" y="59" type="line"/>
      <point x="297" y="56"/>
      <point x="297" y="53"/>
      <point x="297" y="51" type="curve" smooth="yes"/>
      <point x="297" y="39"/>
      <point x="305" y="34"/>
      <point x="321" y="32" type="curve"/>
      <point x="378" y="27" type="line"/>
      <point x="372" y="0" type="line"/>
      <point x="124" y="0" type="line"/>
      <point x="130" y="27" type="line"/>
      <point x="186" y="32" type="line" smooth="yes"/>
      <point x="201" y="33"/>
      <point x="213" y="41"/>
      <point x="217" y="59" type="curve" smooth="yes"/>
      <point x="243" y="176" type="line"/>
    </contour>
  </outline>
</glyph>
<glyph name="brokenbar" format="2">
  <advance width="253"/>
  <unicode hex="00A6"/>
  <outline>
    <contour>
      <point x="155" y="-164" type="line"/>
      <point x="155" y="164" type="line"/>
      <point x="219" y="164" type="line"/>
      <point x="219" y="-164" type="line"/>
    </contour>
    <contour>
      <point x="155" y="306" type="line"/>
      <point x="155" y="634" type="line"/>
      <point x="219" y="634" type="line"/>
      <point x="219" y="306" type="line"/>
    </contour>
  </outline>
</glyph>
<glyph name="section" format="2">
  <advance width="498"/>
  <unicode hex="00A7"/>
  <outline>
    <contour>
      <point x="85" y="-22" type="curve" smooth="yes"/>
      <point x="85" y="11"/>
      <point x="114" y="24"/>
      <point x="130" y="24" type="curve" smooth="yes"/>
      <point x="143" y="24"/>
      <point x="149" y="12"/>
      <point x="155" y="-1" type="curve"/>
      <point x="180" y="-61"/>
      <point x="221" y="-75"/>
      <point x="252" y="-75" type="curve" smooth="yes"/>
      <point x="293" y="-75"/>
      <point x="334" y="-44"/>
      <point x="334" y="8" type="curve" smooth="yes"/>
      <point x="334" y="43"/>
      <point x="330" y="95"/>
      <point x="228" y="163" type="curve" smooth="yes"/>
      <point x="124" y="232"/>
      <point x="114" y="293"/>
      <point x="114" y="338" type="curve" smooth="yes"/>
      <point x="114" y="420"/>
      <point x="171" y="491"/>
      <point x="241" y="538" type="curve"/>
      <point x="247" y="584"/>
      <point x="291" y="665"/>
      <point x="405" y="665" type="curve" smooth="yes"/>
      <point x="493" y="665"/>
      <point x="534" y="620"/>
      <point x="534" y="588" type="curve" smooth="yes"/>
      <point x="534" y="560"/>
      <point x="506" y="551"/>
      <point x="489" y="551" type="curve" smooth="yes"/>
      <point x="478" y="551"/>
      <point x="471" y="559"/>
      <point x="464" y="574" type="curve"/>
      <point x="448" y="611"/>
      <point x="420" y="632"/>
      <point x="385" y="632" type="curve" smooth="yes"/>
      <point x="342" y="632"/>
      <point x="303" y="598"/>
      <point x="303" y="552" type="curve" smooth="yes"/>
      <point x="303" y="528"/>
      <point x="305" y="485"/>
      <point x="396" y="427" type="curve" smooth="yes"/>
      <point x="481" y="372"/>
      <point x="515" y="320"/>
      <point x="515" y="243" type="curve" smooth="yes"/>
      <point x="515" y="158"/>
      <point x="459" y="91"/>
      <point x="400" y="37" type="curve"/>
      <point x="392" y="-45"/>
      <point x="335" y="-108"/>
      <point x="229" y="-108" type="curve" smooth="yes"/>
      <point x="137" y="-108"/>
      <point x="85" y="-61"/>
    </contour>
    <contour>
      <point x="170" y="382" type="curve" smooth="yes"/>
      <point x="170" y="335"/>
      <point x="191" y="284"/>
      <point x="267" y="230" type="curve" smooth="yes"/>
      <point x="343" y="177"/>
      <point x="390" y="127"/>
      <point x="398" y="80" type="curve"/>
      <point x="429" y="104"/>
      <point x="461" y="139"/>
      <point x="461" y="195" type="curve" smooth="yes"/>
      <point x="461" y="256"/>
      <point x="427" y="309"/>
      <point x="366" y="352" type="curve" smooth="yes"/>
      <point x="298" y="399"/>
      <point x="251" y="443"/>
      <point x="243" y="494" type="curve"/>
      <point x="207" y="475"/>
      <point x="170" y="436"/>
    </contour>
  </outline>
</glyph>
<glyph name="dieresis" format="2">
  <advance width="376"/>
  <unicode hex="00A8"/>
  <outline>
    <contour>
      <point x="390" y="584" type="curve" smooth="yes"/>
      <point x="390" y="618"/>
      <point x="415" y="641"/>
      <point x="446" y="641" type="curve" smooth="yes"/>
      <point x="474" y="641"/>
      <point x="491" y="619"/>
      <point x="491" y="595" type="curve" smooth="yes"/>
      <point x="491" y="563"/>
      <point x="469" y="538"/>
      <point x="436" y="538" type="curve" smooth="yes"/>
      <point x="406" y="538"/>
      <point x="390" y="557"/>
    </contour>
    <contour>
      <point x="195" y="584" type="curve" smooth="yes"/>
      <point x="195" y="618"/>
      <point x="219" y="641"/>
      <point x="250" y="641" type="curve" smooth="yes"/>
      <point x="278" y="641"/>
      <point x="295" y="619"/>
      <point x="295" y="595" type="curve" smooth="yes"/>
      <point x="295" y="563"/>
      <point x="274" y="538"/>
      <point x="241" y="538" type="curve" smooth="yes"/>
      <point x="211" y="538"/>
      <point x="195" y="557"/>
    </contour>
  </outline>
</glyph>
<glyph name="copyright" format="2">
  <advance width="785"/>
  <unicode hex="00A9"/>
  <outline>
    <contour>
      <point x="118" y="325" type="curve" smooth="yes"/>
      <point x="118" y="513"/>
      <point x="272" y="665"/>
      <point x="461" y="665" type="curve" smooth="yes"/>
      <point x="650" y="665"/>
      <point x="803" y="513"/>
      <point x="803" y="325" type="curve" smooth="yes"/>
      <point x="803" y="137"/>
      <point x="650" y="-14"/>
      <point x="461" y="-14" type="curve" smooth="yes"/>
      <point x="272" y="-14"/>
      <point x="118" y="137"/>
    </contour>
    <contour>
      <point x="179" y="325" type="curve" smooth="yes"/>
      <point x="179" y="159"/>
      <point x="303" y="28"/>
      <point x="461" y="28" type="curve" smooth="yes"/>
      <point x="619" y="28"/>
      <point x="743" y="159"/>
      <point x="743" y="325" type="curve" smooth="yes"/>
      <point x="743" y="491"/>
      <point x="619" y="622"/>
      <point x="461" y="622" type="curve" smooth="yes"/>
      <point x="303" y="622"/>
      <point x="179" y="491"/>
    </contour>
    <contour>
      <point x="282" y="327" type="curve" smooth="yes"/>
      <point x="282" y="441"/>
      <point x="349" y="517"/>
      <point x="480" y="517" type="curve" smooth="yes"/>
      <point x="525" y="517"/>
      <point x="576" y="507"/>
      <point x="605" y="488" type="curve"/>
      <point x="605" y="396" type="line"/>
      <point x="587" y="396" type="line"/>
      <point x="578" y="447"/>
      <point x="556" y="491"/>
      <point x="478" y="491" type="curve" smooth="yes"/>
      <point x="392" y="491"/>
      <point x="358" y="418"/>
      <point x="358" y="336" type="curve" smooth="yes"/>
      <point x="358" y="256"/>
      <point x="386" y="166"/>
      <point x="483" y="166" type="curve" smooth="yes"/>
      <point x="544" y="166"/>
      <point x="576" y="196"/>
      <point x="594" y="263" type="curve"/>
      <point x="613" y="263" type="line"/>
      <point x="603" y="169" type="line"/>
      <point x="579" y="151"/>
      <point x="534" y="140"/>
      <point x="474" y="140" type="curve" smooth="yes"/>
      <point x="336" y="140"/>
      <point x="282" y="221"/>
    </contour>
  </outline>
</glyph>
<glyph name="ordfeminine" format="2">
  <advance width="399"/>
  <unicode hex="00AA"/>
  <outline>
    <contour>
      <point x="105" y="321" type="curve" smooth="yes"/>
      <point x="105" y="399"/>
      <point x="179" y="555"/>
      <point x="326" y="555" type="curve" smooth="yes"/>
      <point x="349" y="555"/>
      <point x="364" y="550"/>
      <point x="378" y="542" type="curve"/>
      <point x="381" y="550" type="line"/>
      <point x="449" y="550" type="line"/>
      <point x="384" y="323" type="line" smooth="yes"/>
      <point x="381" y="312"/>
      <point x="379" y="304"/>
      <point x="379" y="298" type="curve" smooth="yes"/>
      <point x="379" y="292"/>
      <point x="381" y="289"/>
      <point x="387" y="289" type="curve" smooth="yes"/>
      <point x="406" y="289"/>
      <point x="433" y="328"/>
      <point x="446" y="349" type="curve"/>
      <point x="465" y="337" type="line"/>
      <point x="440" y="287"/>
      <point x="398" y="249"/>
      <point x="349" y="249" type="curve" smooth="yes"/>
      <point x="326" y="249"/>
      <point x="312" y="262"/>
      <point x="312" y="286" type="curve" smooth="yes"/>
      <point x="312" y="293"/>
      <point x="313" y="301"/>
      <point x="316" y="310" type="curve"/>
      <point x="335" y="374" type="line"/>
      <point x="332" y="374" type="line"/>
      <point x="298" y="322"/>
      <point x="241" y="249"/>
      <point x="168" y="249" type="curve" smooth="yes"/>
      <point x="122" y="249"/>
      <point x="105" y="283"/>
    </contour>
    <contour>
      <point x="180" y="321" type="curve" smooth="yes"/>
      <point x="180" y="298"/>
      <point x="188" y="289"/>
      <point x="208" y="289" type="curve" smooth="yes"/>
      <point x="280" y="289"/>
      <point x="355" y="458"/>
      <point x="373" y="516" type="curve"/>
      <point x="367" y="524"/>
      <point x="353" y="528"/>
      <point x="334" y="528" type="curve" smooth="yes"/>
      <point x="241" y="528"/>
      <point x="180" y="387"/>
    </contour>
  </outline>
</glyph>
<glyph name="guillemotleft" format="2">
  <advance width="434"/>
  <unicode hex="00AB"/>
  <outline>
    <contour>
      <point x="293" y="210" type="line" smooth="yes"/>
      <point x="291" y="213"/>
      <point x="290" y="217"/>
      <point x="290" y="221" type="curve" smooth="yes"/>
      <point x="290" y="227"/>
      <point x="292" y="234"/>
      <point x="297" y="239" type="curve"/>
      <point x="456" y="409" type="line"/>
      <point x="475" y="393" type="line"/>
      <point x="379" y="240" type="line"/>
      <point x="375" y="234"/>
      <point x="373" y="228"/>
      <point x="373" y="221" type="curve" smooth="yes"/>
      <point x="373" y="217"/>
      <point x="373" y="212"/>
      <point x="375" y="208" type="curve"/>
      <point x="427" y="53" type="line"/>
      <point x="405" y="39" type="line"/>
    </contour>
    <contour>
      <point x="110" y="210" type="line" smooth="yes"/>
      <point x="108" y="213"/>
      <point x="107" y="217"/>
      <point x="107" y="221" type="curve" smooth="yes"/>
      <point x="107" y="227"/>
      <point x="109" y="234"/>
      <point x="114" y="239" type="curve"/>
      <point x="273" y="409" type="line"/>
      <point x="291" y="393" type="line"/>
      <point x="196" y="240" type="line"/>
      <point x="192" y="234"/>
      <point x="190" y="228"/>
      <point x="190" y="221" type="curve" smooth="yes"/>
      <point x="190" y="217"/>
      <point x="190" y="212"/>
      <point x="192" y="208" type="curve"/>
      <point x="243" y="53" type="line"/>
      <point x="222" y="39" type="line"/>
    </contour>
  </outline>
</glyph>
<glyph name="logicalnot" format="2">
  <advance width="535"/>
  <unicode hex="00AC"/>
  <outline>
    <contour>
      <point x="87" y="311" type="line"/>
      <point x="87" y="366" type="line"/>
      <point x="542" y="366" type="line"/>
      <point x="542" y="96" type="line"/>
      <point x="478" y="96" type="line"/>
      <point x="478" y="311" type="line"/>
    </contour>
  </outline>
</glyph>
<glyph name="uni00AD" format="2">
  <advance width="368"/>
  <unicode hex="00AD"/>
  <outline>
    <contour>
      <point x="110" y="203" type="line"/>
      <point x="123" y="269" type="line"/>
      <point x="353" y="269" type="line"/>
      <point x="340" y="203" type="line"/>
    </contour>
  </outline>
</glyph>
<glyph name="registered" format="2">
  <advance width="785"/>
  <unicode hex="00AE"/>
  <outline>
    <contour>
      <point x="118" y="325" type="curve" smooth="yes"/>
      <point x="118" y="513"/>
      <point x="272" y="665"/>
      <point x="461" y="665" type="curve" smooth="yes"/>
      <point x="650" y="665"/>
      <point x="803" y="513"/>
      <point x="803" y="325" type="curve" smooth="yes"/>
      <point x="803" y="137"/>
      <point x="650" y="-14"/>
      <point x="461" y="-14" type="curve" smooth="yes"/>
      <point x="272" y="-14"/>
      <point x="118" y="137"/>
    </contour>
    <contour>
      <point x="179" y="325" type="curve" smooth="yes"/>
      <point x="179" y="159"/>
      <point x="303" y="28"/>
      <point x="461" y="28" type="curve" smooth="yes"/>
      <point x="619" y="28"/>
      <point x="743" y="159"/>
      <point x="743" y="325" type="curve" smooth="yes"/>
      <point x="743" y="491"/>
      <point x="619" y="622"/>
      <point x="461" y="622" type="curve" smooth="yes"/>
      <point x="303" y="622"/>
      <point x="179" y="491"/>
    </contour>
    <contour>
      <point x="306" y="149" type="line"/>
      <point x="306" y="168" type="line"/>
      <point x="335" y="172" type="line" smooth="yes"/>
      <point x="351" y="174"/>
      <point x="353" y="182"/>
      <point x="353" y="198" type="curve" smooth="yes"/>
      <point x="353" y="457" type="line" smooth="yes"/>
      <point x="353" y="475"/>
      <point x="351" y="482"/>
      <point x="335" y="485" type="curve"/>
      <point x="306" y="489" type="line"/>
      <point x="306" y="508" type="line"/>
      <point x="475" y="508" type="line" smooth="yes"/>
      <point x="566" y="508"/>
      <point x="597" y="470"/>
      <point x="597" y="419" type="curve" smooth="yes"/>
      <point x="597" y="367"/>
      <point x="559" y="338"/>
      <point x="506" y="330" type="curve"/>
      <point x="506" y="327" type="line"/>
      <point x="562" y="313"/>
      <point x="571" y="279"/>
      <point x="579" y="238" type="curve" smooth="yes"/>
      <point x="584" y="211"/>
      <point x="592" y="194"/>
      <point x="604" y="180" type="curve"/>
      <point x="612" y="172"/>
      <point x="624" y="168"/>
      <point x="637" y="164" type="curve"/>
      <point x="637" y="149" type="line"/>
      <point x="596" y="149" type="line"/>
      <point x="529" y="149"/>
      <point x="522" y="194"/>
      <point x="513" y="248" type="curve" smooth="yes"/>
      <point x="505" y="291"/>
      <point x="498" y="314"/>
      <point x="446" y="314" type="curve" smooth="yes"/>
      <point x="415" y="314" type="line"/>
      <point x="415" y="198" type="line" smooth="yes"/>
      <point x="415" y="182"/>
      <point x="418" y="174"/>
      <point x="435" y="172" type="curve" smooth="yes"/>
      <point x="463" y="168" type="line"/>
      <point x="463" y="149" type="line"/>
    </contour>
    <contour>
      <point x="415" y="340" type="line"/>
      <point x="450" y="340" type="line" smooth="yes"/>
      <point x="498" y="340"/>
      <point x="531" y="360"/>
      <point x="531" y="412" type="curve" smooth="yes"/>
      <point x="531" y="469"/>
      <point x="493" y="481"/>
      <point x="457" y="481" type="curve" smooth="yes"/>
      <point x="418" y="481"/>
      <point x="415" y="476"/>
      <point x="415" y="462" type="curve" smooth="yes"/>
    </contour>
  </outline>
</glyph>
<glyph name="macron" format="2">
  <advance width="376"/>
  <unicode hex="00AF"/>
  <outline>
    <contour>
      <point x="214" y="561" type="line"/>
      <point x="231" y="617" type="line"/>
      <point x="493" y="617" type="line"/>
      <point x="476" y="561" type="line"/>
    </contour>
  </outline>
</glyph>
<glyph name="degree" format="2">
  <advance width="376"/>
  <unicode hex="00B0"/>
  <outline>
    <contour>
      <point x="176" y="509" type="curve" smooth="yes"/>
      <point x="176" y="579"/>
      <point x="235" y="639"/>
      <point x="306" y="639" type="curve" smooth="yes"/>
      <point x="376" y="639"/>
      <point x="435" y="579"/>
      <point x="435" y="509" type="curve" smooth="yes"/>
      <point x="435" y="438"/>
      <point x="376" y="380"/>
      <point x="306" y="380" type="curve" smooth="yes"/>
      <point x="235" y="380"/>
      <point x="176" y="438"/>
    </contour>
    <contour>
      <point x="228" y="509" type="curve" smooth="yes"/>
      <point x="228" y="460"/>
      <point x="265" y="425"/>
      <point x="306" y="425" type="curve" smooth="yes"/>
      <point x="346" y="425"/>
      <point x="383" y="460"/>
      <point x="383" y="509" type="curve" smooth="yes"/>
      <point x="383" y="557"/>
      <point x="346" y="594"/>
      <point x="305" y="594" type="curve" smooth="yes"/>
      <point x="265" y="594"/>
      <point x="228" y="557"/>
    </contour>
  </outline>
</glyph>
<glyph name="plusminus" format="2">
  <advance width="535"/>
  <unicode hex="00B1"/>
  <outline>
    <contour>
      <point x="87" y="292" type="line"/>
      <point x="87" y="347" type="line"/>
      <point x="284" y="347" type="line"/>
      <point x="284" y="523" type="line"/>
      <point x="348" y="523" type="line"/>
      <point x="348" y="347" type="line"/>
      <point x="542" y="347" type="line"/>
      <point x="542" y="292" type="line"/>
      <point x="348" y="292" type="line"/>
      <point x="348" y="107" type="line"/>
      <point x="284" y="107" type="line"/>
      <point x="284" y="292" type="line"/>
    </contour>
    <contour>
      <point x="87" y="0" type="line"/>
      <point x="87" y="55" type="line"/>
      <point x="542" y="55" type="line"/>
      <point x="542" y="0" type="line"/>
    </contour>
  </outline>
</glyph>
<glyph name="uni00B2" format="2">
  <advance width="347"/>
  <unicode hex="00B2"/>
  <outline>
    <contour>
      <point x="66" y="364" type="line"/>
      <point x="83" y="410"/>
      <point x="139" y="467"/>
      <point x="202" y="500" type="curve" smooth="yes"/>
      <point x="287" y="544"/>
      <point x="330" y="594"/>
      <point x="330" y="652" type="curve" smooth="yes"/>
      <point x="330" y="680"/>
      <point x="320" y="713"/>
      <point x="280" y="713" type="curve" smooth="yes"/>
      <point x="249" y="713"/>
      <point x="221" y="690"/>
      <point x="206" y="639" type="curve" smooth="yes"/>
      <point x="203" y="629"/>
      <point x="193" y="619"/>
      <point x="180" y="619" type="curve" smooth="yes"/>
      <point x="162" y="619"/>
      <point x="144" y="634"/>
      <point x="144" y="649" type="curve" smooth="yes"/>
      <point x="144" y="683"/>
      <point x="193" y="739"/>
      <point x="282" y="739" type="curve" smooth="yes"/>
      <point x="368" y="739"/>
      <point x="408" y="696"/>
      <point x="408" y="637" type="curve" smooth="yes"/>
      <point x="408" y="570"/>
      <point x="350" y="537"/>
      <point x="266" y="500" type="curve" smooth="yes"/>
      <point x="202" y="472"/>
      <point x="157" y="434"/>
      <point x="147" y="411" type="curve"/>
      <point x="292" y="411" type="line" smooth="yes"/>
      <point x="322" y="411"/>
      <point x="332" y="420"/>
      <point x="349" y="442" type="curve"/>
      <point x="369" y="436" type="line"/>
      <point x="336" y="356" type="line"/>
      <point x="72" y="356" type="line"/>
    </contour>
  </outline>
</glyph>
<glyph name="uni00B3" format="2">
  <advance width="347"/>
  <unicode hex="00B3"/>
  <outline>
    <contour>
      <point x="88" y="423" type="curve" smooth="yes"/>
      <point x="88" y="439"/>
      <point x="103" y="460"/>
      <point x="127" y="460" type="curve" smooth="yes"/>
      <point x="141" y="460"/>
      <point x="145" y="450"/>
      <point x="150" y="436" type="curve"/>
      <point x="163" y="396"/>
      <point x="184" y="375"/>
      <point x="219" y="375" type="curve" smooth="yes"/>
      <point x="267" y="375"/>
      <point x="295" y="419"/>
      <point x="295" y="476" type="curve" smooth="yes"/>
      <point x="295" y="523"/>
      <point x="274" y="542"/>
      <point x="238" y="542" type="curve" smooth="yes"/>
      <point x="221" y="542"/>
      <point x="194" y="535"/>
      <point x="186" y="535" type="curve" smooth="yes"/>
      <point x="178" y="535"/>
      <point x="174" y="542"/>
      <point x="174" y="550" type="curve" smooth="yes"/>
      <point x="174" y="568"/>
      <point x="182" y="578"/>
      <point x="190" y="578" type="curve" smooth="yes"/>
      <point x="199" y="578"/>
      <point x="226" y="571"/>
      <point x="247" y="571" type="curve" smooth="yes"/>
      <point x="302" y="571"/>
      <point x="325" y="619"/>
      <point x="325" y="660" type="curve" smooth="yes"/>
      <point x="325" y="696"/>
      <point x="304" y="713"/>
      <point x="277" y="713" type="curve" smooth="yes"/>
      <point x="238" y="713"/>
      <point x="222" y="684"/>
      <point x="205" y="652" type="curve"/>
      <point x="199" y="642"/>
      <point x="194" y="634"/>
      <point x="179" y="634" type="curve" smooth="yes"/>
      <point x="163" y="634"/>
      <point x="147" y="649"/>
      <point x="147" y="663" type="curve" smooth="yes"/>
      <point x="147" y="695"/>
      <point x="192" y="739"/>
      <point x="275" y="739" type="curve" smooth="yes"/>
      <point x="357" y="739"/>
      <point x="399" y="701"/>
      <point x="399" y="646" type="curve" smooth="yes"/>
      <point x="399" y="595"/>
      <point x="355" y="563"/>
      <point x="297" y="558" type="curve"/>
      <point x="297" y="555" type="line"/>
      <point x="356" y="544"/>
      <point x="373" y="501"/>
      <point x="373" y="466" type="curve" smooth="yes"/>
      <point x="373" y="406"/>
      <point x="327" y="349"/>
      <point x="212" y="349" type="curve" smooth="yes"/>
      <point x="131" y="349"/>
      <point x="88" y="391"/>
    </contour>
  </outline>
</glyph>
<glyph name="acute" format="2">
  <advance width="376"/>
  <unicode hex="00B4"/>
  <outline>
    <contour>
      <point x="234" y="528" type="line"/>
      <point x="346" y="641" type="line" smooth="yes"/>
      <point x="374" y="670"/>
      <point x="390" y="680"/>
      <point x="406" y="680" type="curve" smooth="yes"/>
      <point x="420" y="680"/>
      <point x="443" y="658"/>
      <point x="443" y="639" type="curve" smooth="yes"/>
      <point x="443" y="619"/>
      <point x="418" y="603"/>
      <point x="390" y="588" type="curve" smooth="yes"/>
      <point x="248" y="509" type="line"/>
    </contour>
  </outline>
</glyph>
